<?xml version="1.0" encoding="utf-8"?>
<!-- Generator: Adobe Illustrator 23.0.1, SVG Export Plug-In . SVG Version: 6.00 Build 0)  -->
<svg version="1.1" id="background" xmlns="http://www.w3.org/2000/svg" xmlns:xlink="http://www.w3.org/1999/xlink" x="0px" y="0px"
	 viewBox="0 0 85.2 88.6" style="enable-background:new 0 0 85.2 88.6;" xml:space="preserve">
<style type="text/css">
	.st0{stroke:#000000;stroke-miterlimit:10;}
	.st1{fill:none;stroke:#000000;stroke-miterlimit:10;}
	.st2{fill:#725130;stroke:#000000;stroke-miterlimit:10;}
	.st3{fill:#E179AA;stroke:#000000;stroke-miterlimit:10;}
	.st4{fill:none;stroke:#E179AA;stroke-miterlimit:10;}
	.st5{fill:#F4F4C0;stroke:#000000;stroke-miterlimit:10;}
	.st6{fill:#F9F8CE;stroke:#000000;stroke-miterlimit:10;}
	.st7{fill:#F3EB3D;stroke:#000000;stroke-miterlimit:10;}
	.st8{stroke:#FFFFFF;stroke-miterlimit:10;}
	.st9{fill:#FFFFFF;stroke:#000000;stroke-miterlimit:10;}
	.st10{fill:#E8E61B;stroke:#000000;stroke-miterlimit:10;}
	.st11{fill:#F15922;stroke:#000000;stroke-miterlimit:10;}
	.st12{fill:#ED2490;stroke:#000000;stroke-miterlimit:10;}
	.st13{fill:#EE2924;stroke:#000000;stroke-miterlimit:10;}
	.st14{fill:#6BCCE4;stroke:#000000;stroke-miterlimit:10;}
	.st15{fill:#129F49;stroke:#000000;stroke-miterlimit:10;}
	.st16{fill:#EF4829;stroke:#000000;stroke-miterlimit:10;}
	.st17{fill:#F04D23;stroke:#000000;stroke-miterlimit:10;}
	.st18{fill:#EF3B24;stroke:#000000;stroke-miterlimit:10;}
	.st19{fill:#33449B;stroke:#000000;stroke-miterlimit:10;}
	.st20{fill:#6CBE45;stroke:#000000;stroke-miterlimit:10;}
	.st21{fill:#66CCE9;stroke:#000000;stroke-miterlimit:10;}
	.st22{fill:#EE3024;stroke:#000000;stroke-miterlimit:10;}
	.st23{fill:#55B948;stroke:#000000;stroke-miterlimit:10;}
	.st24{fill:#3B2F90;stroke:#000000;stroke-miterlimit:10;}
	.st25{fill:#2AB34B;stroke:#000000;stroke-miterlimit:10;}
	.st26{fill:#312D85;stroke:#000000;stroke-miterlimit:10;}
	.st27{fill:#47B649;stroke:#000000;stroke-miterlimit:10;}
</style>
<g id="cat_paw">
	<path id="middle_paw" class="st0" d="M-388.3,27.7c0,0,6.4-5.7,8.9-10.7s11.4-10.4,17.9,0c0,0,4.4,7,6.8,8.2
		c0,0,12.6,12.1-0.7,18.4c0,0-6.1,0.1-7.2-0.9c0,0-8.4-4-13.5-0.1c0,0-10.6,5.4-13.9-3.2C-390.1,39.4-393.1,35.2-388.3,27.7z"/>
	<path id="first_dot" class="st0" d="M-400.4,11.1c0,0-0.3-8.3,8-5.5c0,0,7,2.1,6,9.8c0,0-0.8,8.1-7.7,5.3
		C-394.2,20.7-400.4,19.3-400.4,11.1z"/>
	<path id="second_dot" class="st0" d="M-387.5-5.3c0,0,4-9.2,11.4-2.1c0,0,6.4,6.4,1.7,13.7c0,0-3.6,5.8-9.7,1.2
		C-384.1,7.4-389,2.4-387.5-5.3z"/>
	<path id="third_dot" class="st0" d="M-365.1-7.3c0,0,6-7.3,10.9,2.3c0,0,2.3,6.6-1.7,10.6c0,0-2.9,4.4-6.9,3.6c0,0-5-1.3-4.8-5.8
		C-367.6,3.5-369.6-1.6-365.1-7.3z"/>
	<path id="forth_dot" class="st0" d="M-349.4,5.5c0,0,6.6-3.3,8.1,5.7c0,0-0.3,7.3-4.1,8.5c0,0-2.4,2.2-5.9,1.6c0,0-3.8-1.1-3.4-5.2
		C-354.6,16.1-356.2,9.4-349.4,5.5z"/>
</g>
<g id="cake">
	<ellipse id="top_cake" class="st1" cx="-276.5" cy="18.6" rx="43.4" ry="12.7"/>
	<path id="chocolate_cake" class="st2" d="M-319.9,18.6l2.5,58.1c0,0,40.9,25,79.8,0c0,0,4.5-46.4,3.9-55.9"/>
	<path id="icing_side" class="st3" d="M-319.1,35.6c0,0,3.4,32.6,9.1,2.4c0,0,4.1-14.3,8.2,0c0,0,6.1,14.7,9.8,3.2
		c0,0,3.3-6.6,4.5,0c0,0,6.1,36.4,8.6,0c0,0,3.3-5.3,8.6-0.8c0,0,7,25.4,14.3-1.6c0,0,4.5-1.6,4.9,0.8c0,0,8.6,51.1,13.9-2.5
		c0,0-0.1-12.7,3.2-7l0.2-10.5c0,0-9.2,9.5-19.6,8.6c0,0-29,3.4-41.7,0.7c0,0-24.2-4.5-24-9.3V35.6z"/>
	<ellipse id="top_icing_cake" class="st3" cx="-276.8" cy="18.6" rx="43.4" ry="12.7"/>
	<path id="icing_ring" class="st4" d="M-317.1,68.7c0,0,61.2,23.7,81.1-6"/>
	<path id="candle" class="st5" d="M-283,19.1V-7.1c0,0,2.9,3.1,5.5,0v27.3C-277.5,20.2-281.5,21.9-283,19.1z"/>
	<ellipse id="candle_tip" class="st6" cx="-280.3" cy="-7.7" rx="2.7" ry="1.6"/>
	<rect id="fire_string" x="-280.5" y="-8.8" class="st1" width="0.5" height="2"/>
	<path id="fire" class="st7" d="M-282.1-10.9c0,0-0.2,2.4,1.3,2.2c0,0,1.8,1.4,3-2.2c0,0-1.7-2.6-2.5-5.6
		C-280.4-16.6-282.1-15.4-282.1-10.9z"/>
</g>
<g id="flower">
	<path id="flower_patals" class="st8" d="M-136.4,64.6c0,0,5.5,6.1,5.9,15.4c0,0,1.6,5.2,2.5,6.2c0,0,6.2,16.2-4.2,24.8
		c0,0-10,8-18.7-1.8c0,0-7.3-3.6-5.9-25.6l0.4-4.3c0,0-4,12.2,0,24c0,0-5,2.7-10.7-0.6c0,0-3.1-9-4.4-11.6c0,0,18.7-9.8,23.9-26.5
		c0,0-10.5,23.4-28.3,27.1c0,0-4.3,1.3-9.5-3.9c0,0-1-2.1-1.8-2.1c0,0-1.6-4-0.9-8.6c0,0,1.8-0.1,0.7-4c0,0,1-3.9,5.6-6.4
		c0,0,14.2-4.3,27.9-9.5c0,0-27.4,8.6-34.4,11.4c0,0-3.8,0-5.1-2.2c0,0-3.4-0.3-4.4-5.5c0,0,0.9-2.1,0-3.3c0,0,1-4.2,0.6-5.5
		c0,0,0.1-6.5,4.6-8.3c0,0,14.3,10.1,37.9,9.3c0,0-34.8-3.2-40-11.8c0,0-0.7,0.7-1.2-4c0,0-2.7-4.3-0.1-6.4c0,0,4.9-3.9,7.4-4.4
		c0,0,2.8-2.8,9.3-2.7c0,0,2.7-3.9,10.2,0.6c0,0,13.2,2.4,18.5,17.3c0,0-5.9-18.1-28.2-20.5c0,0-4.7-14.5,4.9-20.8
		c0,0,1.8-2.1,8.2,1.2c0,0,0.3,2.5,3,8.3c0,0,19.9,21.5,18.2,28.7c0,0,0.7-5.8-9.2-19.3c0,0-7.7-6.8-8.3-11c0,0-3.8-9.8,7.2-15.1
		c0,0,3.8-2.1,5.7,0c0,0,5-3.9,14.7,2.2c0,0,7.4,4.6,7.1,10.1c0,0-16.2,17-10.8,33.1c0,0-5.1-17.4,12-33.1c0,0,9.3-7.3,18-3.7
		s8.3,15.6,8.3,15.6s-1,9.3-10.1,14.4c0,0-16.3,7.1-19.3,13.3c0,0,7.1-9,19-12.3c0,0,5.2-4.6,8-7.1c0,0,8.9-4,16.2,2.8
		c7.3,6.8,2.4,10.1,2.4,10.1s4.2,4.4-5.2,18c0,0-16.9-16.9-39.2-5.6c0,0,24.2-11.7,40.2,8.3c0,0,1.9,1.6,2.7,4.7
		c0,0-0.7,2.4,0.3,3.6c0,0,1.5,2.2-0.3,3c0,0-0.3,0.6-0.2,1.8c0,0.2,0,0.5,0.1,0.8c0.3,1.6,0.3,3-1.9,4c0,0,2.2,1.8-1.8,6.7
		c0,0-1.5,2.5-4,3.9c0,0-6.4,2.1-11.3,1.2c0,0-16.9-27-25.5-30.4c0,0,18.8,16,25.1,31.3c0,0-1,12.3-10.8,11.1c0,0-9.2-1-9.9-3.1
		c0,0-1.2-7.7-2.5-14.2l-1.8-4.3C-129.8,79.4-133,66.1-136.4,64.6z"/>
	<circle id="flower_center" class="st9" cx="-141.4" cy="52.3" r="13.4"/>
</g>
<g id="mirror">
	<ellipse id="circle_mirror" class="st1" cx="-39.2" cy="34.5" rx="25.2" ry="28.7"/>
	<path id="holding_mirror" class="st0" d="M-39.7,68.7v7.5c0,0-8.1-0.3-10.9,6.5h23.4c0,0-1.7-5.8-10-6l-1.2-0.2l0.3-7.8H-39.7z"/>
	<path id="mirror_cut" class="st0" d="M-55.8,27.6c0,0,8.2-10,13.2-12.9C-42.6,14.7-50.4,25-55.8,27.6z"/>
	<path id="big_mirror_cut" class="st0" d="M-54.1,35.9c0,0,11.3-13.9,19.6-19.6C-34.5,16.3-46.3,30.7-54.1,35.9z"/>
	<ellipse id="big_mirror_circle" class="st1" cx="-39.2" cy="34.9" rx="24.6" ry="28"/>
	<path id="mirror_holder" class="st1" d="M-64.4,34.5H-69c0,0-3.3,32.1,30.2,33.2c0,0,27.8,1.5,29.5-33.2H-14"/>
</g>
<ellipse id="circle_donut" class="st9" cx="42.9" cy="44.3" rx="41.8" ry="43.8"/>
<path id="icing" class="st0" d="M5.4,33.5c0,0-2.9-11.7,6.6-15.6c0,0,7.8-1.4,11-12.1c0,0,2.4-3.1,4.9-2.3c0,0,13.7,4.9,26.9,1.2
	c0,0,12.4-1.2,12.4,7.7c0,0,1.4,13.9,10.8,15.3c0,0,7.5,2.1,3.3,11.6c0,0-2.9,10.6,1.3,15.1c0,0,1.4,11.6-5.8,11.8
	c0,0-9.3,2-11.6,13.7c0,0-3.1,4.1-6.6,3.5c0,0-13.2-0.4-17.7,3.3c0,0-8,2.1-10.2-2.3c0,0-8.2-9.7-17.1-8.7c0,0-4.3-4.1-3.9-7.2
	c0,0,0-13.7-8.2-17.7c0,0-2.9-3.7,1.2-6.3C2.7,44.3,8.7,39.6,5.4,33.5z"/>
<path id="inside_donut" class="st9" d="M26.7,34.8c0,0,5.2-3.5,8.1-3.5c0,0,5.6-4.3,11-1.9l5.2,2.3c0,0,6,2.5,7.2,7.6
	c0,0,3.7,7.2,0,14.9c0,0-3.7,5.8-8.3,5.4c0,0-3.5-2.3-7.6,1.4c0,0-5.6,2.9-10.2-3.1c0,0-2.5-3.7-5.4-5.6c0,0-1.2-2.1-1.4-7.2
	C25.3,45.2,22.8,40,26.7,34.8z"/>
<path id="smal_circle" class="st9" d="M31.6,46.5c0,0-4.2-9.2,5.9-13c0,0,13-1.3,15,6.5c0,0,5,9-4.6,14.8
	C47.9,54.9,37.4,62.4,31.6,46.5z"/>
<g id="sprikles_29_">
	<path id="sprikles" class="st10" d="M28.6,17.6c0,0,2.4-3.1,6-1.3c0,0,0.5,0.6,0,1.1c0,0-3.6-1.3-4.9,1.1
		C29.7,18.4,28.3,18.8,28.6,17.6z"/>
	<path id="sprikles_1_" class="st11" d="M37.3,16.3c0,0,2.4-3.1,6-1.3c0,0,0.5,0.6,0,1.1c0,0-3.6-1.3-4.9,1.1
		C38.5,17,37,17.4,37.3,16.3z"/>
	<path id="sprikles_2_" class="st12" d="M36.7,20.1c0,0,3.9-0.5,5.2,3.3c0,0-0.1,0.7-0.7,0.7c0,0-1.5-3.5-4.2-2.7
		C37,21.5,35.7,20.7,36.7,20.1z"/>
	<path id="sprikles_3_" class="st13" d="M29.1,20.1c0,0,3.8,0.7,4,4.7c0,0-0.3,0.7-0.9,0.5c0,0-0.5-3.8-3.2-3.8
		C29,21.5,27.9,20.4,29.1,20.1z"/>
	<path id="sprikles_4_" class="st9" d="M27.9,28.6c0,0-3.8,1-5.6-2.6c0,0,0-0.7,0.6-0.8c0,0,2,3.2,4.5,2.2
		C27.5,27.3,28.9,27.8,27.9,28.6z"/>
	<path id="sprikles_5_" class="st10" d="M12.1,22c0,0,3.1,2.3,1.5,6c0,0-0.6,0.5-1.1,0c0,0,1.2-3.6-1.2-4.9
		C11.3,23.2,10.9,21.7,12.1,22z"/>
	<path id="sprikles_6_" class="st14" d="M13.2,33.3c0,0,2.4-3.1,6-1.3c0,0,0.5,0.6,0,1.1c0,0-3.6-1.3-4.9,1.1
		C14.4,34.1,12.9,34.4,13.2,33.3z"/>
	<path id="sprikles_7_" class="st15" d="M22.8,36.8c0,0-3.4,1.9-6.1-1.2c0,0-0.2-0.7,0.4-1c0,0,2.7,2.6,4.9,1
		C22,35.7,23.5,35.9,22.8,36.8z"/>
	<path id="sprikles_8_" class="st10" d="M17.4,46.7c0,0-3.5-1.6-2.7-5.6c0,0,0.4-0.6,1-0.2c0,0-0.5,3.8,2.2,4.5
		C17.9,45.4,18.6,46.7,17.4,46.7z"/>
	<path id="sprikles_9_" class="st16" d="M11,43.7c0,0,3.4,2,2.2,5.8c0,0-0.5,0.6-1,0.1c0,0,0.8-3.7-1.7-4.7
		C10.4,44.9,9.8,43.5,11,43.7z"/>
	<path id="sprikles_10_" class="st9" d="M16.8,55.4c0,0-3.3,2-6.1-0.9c0,0-0.2-0.7,0.4-1c0,0,2.8,2.5,5,0.8
		C16,54.3,17.5,54.4,16.8,55.4z"/>
	<path id="sprikles_11_" class="st17" d="M21.9,56.7c0,0,3.2-2.2,6.2,0.5c0,0,0.3,0.7-0.3,1c0,0-3-2.3-5-0.4
		C22.8,57.7,21.3,57.7,21.9,56.7z"/>
	<path id="sprikles_12_" class="st18" d="M15.2,66.1c0,0-2.8-2.8-0.6-6.2c0,0,0.6-0.4,1,0.1c0,0-1.8,3.4,0.4,5
		C16.1,65,16.3,66.5,15.2,66.1z"/>
	<path id="sprikles_13_" class="st19" d="M20.7,69c0,0-1.6-3.5,1.6-6c0,0,0.7-0.2,0.9,0.5c0,0-2.8,2.5-1.3,4.8
		C21.9,68.4,21.6,69.8,20.7,69z"/>
	<path id="sprikles_14_" class="st9" d="M27.4,73.6c0,0,0.4-3.9,4.4-4.3c0,0,0.7,0.2,0.6,0.9c0,0-3.7,0.7-3.6,3.5
		C28.8,73.7,27.8,74.7,27.4,73.6z"/>
	<path id="sprikles_15_" class="st20" d="M40.6,66.9c0,0,3.5,1.6,2.7,5.6c0,0-0.5,0.6-1,0.2c0,0,0.5-3.8-2.1-4.5
		C40.1,68.2,39.4,66.8,40.6,66.9z"/>
	<path id="sprikles_16_" class="st21" d="M38.5,77.5c0,0,2.4-3.1,6-1.3c0,0,0.5,0.6,0,1.1c0,0-3.6-1.3-4.9,1.1
		C39.7,78.3,38.2,78.7,38.5,77.5z"/>
	<path id="sprikles_17_" class="st10" d="M54.2,70.7c0,0-0.6-3.9,3.1-5.3c0,0,0.7,0,0.8,0.7c0,0-3.4,1.7-2.6,4.3
		C55.5,70.4,54.8,71.7,54.2,70.7z"/>
	<path id="sprikles_18_" class="st9" d="M67.3,59.5c0,0,3.2,2.2,1.7,6c0,0-0.5,0.5-1.1,0.1c0,0,1.2-3.6-1.3-4.8
		C66.6,60.7,66.1,59.2,67.3,59.5z"/>
	<path id="sprikles_19_" class="st22" d="M69.4,57.2c0,0,2.4-3.1,6-1.3c0,0,0.5,0.6,0,1.1c0,0-3.6-1.3-4.9,1.1
		C70.6,57.9,69.1,58.3,69.4,57.2z"/>
	<path id="sprikles_20_" class="st23" d="M64.4,53.9c0,0,2.4-3.1,6-1.3c0,0,0.5,0.6,0,1.1c0,0-3.6-1.3-4.9,1.1
		C65.5,54.7,64.1,55.1,64.4,53.9z"/>
	<path id="sprikles_21_" class="st10" d="M68.8,41.5c0,0,3.9,0.5,4.2,4.5c0,0-0.3,0.7-0.9,0.5c0,0-0.6-3.7-3.4-3.7
		C68.7,42.9,67.6,41.9,68.8,41.5z"/>
	<path id="sprikles_22_" class="st24" d="M63.1,39.8c0,0,3.6,1.5,2.9,5.5c0,0-0.4,0.6-1,0.3c0,0,0.3-3.8-2.4-4.4
		C62.7,41.1,62,39.9,63.1,39.8z"/>
	<path id="sprikles_23_" class="st9" d="M66.5,35.6c0,0,0-3.9,4-4.8c0,0,0.7,0.2,0.6,0.8c0,0-3.6,1.1-3.2,3.8
		C67.9,35.5,67,36.7,66.5,35.6z"/>
	<path id="sprikles_24_" class="st25" d="M62.7,22.5c0,0,3.8,0.6,4.1,4.7c0,0-0.3,0.7-0.9,0.5c0,0-0.5-3.8-3.3-3.8
		C62.6,23.9,61.6,22.8,62.7,22.5z"/>
	<path id="sprikles_25_" class="st10" d="M53.2,24.9c0,0,2.4-3.1,6-1.3c0,0,0.5,0.6,0,1.1c0,0-3.6-1.3-4.9,1.1
		C54.3,25.7,52.9,26.1,53.2,24.9z"/>
	<path id="sprikles_26_" class="st26" d="M50,16.3c0,0,2.4-3.1,6-1.3c0,0,0.5,0.6,0,1.1c0,0-3.6-1.3-4.9,1.1
		C51.2,17,49.8,17.4,50,16.3z"/>
	<path id="sprikles_27_" class="st9" d="M56.1,8.8c0,0,3.7,1.2,3.4,5.2c0,0-0.4,0.7-1,0.4c0,0,0-3.8-2.7-4.2
		C55.8,10.1,54.9,8.9,56.1,8.8z"/>
	<path id="sprikles_28_" class="st27" d="M45.5,17.9c0,0,3.9,0.2,4.5,4.2c0,0-0.2,0.7-0.9,0.6c0,0-0.9-3.7-3.7-3.4
		C45.5,19.2,44.4,18.3,45.5,17.9z"/>
</g>
<g id="lipstick_1_">
	<polygon id="bottom_lipstick" class="st0" points="108.2,54 108.2,89.6 127.8,89.6 128.2,54 	"/>
	<path id="center_of_lipstick" class="st1" d="M110.4,51.6V28c0,0,5,6.5,16,0v23.6"/>
	<path id="lipstick" class="st0" d="M112.5,13.7V28c0,0,4.7,1.7,10.8,0c0,0,0.6-18.8-2-21.4C121.3,6.6,119.2,12,112.5,13.7z"/>
	<path id="lipstick_top" class="st0" d="M112.5,12.1c0,0,3-10.3,7.2-8.2C119.6,3.9,121.8,7.2,112.5,12.1z"/>
</g>
<g id="makeup_mirror">
	<path id="outside_mirror" class="st0" d="M173,51.3v3h-7c0,0-26.5-22.3,0-45.9c0,0,19.3-14,37,5.3c0,0,15.6,17-0.8,35.8l-4.6,4.9
		h-7.2l-0.1-2.7c0,0,25.3-13.7,5.9-36.7c0,0-13.2-11.2-28.2-0.2s-4.8,29.4-4.8,29.4S168.9,50.6,173,51.3z"/>
	<path id="bottom_mirror" class="st0" d="M174.8,51.8v2.5h14v-2.5C188.7,51.8,181.2,55.5,174.8,51.8z"/>
	<ellipse id="blush" class="st0" cx="181.8" cy="67.2" rx="21.9" ry="10.9"/>
	<path id="mirror_line" class="st1" d="M159.1,71.5c0,0,6.9,8.8,20,9c0,0,16,2.3,25.1-8"/>
	<path id="bottom_mirror_1_" class="st0" d="M165.2,56h3.5c0,0-7.9,2.4-10.6,8.3c0,0-7.2,17.6,23.6,18.4s23.6-19.9,23.6-19.9
		S200,57,195.1,56h3.3c0,0,24.6,9.5,6.7,24.7c0,0-9.1,6.4-18,6.1c0,0-14,1.2-21.1-2s-10.5-4.6-12.4-8.6
		C153.7,76.1,144.4,65.6,165.2,56z"/>
	<path id="bottom_line" class="st1" d="M156.5,81.8c0,0,25.2,18.3,50.1,0C206.7,81.8,182.4,99.9,156.5,81.8z"/>
</g>
<g id="wine_1_">
	<path id="glass" class="st0" d="M298.5-10.3l36.4,36.9c0,0-19,35.6-42.8,32.3c0,0-8-0.5-14.5-6.9l-23,23.3l8.8,8.5c0,0,2.3,2,1,4.1
		c0,0-1.6,3.6-5.4,1.3c-3.8-2.3-23.4-23.8-23.4-23.8s-1.5-2.5,1-4.2c0,0,1.6-1.9,3.6-0.2l9.9,9.6L273.5,48c0,0-16.6-15.4-0.2-37.1
		C273.3,10.9,292.1-8.6,298.5-10.3z"/>
	<path id="inside_glass" class="st9" d="M298-1.3l28.8,28.8c0,0-21.5,35.2-41,22.3c-19.5-12.9-12.3-26.5-12.3-26.5
		S277.9,10.5,298-1.3z"/>
	<path id="wine" class="st0" d="M282.8,14.9c0,0,8.2,6.6,18.7,7.2s22.3,6.9,22.3,6.9s-15.1,19.3-28.8,19
		c-13.8-0.3-16.4-12.8-16.4-12.8S274.6,28.5,282.8,14.9z"/>
</g>
<g id="heart">
	<path id="left_heart" class="st0" d="M266.2,158.3c0,0,2.9-19,40.6-28.8l3.3,20l-23.9,2.9l-1,25.2l-0.3,4.9l-33.8-11.5v35.4
		l-36.7-6.9v40.3c0,0-37.6-27.2-39.3-59.3c0,0-5.9-38,33.1-48.8s51.1,15.1,51.1,15.1L266.2,158.3z"/>
	<path id="right_heart" class="st0" d="M315.3,129.1c0,0,41-1.6,42.6,49.2S268.2,272,268.2,272l-42.3-25.6v-35.7l38,1.6l-7.5-34.1
		l35.6,11.8l2.8-30.8l25.6-1L315.3,129.1z"/>
</g>
<g id="ice_cream_cone">
	<g id="cone">
		
			<rect id="cube" x="77.9" y="159.7" transform="matrix(0.9122 -0.4097 0.4097 0.9122 -59.7699 47.7751)" class="st0" width="7.4" height="7.4"/>
		
			<rect id="cube_1_" x="81.8" y="168.3" transform="matrix(0.9122 -0.4097 0.4097 0.9122 -62.9689 50.1235)" class="st0" width="7.4" height="7.4"/>
		
			<rect id="cube_2_" x="85.7" y="177" transform="matrix(0.9122 -0.4097 0.4097 0.9122 -66.1917 52.4894)" class="st0" width="7.4" height="7.4"/>
		
			<rect id="cube_3_" x="89.5" y="185.4" transform="matrix(0.9122 -0.4097 0.4097 0.9122 -69.2955 54.7679)" class="st0" width="7.4" height="7.4"/>
		
			<rect id="cube_4_" x="90.5" y="164.3" transform="matrix(0.9122 -0.4097 0.4097 0.9122 -60.5693 53.3266)" class="st0" width="7.4" height="7.4"/>
		
			<rect id="cube_5_" x="94.3" y="172.4" transform="matrix(0.9122 -0.4097 0.4097 0.9122 -63.5413 55.6259)" class="st0" width="7.4" height="7.4"/>
		
			<rect id="cube_6_" x="98.5" y="160.8" transform="matrix(0.9122 -0.4097 0.4097 0.9122 -58.4319 56.3038)" class="st0" width="7.4" height="7.4"/>
		
			<rect id="cube_7_" x="68.9" y="164.3" transform="matrix(0.9122 -0.4097 0.4097 0.9122 -62.461 44.4984)" class="st0" width="7.4" height="7.4"/>
		
			<rect id="cube_8_" x="72.7" y="172.4" transform="matrix(0.9122 -0.4097 0.4097 0.9122 -65.4423 46.7543)" class="st0" width="7.4" height="7.4"/>
		
			<rect id="cube_9_" x="76.5" y="181.1" transform="matrix(0.9122 -0.4097 0.4097 0.9122 -68.6972 49.0765)" class="st0" width="7.4" height="7.4"/>
		
			<rect id="cube_10_" x="80.8" y="189.3" transform="matrix(0.9122 -0.4097 0.4097 0.9122 -71.6453 51.567)" class="st0" width="7.4" height="7.4"/>
		
			<rect id="cube_11_" x="84.2" y="198" transform="matrix(0.9122 -0.4097 0.4097 0.9122 -74.9329 53.7215)" class="st0" width="7.4" height="7.4"/>
		
			<rect id="cube_12_" x="76.5" y="201.9" transform="matrix(0.9122 -0.4097 0.4097 0.9122 -77.2186 50.9024)" class="st0" width="7.4" height="7.4"/>
		
			<rect id="cube_13_" x="72.7" y="192.9" transform="matrix(0.9122 -0.4097 0.4097 0.9122 -73.855 48.557)" class="st0" width="7.4" height="7.4"/>
		
			<rect id="cube_14_" x="80.4" y="210.7" transform="matrix(0.9122 -0.4097 0.4097 0.9122 -80.4455 53.2579)" class="st0" width="7.4" height="7.4"/>
		<polygon id="corner" class="st0" points="59.9,159.3 62.5,158.4 65.4,164.5 62.1,166.2 		"/>
		<path id="corner_1_" class="st0" d="M64.4,156.6c0,0,3.3,3.4,8.9,2.3l-6.2,4.9L64.4,156.6z"/>
		<polygon class="st0" points="74.8,158.7 78.7,157.2 79.2,158 75.3,160.2 		"/>
		<polygon id="corner_2_" class="st0" points="85,159.2 91.4,157.2 95,161.4 87.9,164.5 		"/>
		<path id="corner_3_" class="st0" d="M95.3,159.2c0,0,5,0.2,6.9-1.5l-5,3.1L95.3,159.2z"/>
		<polyline id="corner_4_" class="st0" points="105.2,158.1 107.6,163.8 109.2,159.3 104.8,158.1 		"/>
		<polygon id="corner_5_" class="st0" points="100.7,170.5 105.9,168.4 103.8,176.9 		"/>
		<polygon id="corner_6_" class="st0" points="96.6,183.3 102.2,180.7 100,190.6 		"/>
		<polygon id="corner_7_" class="st0" points="91.9,195.8 98.7,193 95.8,201.7 		"/>
		<polygon id="corner_8_" class="st0" points="87.2,208 95,205.6 91.9,214.3 91.1,216.8 		"/>
		<polygon id="corner_9_" class="st0" points="82.7,220.8 86.1,227.4 88.7,226.4 91.1,219.4 90,217.4 		"/>
		<polygon id="corner_10_" class="st0" points="86.9,229.4 87.9,231.4 88.7,228.7 		"/>
		<path id="corner_11_" class="st0" d="M81,231.4l4.4-1.4c0,0,2.5,3.4,0.5,6.1C85.9,236.2,83.7,241.3,81,231.4z"/>
		<polygon id="corner_12_" class="st0" points="78.7,222.4 80.2,230 84.5,228.7 81.6,221.6 		"/>
		<polygon id="corner_13_" class="st0" points="75.9,212.9 78,220.7 80.2,219.7 78,212.9 		"/>
		<polygon id="corner_14_" class="st0" points="73.3,204.3 75,211.2 76.4,210.7 		"/>
		<polygon id="corner_15_" class="st0" points="67.9,186.2 70.3,193.9 77,190.6 74.2,183.8 		"/>
		<polygon id="corner_16_" class="st0" points="65.4,176.5 66.9,184.8 73.3,181.9 70.2,175.2 		"/>
		<polygon id="corner_17_" class="st0" points="62.6,168 64.4,175.2 69.4,173.5 66,166.2 		"/>
	</g>
	<g id="ice_cream_6_">
		<circle id="ice_cream" cx="57.5" cy="148.6" r="8.6"/>
		<circle id="ice_cream_1_" cx="71.8" cy="149.6" r="7.5"/>
		<circle id="ice_cream_2_" cx="84.8" cy="150.4" r="7.3"/>
		<ellipse id="ice_cream_3_" cx="97.4" cy="150.7" rx="7.4" ry="6.4"/>
		<circle id="ice_cream_4_" cx="111.7" cy="148.9" r="8.8"/>
		<path id="ice_cream_5_" d="M55,141.1c0,0,0-21.4,25.2-27.4c0,0,20.9-3.4,31.5,17.8c0,0,3.2,5.3,2.4,9.5l-18.8,8.8l-39.2-2.1
			L55,141.1z"/>
	</g>
</g>
</svg>
