<?xml version="1.0" encoding="utf-8"?>
<!-- Generator: Adobe Illustrator 23.0.1, SVG Export Plug-In . SVG Version: 6.00 Build 0)  -->
<svg version="1.1" id="background" xmlns="http://www.w3.org/2000/svg" xmlns:xlink="http://www.w3.org/1999/xlink" x="0px" y="0px"
	 viewBox="0 0 184.2 144" style="enable-background:new 0 0 184.2 144;" xml:space="preserve">
<style type="text/css">
	.st0{stroke:#000000;stroke-miterlimit:10;}
	.st1{fill:none;stroke:#000000;stroke-miterlimit:10;}
	.st2{fill:#FFFFFF;stroke:#000000;stroke-miterlimit:10;}
	.st3{fill:#F4F4C0;stroke:#000000;stroke-miterlimit:10;}
	.st4{fill:#F9F8CE;stroke:#000000;stroke-miterlimit:10;}
	.st5{stroke:#FFFFFF;stroke-miterlimit:10;}
	.st6{fill:#E8E61B;stroke:#000000;stroke-miterlimit:10;}
	.st7{fill:#F15922;stroke:#000000;stroke-miterlimit:10;}
	.st8{fill:#ED2490;stroke:#000000;stroke-miterlimit:10;}
	.st9{fill:#EE2924;stroke:#000000;stroke-miterlimit:10;}
	.st10{fill:#6BCCE4;stroke:#000000;stroke-miterlimit:10;}
	.st11{fill:#129F49;stroke:#000000;stroke-miterlimit:10;}
	.st12{fill:#EF4829;stroke:#000000;stroke-miterlimit:10;}
	.st13{fill:#F04D23;stroke:#000000;stroke-miterlimit:10;}
	.st14{fill:#EF3B24;stroke:#000000;stroke-miterlimit:10;}
	.st15{fill:#33449B;stroke:#000000;stroke-miterlimit:10;}
	.st16{fill:#6CBE45;stroke:#000000;stroke-miterlimit:10;}
	.st17{fill:#66CCE9;stroke:#000000;stroke-miterlimit:10;}
	.st18{fill:#EE3024;stroke:#000000;stroke-miterlimit:10;}
	.st19{fill:#55B948;stroke:#000000;stroke-miterlimit:10;}
	.st20{fill:#3B2F90;stroke:#000000;stroke-miterlimit:10;}
	.st21{fill:#2AB34B;stroke:#000000;stroke-miterlimit:10;}
	.st22{fill:#312D85;stroke:#000000;stroke-miterlimit:10;}
	.st23{fill:#47B649;stroke:#000000;stroke-miterlimit:10;}
</style>
<path id="middle_paw" class="st0" d="M-562.6-100.9c0,0,6.4-5.7,8.9-10.7c2.5-5,11.4-10.4,17.9,0c0,0,4.4,7,6.8,8.2
	c0,0,12.6,12.1-0.7,18.4c0,0-6.1,0.1-7.2-0.9c0,0-8.4-4-13.5-0.1c0,0-10.6,5.4-13.9-3.2C-564.3-89.2-567.4-93.5-562.6-100.9z"/>
<path id="first_dot" class="st0" d="M-574.7-117.5c0,0-0.3-8.3,8-5.5c0,0,7,2.1,6,9.8c0,0-0.8,8.1-7.7,5.3
	C-568.4-107.9-574.7-109.3-574.7-117.5z"/>
<path id="second_dot" class="st0" d="M-561.8-133.9c0,0,4-9.2,11.4-2.1c0,0,6.4,6.4,1.7,13.7c0,0-3.6,5.8-9.7,1.2
	C-558.4-121.2-563.3-126.3-561.8-133.9z"/>
<path id="third_dot" class="st0" d="M-539.4-135.9c0,0,6-7.3,10.9,2.3c0,0,2.3,6.6-1.7,10.6c0,0-2.9,4.4-6.9,3.6c0,0-5-1.3-4.8-5.8
	C-541.9-125.1-543.9-130.2-539.4-135.9z"/>
<path id="forth_dot" class="st0" d="M-523.6-123.2c0,0,6.6-3.3,8.1,5.7c0,0-0.3,7.3-4.1,8.5c0,0-2.4,2.2-5.9,1.6
	c0,0-3.8-1.1-3.4-5.2C-528.9-112.5-530.4-119.2-523.6-123.2z"/>
<ellipse id="top_cake" class="st1" cx="-450.8" cy="-110" rx="43.4" ry="12.7"/>
<path id="chocolate_cake" class="st2" d="M-494.1-110l2.5,58.1c0,0,40.9,25,79.8,0c0,0,4.5-46.4,3.9-55.9"/>
<path id="icing_side" class="st0" d="M-493.4-93c0,0,3.4,32.6,9.1,2.4c0,0,4.1-14.3,8.2,0c0,0,6.1,14.7,9.8,3.2c0,0,3.3-6.6,4.5,0
	c0,0,6.1,36.4,8.6,0c0,0,3.3-5.3,8.6-0.8c0,0,7,25.4,14.3-1.6c0,0,4.5-1.6,4.9,0.8c0,0,8.6,51.1,13.9-2.5c0,0-0.1-12.7,3.2-7
	l0.2-10.5c0,0-9.2,9.5-19.6,8.6c0,0-29,3.4-41.7,0.7c0,0-24.2-4.5-24-9.3V-93z"/>
<ellipse id="top_icing_cake" class="st0" cx="-451.1" cy="-110" rx="43.4" ry="12.7"/>
<path id="candle" class="st3" d="M-457.3-109.5v-26.3c0,0,2.9,3.1,5.5,0v27.3C-451.8-108.5-455.7-106.8-457.3-109.5z"/>
<ellipse id="candle_tip" class="st4" cx="-454.5" cy="-136.3" rx="2.7" ry="1.6"/>
<rect id="fire_string" x="-454.8" y="-137.4" class="st1" width="0.5" height="2"/>
<path id="fire" class="st0" d="M-456.4-139.6c0,0-0.2,2.4,1.3,2.2c0,0,1.8,1.4,3-2.2c0,0-1.7-2.6-2.5-5.6
	C-454.6-145.2-456.3-144-456.4-139.6z"/>
<path id="flower_patals" class="st5" d="M-310.7-64c0,0,5.5,6.1,5.9,15.4c0,0,1.6,5.2,2.5,6.2c0,0,6.2,16.2-4.2,24.8
	c0,0-10,8-18.7-1.8c0,0-7.3-3.6-5.9-25.6l0.4-4.3c0,0-4,12.2,0,24c0,0-5,2.7-10.7-0.6c0,0-3.1-9-4.4-11.6c0,0,18.7-9.8,23.9-26.5
	c0,0-10.5,23.4-28.3,27.1c0,0-4.3,1.3-9.5-3.9c0,0-1-2.1-1.8-2.1c0,0-1.6-4-0.9-8.6c0,0,1.8-0.1,0.7-4c0,0,1-3.9,5.6-6.4
	c0,0,14.2-4.3,27.9-9.5c0,0-27.4,8.6-34.4,11.4c0,0-3.8,0-5.1-2.2c0,0-3.4-0.3-4.4-5.5c0,0,0.9-2.1,0-3.3c0,0,1-4.2,0.6-5.5
	c0,0,0.1-6.5,4.6-8.3c0,0,14.3,10.1,37.9,9.3c0,0-34.8-3.2-40-11.8c0,0-0.7,0.7-1.2-4c0,0-2.7-4.3-0.1-6.4c0,0,4.9-3.9,7.4-4.4
	c0,0,2.8-2.8,9.3-2.7c0,0,2.7-3.9,10.2,0.6c0,0,13.2,2.4,18.5,17.3c0,0-5.9-18.1-28.2-20.5c0,0-4.7-14.5,4.9-20.8
	c0,0,1.8-2.1,8.2,1.2c0,0,0.3,2.5,3,8.3c0,0,19.9,21.5,18.2,28.7c0,0,0.7-5.8-9.2-19.3c0,0-7.7-6.8-8.3-11c0,0-3.8-9.8,7.2-15.1
	c0,0,3.8-2.1,5.7,0c0,0,5-3.9,14.7,2.2c0,0,7.4,4.6,7.1,10.1c0,0-16.2,17-10.8,33.1c0,0-5.1-17.4,12-33.1c0,0,9.3-7.3,18-3.7
	c8.7,3.6,8.3,15.6,8.3,15.6s-1,9.3-10.1,14.4c0,0-16.3,7.1-19.3,13.3c0,0,7.1-9,19-12.3c0,0,5.2-4.6,8-7.1c0,0,8.9-4,16.2,2.8
	c7.3,6.8,2.4,10.1,2.4,10.1s4.2,4.4-5.2,18c0,0-16.9-16.9-39.2-5.6c0,0,24.2-11.7,40.2,8.3c0,0,1.9,1.6,2.7,4.7c0,0-0.7,2.4,0.3,3.6
	c0,0,1.5,2.2-0.3,3c0,0-0.3,0.6-0.2,1.8c0,0.2,0,0.5,0.1,0.8c0.3,1.6,0.3,3-1.9,4c0,0,2.2,1.8-1.8,6.7c0,0-1.5,2.5-4,3.9
	c0,0-6.4,2.1-11.3,1.2c0,0-16.9-27-25.5-30.4c0,0,18.8,16,25.1,31.3c0,0-1,12.3-10.8,11.1c0,0-9.2-1-9.9-3.1c0,0-1.2-7.7-2.5-14.2
	l-1.8-4.3C-304-49.2-307.3-62.5-310.7-64z"/>
<circle id="flower_center" class="st2" cx="-315.7" cy="-76.3" r="13.4"/>
<ellipse id="circle_mirror" class="st1" cx="-213.4" cy="-94.1" rx="25.2" ry="28.7"/>
<path id="holding_mirror" class="st0" d="M-213.9-59.9v7.5c0,0-8.1-0.3-10.9,6.5h23.4c0,0-1.7-5.8-10-6l-1.2-0.2l0.3-7.8H-213.9z"/>
<ellipse id="big_mirror_circle" class="st2" cx="-213.4" cy="-93.7" rx="24.6" ry="28"/>
<path id="big_mirror_cut" class="st0" d="M-228.4-92.8c0,0,11.3-13.9,19.6-19.6C-208.8-112.3-220.6-97.9-228.4-92.8z"/>
<path id="mirror_cut" class="st0" d="M-230.1-101.1c0,0,8.2-10,13.2-12.9C-216.9-113.9-224.7-103.7-230.1-101.1z"/>
<path id="mirror_holder" class="st1" d="M-238.6-94.1h-4.7c0,0-3.3,32.1,30.2,33.2c0,0,27.8,1.5,29.5-33.2h-4.6"/>
<ellipse id="circle_donut" class="st2" cx="-131.4" cy="-84.3" rx="41.8" ry="43.8"/>
<path id="icing" class="st0" d="M-168.9-95.1c0,0-2.9-11.7,6.6-15.6c0,0,7.8-1.4,11-12.1c0,0,2.4-3.1,4.9-2.3c0,0,13.7,4.9,26.9,1.2
	c0,0,12.4-1.2,12.4,7.7c0,0,1.4,13.9,10.8,15.3c0,0,7.5,2.1,3.3,11.6c0,0-2.9,10.6,1.3,15.1c0,0,1.4,11.6-5.8,11.8
	c0,0-9.3,2-11.6,13.7c0,0-3.1,4.1-6.6,3.5c0,0-13.2-0.4-17.7,3.3c0,0-8,2.1-10.2-2.3c0,0-8.2-9.7-17.1-8.7c0,0-4.3-4.1-3.9-7.2
	c0,0,0-13.7-8.2-17.7c0,0-2.9-3.7,1.2-6.3C-171.6-84.3-165.6-89-168.9-95.1z"/>
<path id="inside_donut" class="st2" d="M-147.5-93.8c0,0,5.2-3.5,8.1-3.5c0,0,5.6-4.3,11-1.9l5.2,2.3c0,0,6,2.5,7.2,7.6
	c0,0,3.7,7.2,0,14.9c0,0-3.7,5.8-8.3,5.4c0,0-3.5-2.3-7.6,1.4c0,0-5.6,2.9-10.2-3.1c0,0-2.5-3.7-5.4-5.6c0,0-1.2-2.1-1.4-7.2
	C-149-83.4-151.5-88.6-147.5-93.8z"/>
<path id="smal_circle" class="st2" d="M-142.7-82.1c0,0-4.2-9.2,5.9-13c0,0,13-1.3,15,6.5c0,0,5,9-4.6,14.8
	C-126.4-73.7-136.8-66.2-142.7-82.1z"/>
<g id="sprikles_29_">
	<path id="sprikles" class="st6" d="M-145.7-111c0,0,2.4-3.1,6-1.3c0,0,0.5,0.6,0,1.1c0,0-3.6-1.3-4.9,1.1
		C-144.5-110.2-146-109.9-145.7-111z"/>
	<path id="sprikles_1_" class="st7" d="M-136.9-112.4c0,0,2.4-3.1,6-1.3c0,0,0.5,0.6,0,1.1c0,0-3.6-1.3-4.9,1.1
		C-135.8-111.6-137.2-111.2-136.9-112.4z"/>
	<path id="sprikles_2_" class="st8" d="M-137.6-108.5c0,0,3.9-0.5,5.2,3.3c0,0-0.1,0.7-0.7,0.7c0,0-1.5-3.5-4.2-2.7
		C-137.3-107.1-138.6-107.9-137.6-108.5z"/>
	<path id="sprikles_3_" class="st9" d="M-145.2-108.5c0,0,3.8,0.7,4,4.7c0,0-0.3,0.7-0.9,0.5c0,0-0.5-3.8-3.2-3.8
		C-145.3-107.1-146.3-108.2-145.2-108.5z"/>
	<path id="sprikles_4_" class="st2" d="M-146.3-100.1c0,0-3.8,1-5.6-2.6c0,0,0-0.7,0.6-0.8c0,0,2,3.2,4.5,2.2
		C-146.8-101.4-145.4-100.8-146.3-100.1z"/>
	<path id="sprikles_5_" class="st6" d="M-162.2-106.6c0,0,3.1,2.3,1.5,6c0,0-0.6,0.5-1.1,0c0,0,1.2-3.6-1.2-4.9
		C-162.9-105.4-163.3-106.9-162.2-106.6z"/>
	<path id="sprikles_6_" class="st10" d="M-161.1-95.3c0,0,2.4-3.1,6-1.3c0,0,0.5,0.6,0,1.1c0,0-3.6-1.3-4.9,1.1
		C-159.9-94.6-161.3-94.2-161.1-95.3z"/>
	<path id="sprikles_7_" class="st11" d="M-151.5-91.8c0,0-3.4,1.9-6.1-1.2c0,0-0.2-0.7,0.4-1c0,0,2.7,2.6,4.9,1
		C-152.3-92.9-150.8-92.7-151.5-91.8z"/>
	<path id="sprikles_8_" class="st6" d="M-156.9-81.9c0,0-3.5-1.6-2.7-5.6c0,0,0.4-0.6,1-0.2c0,0-0.5,3.8,2.2,4.5
		C-156.4-83.2-155.7-81.9-156.9-81.9z"/>
	<path id="sprikles_9_" class="st12" d="M-163.3-84.9c0,0,3.4,2,2.2,5.8c0,0-0.5,0.6-1,0.1c0,0,0.8-3.7-1.7-4.7
		C-163.9-83.7-164.5-85.1-163.3-84.9z"/>
	<path id="sprikles_10_" class="st2" d="M-157.5-73.2c0,0-3.3,2-6.1-0.9c0,0-0.2-0.7,0.4-1c0,0,2.8,2.5,5,0.8
		C-158.3-74.4-156.8-74.2-157.5-73.2z"/>
	<path id="sprikles_11_" class="st13" d="M-152.3-71.9c0,0,3.2-2.2,6.2,0.5c0,0,0.3,0.7-0.3,1c0,0-3-2.3-5-0.4
		C-151.5-70.9-152.9-70.9-152.3-71.9z"/>
	<path id="sprikles_12_" class="st14" d="M-159.1-62.5c0,0-2.8-2.8-0.6-6.2c0,0,0.6-0.4,1,0.1c0,0-1.8,3.4,0.4,5
		C-158.2-63.6-158-62.1-159.1-62.5z"/>
	<path id="sprikles_13_" class="st15" d="M-153.5-59.6c0,0-1.6-3.5,1.6-6c0,0,0.7-0.2,0.9,0.5c0,0-2.8,2.5-1.3,4.8
		C-152.3-60.2-152.7-58.8-153.5-59.6z"/>
	<path id="sprikles_14_" class="st2" d="M-146.9-55c0,0,0.4-3.9,4.4-4.3c0,0,0.7,0.2,0.6,0.9c0,0-3.7,0.7-3.6,3.5
		C-145.5-55-146.5-53.9-146.9-55z"/>
	<path id="sprikles_15_" class="st16" d="M-133.7-61.8c0,0,3.5,1.6,2.7,5.6c0,0-0.5,0.6-1,0.2c0,0,0.5-3.8-2.1-4.5
		C-134.2-60.5-134.9-61.8-133.7-61.8z"/>
	<path id="sprikles_16_" class="st17" d="M-135.8-51.1c0,0,2.4-3.1,6-1.3c0,0,0.5,0.6,0,1.1c0,0-3.6-1.3-4.9,1.1
		C-134.6-50.3-136.1-49.9-135.8-51.1z"/>
	<path id="sprikles_17_" class="st6" d="M-120.1-57.9c0,0-0.6-3.9,3.1-5.3c0,0,0.7,0,0.8,0.7c0,0-3.4,1.7-2.6,4.3
		C-118.8-58.2-119.5-56.9-120.1-57.9z"/>
	<path id="sprikles_18_" class="st2" d="M-107-69.1c0,0,3.2,2.2,1.7,6c0,0-0.5,0.5-1.1,0.1c0,0,1.2-3.6-1.3-4.8
		C-107.7-68-108.1-69.4-107-69.1z"/>
	<path id="sprikles_19_" class="st18" d="M-104.8-71.4c0,0,2.4-3.1,6-1.3c0,0,0.5,0.6,0,1.1c0,0-3.6-1.3-4.9,1.1
		C-103.7-70.7-105.1-70.3-104.8-71.4z"/>
	<path id="sprikles_20_" class="st19" d="M-109.9-74.7c0,0,2.4-3.1,6-1.3c0,0,0.5,0.6,0,1.1c0,0-3.6-1.3-4.9,1.1
		C-108.8-73.9-110.2-73.5-109.9-74.7z"/>
	<path id="sprikles_21_" class="st6" d="M-105.5-87.1c0,0,3.9,0.5,4.2,4.5c0,0-0.3,0.7-0.9,0.5c0,0-0.6-3.7-3.4-3.7
		C-105.6-85.7-106.6-86.7-105.5-87.1z"/>
	<path id="sprikles_22_" class="st20" d="M-111.1-88.8c0,0,3.6,1.5,2.9,5.5c0,0-0.4,0.6-1,0.3c0,0,0.3-3.8-2.4-4.4
		C-111.5-87.5-112.3-88.8-111.1-88.8z"/>
	<path id="sprikles_23_" class="st2" d="M-107.7-93c0,0,0-3.9,4-4.8c0,0,0.7,0.2,0.6,0.8c0,0-3.6,1.1-3.2,3.8
		C-106.4-93.1-107.3-91.9-107.7-93z"/>
	<path id="sprikles_24_" class="st21" d="M-111.5-106.1c0,0,3.8,0.6,4.1,4.7c0,0-0.3,0.7-0.9,0.5c0,0-0.5-3.8-3.3-3.8
		C-111.7-104.7-112.7-105.8-111.5-106.1z"/>
	<path id="sprikles_25_" class="st6" d="M-121.1-103.7c0,0,2.4-3.1,6-1.3c0,0,0.5,0.6,0,1.1c0,0-3.6-1.3-4.9,1.1
		C-119.9-102.9-121.4-102.6-121.1-103.7z"/>
	<path id="sprikles_26_" class="st22" d="M-124.2-112.4c0,0,2.4-3.1,6-1.3c0,0,0.5,0.6,0,1.1c0,0-3.6-1.3-4.9,1.1
		C-123.1-111.6-124.5-111.2-124.2-112.4z"/>
	<path id="sprikles_27_" class="st2" d="M-118.1-119.9c0,0,3.7,1.2,3.4,5.2c0,0-0.4,0.7-1,0.4c0,0,0-3.8-2.7-4.2
		C-118.5-118.5-119.3-119.7-118.1-119.9z"/>
	<path id="sprikles_28_" class="st23" d="M-128.7-110.8c0,0,3.9,0.2,4.5,4.2c0,0-0.2,0.7-0.9,0.6c0,0-0.9-3.7-3.7-3.4
		C-128.7-109.4-129.9-110.3-128.7-110.8z"/>
</g>
<polygon id="bottom_lipstick" class="st0" points="-66.1,-74.6 -66.1,-39 -46.5,-39 -46.1,-74.6 "/>
<path id="center_of_lipstick" class="st1" d="M-63.9-77v-23.6c0,0,5,6.5,16,0V-77"/>
<path id="lipstick" class="st0" d="M-61.8-114.9v14.3c0,0,4.7,1.7,10.8,0c0,0,0.6-18.8-2-21.4C-53-122-55.1-116.6-61.8-114.9z"/>
<path id="lipstick_top" class="st0" d="M-61.8-116.5c0,0,3-10.3,7.2-8.2C-54.6-124.7-52.4-121.4-61.8-116.5z"/>
<path id="outside_mirror" class="st0" d="M-1.2-77.3v3h-7c0,0-26.5-22.3,0-45.9c0,0,19.3-14,37,5.3c0,0,15.6,17-0.8,35.8l-4.6,4.9
	h-7.2L16-77c0,0,25.3-13.7,5.9-36.7c0,0-13.2-11.2-28.2-0.2s-4.8,29.4-4.8,29.4S-5.4-78-1.2-77.3z"/>
<path id="bottom_mirror" class="st0" d="M0.5-76.9v2.5h14v-2.5C14.5-76.9,7-73.1,0.5-76.9z"/>
<ellipse id="blush" class="st0" cx="7.5" cy="-61.4" rx="21.9" ry="10.9"/>
<path id="mirror_line" class="st1" d="M-15.2-57.1c0,0,6.9,8.8,20,9c0,0,16,2.3,25.1-8"/>
<path id="bottom_mirror_1_" class="st0" d="M-9.1-72.6h3.5c0,0-7.9,2.4-10.6,8.3c0,0-7.2,17.6,23.6,18.4C38.1-45,31-65.8,31-65.8
	s-5.3-5.8-10.1-6.8h3.3c0,0,24.6,9.5,6.7,24.7c0,0-9.1,6.4-18,6.1c0,0-14,1.2-21.1-2c-7-3.2-10.5-4.6-12.4-8.6
	C-20.6-52.5-29.8-63-9.1-72.6z"/>
<path id="bottom_line" class="st1" d="M-17.7-46.8c0,0,25.2,18.3,50.1,0C32.4-46.8,8.1-28.7-17.7-46.8z"/>
<path id="glass" class="st0" d="M124.3-138.9l36.4,36.9c0,0-19,35.6-42.8,32.3c0,0-8-0.5-14.5-6.9l-23,23.3l8.8,8.5c0,0,2.3,2,1,4.1
	c0,0-1.6,3.6-5.4,1.3S61.3-63.2,61.3-63.2s-1.5-2.5,1-4.2c0,0,1.6-1.9,3.6-0.2l9.9,9.6l23.4-22.7c0,0-16.6-15.4-0.2-37.1
	C99-117.7,117.8-137.3,124.3-138.9z"/>
<path id="inside_glass" class="st2" d="M123.8-129.9l28.8,28.8c0,0-21.5,35.2-41,22.3s-12.3-26.5-12.3-26.5S103.6-118.1,123.8-129.9
	z"/>
<path id="wine" class="st0" d="M108.5-113.7c0,0,8.2,6.6,18.7,7.2s22.3,6.9,22.3,6.9s-15.1,19.3-28.8,19
	c-13.8-0.3-16.4-12.8-16.4-12.8S100.3-100.1,108.5-113.7z"/>
<path id="left_heart" class="st0" d="M91.9,29.7c0,0,2.9-19,40.6-28.8l3.3,20l-23.9,2.9l-1,25.2l-0.3,4.9L76.8,42.5v35.4L40.1,71
	v40.3c0,0-37.6-27.2-39.3-59.3c0,0-5.9-38,33.1-48.8S85,18.2,85,18.2L91.9,29.7z"/>
<path id="right_heart" class="st0" d="M141.1,0.5c0,0,41-1.6,42.6,49.2c1.6,50.8-89.8,93.7-89.8,93.7l-42.3-25.6V82.1l38,1.6
	l-7.5-34.1l35.6,11.8l2.8-30.8l25.6-1L141.1,0.5z"/>
<g id="ice_cream_cone">
	<g id="cone">
		
			<rect id="cube" x="-96.4" y="31.1" transform="matrix(0.9122 -0.4097 0.4097 0.9122 -22.3717 -34.9216)" class="st0" width="7.4" height="7.4"/>
		
			<rect id="cube_1_" x="-92.5" y="39.7" transform="matrix(0.9122 -0.4097 0.4097 0.9122 -25.5707 -32.5732)" class="st0" width="7.4" height="7.4"/>
		
			<rect id="cube_2_" x="-88.6" y="48.4" transform="matrix(0.9122 -0.4097 0.4097 0.9122 -28.7934 -30.2073)" class="st0" width="7.4" height="7.4"/>
		
			<rect id="cube_3_" x="-84.8" y="56.8" transform="matrix(0.9122 -0.4097 0.4097 0.9122 -31.8972 -27.9288)" class="st0" width="7.4" height="7.4"/>
		
			<rect id="cube_4_" x="-83.8" y="35.7" transform="matrix(0.9122 -0.4097 0.4097 0.9122 -23.171 -29.3701)" class="st0" width="7.4" height="7.4"/>
		
			<rect id="cube_5_" x="-79.9" y="43.8" transform="matrix(0.9122 -0.4097 0.4097 0.9122 -26.143 -27.0708)" class="st0" width="7.4" height="7.4"/>
		
			<rect id="cube_6_" x="-75.8" y="32.2" transform="matrix(0.9122 -0.4097 0.4097 0.9122 -21.0336 -26.3928)" class="st0" width="7.4" height="7.4"/>
		
			<rect id="cube_7_" x="-105.4" y="35.7" transform="matrix(0.9122 -0.4097 0.4097 0.9122 -25.0627 -38.1982)" class="st0" width="7.4" height="7.4"/>
		
			<rect id="cube_8_" x="-101.6" y="43.8" transform="matrix(0.9122 -0.4097 0.4097 0.9122 -28.044 -35.9424)" class="st0" width="7.4" height="7.4"/>
		
			<rect id="cube_9_" x="-97.8" y="52.5" transform="matrix(0.9122 -0.4097 0.4097 0.9122 -31.2989 -33.6202)" class="st0" width="7.4" height="7.4"/>
		
			<rect id="cube_10_" x="-93.5" y="60.7" transform="matrix(0.9122 -0.4097 0.4097 0.9122 -34.247 -31.1297)" class="st0" width="7.4" height="7.4"/>
		
			<rect id="cube_11_" x="-90.1" y="69.4" transform="matrix(0.9122 -0.4097 0.4097 0.9122 -37.5346 -28.9752)" class="st0" width="7.4" height="7.4"/>
		
			<rect id="cube_12_" x="-97.8" y="73.3" transform="matrix(0.9122 -0.4097 0.4097 0.9122 -39.8203 -31.7942)" class="st0" width="7.4" height="7.4"/>
		
			<rect id="cube_13_" x="-101.6" y="64.3" transform="matrix(0.9122 -0.4097 0.4097 0.9122 -36.4567 -34.1397)" class="st0" width="7.4" height="7.4"/>
		
			<rect id="cube_14_" x="-93.9" y="82" transform="matrix(0.9122 -0.4097 0.4097 0.9122 -43.0472 -29.4388)" class="st0" width="7.4" height="7.4"/>
		<polygon id="corner" class="st0" points="-114.4,30.7 -111.8,29.8 -108.8,35.9 -112.2,37.6 		"/>
		<path id="corner_1_" class="st0" d="M-109.8,28c0,0,3.3,3.4,8.9,2.3l-6.2,4.9L-109.8,28z"/>
		<polygon class="st0" points="-99.5,30.1 -95.5,28.5 -95.1,29.3 -99,31.6 		"/>
		<polygon id="corner_2_" class="st0" points="-89.2,30.6 -82.9,28.5 -79.3,32.8 -86.4,35.9 		"/>
		<path id="corner_3_" class="st0" d="M-79,30.6c0,0,5,0.2,6.9-1.5l-5,3.1L-79,30.6z"/>
		<polyline id="corner_4_" class="st0" points="-69.1,29.5 -66.7,35.2 -65,30.6 -69.5,29.5 		"/>
		<polygon id="corner_5_" class="st0" points="-73.5,41.9 -68.4,39.7 -70.5,48.2 		"/>
		<polygon id="corner_6_" class="st0" points="-77.7,54.7 -72.1,52.1 -74.2,62 		"/>
		<polygon id="corner_7_" class="st0" points="-82.4,67.2 -75.6,64.3 -78.4,73.1 		"/>
		<polygon id="corner_8_" class="st0" points="-87.1,79.4 -79.3,77 -82.4,85.7 -83.2,88.2 		"/>
		<polygon id="corner_9_" class="st0" points="-91.6,92.2 -88.1,98.8 -85.5,97.8 -83.2,90.8 -84.3,88.8 		"/>
		<polygon id="corner_10_" class="st0" points="-87.4,100.8 -86.4,102.8 -85.5,100 		"/>
		<path id="corner_11_" class="st0" d="M-93.2,102.8l4.4-1.4c0,0,2.5,3.4,0.5,6.1C-88.3,107.5-90.5,112.7-93.2,102.8z"/>
		<polygon id="corner_12_" class="st0" points="-95.5,93.8 -94.1,101.4 -89.8,100 -92.6,93 		"/>
		<polygon id="corner_13_" class="st0" points="-98.3,84.3 -96.3,92.1 -94.1,91.1 -96.2,84.3 		"/>
		<polygon id="corner_14_" class="st0" points="-100.9,75.7 -99.3,82.6 -97.9,82.1 		"/>
		<polygon id="corner_15_" class="st0" points="-106.4,57.5 -104,65.3 -97.3,62 -100.1,55.2 		"/>
		<polygon id="corner_16_" class="st0" points="-108.8,47.9 -107.4,56.2 -100.9,53.3 -104.1,46.6 		"/>
		<polygon id="corner_17_" class="st0" points="-111.6,39.4 -109.8,46.6 -104.9,44.8 -108.3,37.6 		"/>
	</g>
	<g id="ice_cream_6_">
		<circle id="ice_cream" cx="-116.8" cy="20" r="8.6"/>
		<circle id="ice_cream_1_" cx="-102.4" cy="21" r="7.5"/>
		<circle id="ice_cream_2_" cx="-89.5" cy="21.7" r="7.3"/>
		<ellipse id="ice_cream_3_" cx="-76.9" cy="22.1" rx="7.4" ry="6.4"/>
		<circle id="ice_cream_4_" cx="-62.6" cy="20.3" r="8.8"/>
		<path id="ice_cream_5_" d="M-119.3,12.4c0,0,0-21.4,25.2-27.4c0,0,20.9-3.4,31.5,17.8c0,0,3.2,5.3,2.4,9.5L-79,21.3l-39.2-2.1
			L-119.3,12.4z"/>
	</g>
</g>
</svg>
