<?xml version="1.0" encoding="utf-8"?>
<!-- Generator: Adobe Illustrator 23.0.1, SVG Export Plug-In . SVG Version: 6.00 Build 0)  -->
<svg version="1.1" id="background" xmlns="http://www.w3.org/2000/svg" xmlns:xlink="http://www.w3.org/1999/xlink" x="0px" y="0px"
	 viewBox="0 0 60.7 77.9" style="enable-background:new 0 0 60.7 77.9;" xml:space="preserve">
<style type="text/css">
	.st0{stroke:#000000;stroke-miterlimit:10;}
	.st1{fill:none;stroke:#000000;stroke-miterlimit:10;}
	.st2{fill:#FFFFFF;stroke:#000000;stroke-miterlimit:10;}
	.st3{fill:#F4F4C0;stroke:#000000;stroke-miterlimit:10;}
	.st4{fill:#F9F8CE;stroke:#000000;stroke-miterlimit:10;}
	.st5{stroke:#FFFFFF;stroke-miterlimit:10;}
	.st6{fill:#E8E61B;stroke:#000000;stroke-miterlimit:10;}
	.st7{fill:#F15922;stroke:#000000;stroke-miterlimit:10;}
	.st8{fill:#ED2490;stroke:#000000;stroke-miterlimit:10;}
	.st9{fill:#EE2924;stroke:#000000;stroke-miterlimit:10;}
	.st10{fill:#6BCCE4;stroke:#000000;stroke-miterlimit:10;}
	.st11{fill:#129F49;stroke:#000000;stroke-miterlimit:10;}
	.st12{fill:#EF4829;stroke:#000000;stroke-miterlimit:10;}
	.st13{fill:#F04D23;stroke:#000000;stroke-miterlimit:10;}
	.st14{fill:#EF3B24;stroke:#000000;stroke-miterlimit:10;}
	.st15{fill:#33449B;stroke:#000000;stroke-miterlimit:10;}
	.st16{fill:#6CBE45;stroke:#000000;stroke-miterlimit:10;}
	.st17{fill:#66CCE9;stroke:#000000;stroke-miterlimit:10;}
	.st18{fill:#EE3024;stroke:#000000;stroke-miterlimit:10;}
	.st19{fill:#55B948;stroke:#000000;stroke-miterlimit:10;}
	.st20{fill:#3B2F90;stroke:#000000;stroke-miterlimit:10;}
	.st21{fill:#2AB34B;stroke:#000000;stroke-miterlimit:10;}
	.st22{fill:#312D85;stroke:#000000;stroke-miterlimit:10;}
	.st23{fill:#47B649;stroke:#000000;stroke-miterlimit:10;}
</style>
<path id="middle_paw" class="st0" d="M-318.7,22.4c0,0,6.4-5.7,8.9-10.7s11.4-10.4,17.9,0c0,0,4.4,7,6.8,8.2c0,0,12.6,12.1-0.7,18.4
	c0,0-6.1,0.1-7.2-0.9c0,0-8.4-4-13.5-0.1c0,0-10.6,5.4-13.9-3.2C-320.5,34.1-323.5,29.8-318.7,22.4z"/>
<path id="first_dot" class="st0" d="M-330.8,5.8c0,0-0.3-8.3,8-5.5c0,0,7,2.1,6,9.8c0,0-0.8,8.1-7.7,5.3
	C-324.6,15.4-330.8,14-330.8,5.8z"/>
<path id="second_dot" class="st0" d="M-317.9-10.6c0,0,4-9.2,11.4-2.1c0,0,6.4,6.4,1.7,13.7c0,0-3.6,5.8-9.7,1.2
	C-314.5,2.1-319.4-3-317.9-10.6z"/>
<path id="third_dot" class="st0" d="M-295.5-12.6c0,0,6-7.3,10.9,2.3c0,0,2.3,6.6-1.7,10.6c0,0-2.9,4.4-6.9,3.6c0,0-5-1.3-4.8-5.8
	C-298-1.9-300-6.9-295.5-12.6z"/>
<path id="forth_dot" class="st0" d="M-279.8,0.1c0,0,6.6-3.3,8.1,5.7c0,0-0.3,7.3-4.1,8.5c0,0-2.4,2.2-5.9,1.6c0,0-3.8-1.1-3.4-5.2
	C-285,10.7-286.6,4.1-279.8,0.1z"/>
<ellipse id="top_cake" class="st1" cx="-206.9" cy="13.3" rx="43.4" ry="12.7"/>
<path id="chocolate_cake" class="st2" d="M-250.3,13.3l2.5,58.1c0,0,40.9,25,79.8,0c0,0,4.5-46.4,3.9-55.9"/>
<path id="icing_side" class="st0" d="M-249.5,30.3c0,0,3.4,32.6,9.1,2.4c0,0,4.1-14.3,8.2,0c0,0,6.1,14.7,9.8,3.2c0,0,3.3-6.6,4.5,0
	c0,0,6.1,36.4,8.6,0c0,0,3.3-5.3,8.6-0.8c0,0,7,25.4,14.3-1.6c0,0,4.5-1.6,4.9,0.8c0,0,8.6,51.1,13.9-2.5c0,0-0.1-12.7,3.2-7
	l0.2-10.5c0,0-9.2,9.5-19.6,8.6c0,0-29,3.4-41.7,0.7c0,0-24.2-4.5-24-9.3V30.3z"/>
<ellipse id="top_icing_cake" class="st0" cx="-207.2" cy="13.3" rx="43.4" ry="12.7"/>
<path id="candle" class="st3" d="M-213.4,13.8v-26.3c0,0,2.9,3.1,5.5,0v27.3C-207.9,14.8-211.9,16.5-213.4,13.8z"/>
<ellipse id="candle_tip" class="st4" cx="-210.7" cy="-13" rx="2.7" ry="1.6"/>
<rect id="fire_string" x="-210.9" y="-14.1" class="st1" width="0.5" height="2"/>
<path id="fire" class="st0" d="M-212.5-16.3c0,0-0.2,2.4,1.3,2.2c0,0,1.8,1.4,3-2.2c0,0-1.7-2.6-2.5-5.6
	C-210.8-21.9-212.5-20.7-212.5-16.3z"/>
<path id="flower_patals" class="st5" d="M-66.8,59.3c0,0,5.5,6.1,5.9,15.4c0,0,1.6,5.2,2.5,6.2c0,0,6.2,16.2-4.2,24.8
	c0,0-10,8-18.7-1.8c0,0-7.3-3.6-5.9-25.6l0.4-4.3c0,0-4,12.2,0,24c0,0-5,2.7-10.7-0.6c0,0-3.1-9-4.4-11.6c0,0,18.7-9.8,23.9-26.5
	c0,0-10.5,23.4-28.3,27.1c0,0-4.3,1.3-9.5-3.9c0,0-1-2.1-1.8-2.1c0,0-1.6-4-0.9-8.6c0,0,1.8-0.1,0.7-4c0,0,1-3.9,5.6-6.4
	c0,0,14.2-4.3,27.9-9.5c0,0-27.4,8.6-34.4,11.4c0,0-3.8,0-5.1-2.2c0,0-3.4-0.3-4.4-5.5c0,0,0.9-2.1,0-3.3c0,0,1-4.2,0.6-5.5
	c0,0,0.1-6.5,4.6-8.3c0,0,14.3,10.1,37.9,9.3c0,0-34.8-3.2-40-11.8c0,0-0.7,0.7-1.2-4c0,0-2.7-4.3-0.1-6.4c0,0,4.9-3.9,7.4-4.4
	c0,0,2.8-2.8,9.3-2.7c0,0,2.7-3.9,10.2,0.6c0,0,13.2,2.4,18.5,17.3c0,0-5.9-18.1-28.2-20.5c0,0-4.7-14.5,4.9-20.8
	c0,0,1.8-2.1,8.2,1.2c0,0,0.3,2.5,3,8.3c0,0,19.9,21.5,18.2,28.7c0,0,0.7-5.8-9.2-19.3c0,0-7.7-6.8-8.3-11c0,0-3.8-9.8,7.2-15.1
	c0,0,3.8-2.1,5.7,0c0,0,5-3.9,14.7,2.2c0,0,7.4,4.6,7.1,10.1c0,0-16.2,17-10.8,33.1c0,0-5.1-17.4,12-33.1c0,0,9.3-7.3,18-3.7
	s8.3,15.6,8.3,15.6s-1,9.3-10.1,14.4c0,0-16.3,7.1-19.3,13.3c0,0,7.1-9,19-12.3c0,0,5.2-4.6,8-7.1c0,0,8.9-4,16.2,2.8
	s2.4,10.1,2.4,10.1s4.2,4.4-5.2,18c0,0-16.9-16.9-39.2-5.6c0,0,24.2-11.7,40.2,8.3c0,0,1.9,1.6,2.7,4.7c0,0-0.7,2.4,0.3,3.6
	c0,0,1.5,2.2-0.3,3c0,0-0.3,0.6-0.2,1.8c0,0.2,0,0.5,0.1,0.8c0.3,1.6,0.3,3-1.9,4c0,0,2.2,1.8-1.8,6.7c0,0-1.5,2.5-4,3.9
	c0,0-6.4,2.1-11.3,1.2c0,0-16.9-27-25.5-30.4c0,0,18.8,16,25.1,31.3c0,0-1,12.3-10.8,11.1c0,0-9.2-1-9.9-3.1c0,0-1.2-7.7-2.5-14.2
	l-1.8-4.3C-60.2,74.1-63.4,60.8-66.8,59.3z"/>
<circle id="flower_center" class="st2" cx="-71.8" cy="47" r="13.4"/>
<ellipse id="circle_mirror" class="st1" cx="30.4" cy="29.2" rx="25.2" ry="28.7"/>
<path id="holding_mirror" class="st0" d="M29.9,63.4v7.5c0,0-8.1-0.3-10.9,6.5h23.4c0,0-1.7-5.8-10-6l-1.2-0.2l0.3-7.8H29.9z"/>
<ellipse id="big_mirror_circle" class="st2" cx="30.4" cy="29.5" rx="24.6" ry="28"/>
<path id="big_mirror_cut" class="st0" d="M15.5,30.5c0,0,11.3-13.9,19.6-19.6C35.1,11,23.3,25.4,15.5,30.5z"/>
<path id="mirror_cut" class="st0" d="M13.8,22.2c0,0,8.2-10,13.2-12.9C27,9.4,19.2,19.6,13.8,22.2z"/>
<path id="mirror_holder" class="st1" d="M5.2,29.2H0.6c0,0-3.3,32.1,30.2,33.2c0,0,27.8,1.5,29.5-33.2h-4.6"/>
<ellipse id="circle_donut" class="st2" cx="112.5" cy="39" rx="41.8" ry="43.8"/>
<path id="icing" class="st0" d="M75,28.2c0,0-2.9-11.7,6.6-15.6c0,0,7.8-1.4,11-12.1c0,0,2.4-3.1,4.9-2.3c0,0,13.7,4.9,26.9,1.2
	c0,0,12.4-1.2,12.4,7.7c0,0,1.4,13.9,10.8,15.3c0,0,7.5,2.1,3.3,11.6c0,0-2.9,10.6,1.3,15.1c0,0,1.4,11.6-5.8,11.8
	c0,0-9.3,2-11.6,13.7c0,0-3.1,4.1-6.6,3.5c0,0-13.2-0.4-17.7,3.3c0,0-8,2.1-10.2-2.3c0,0-8.2-9.7-17.1-8.7c0,0-4.3-4.1-3.9-7.2
	c0,0,0-13.7-8.2-17.7c0,0-2.9-3.7,1.2-6.3C72.3,39,78.3,34.3,75,28.2z"/>
<path id="inside_donut" class="st2" d="M96.3,29.5c0,0,5.2-3.5,8.1-3.5c0,0,5.6-4.3,11-1.9l5.2,2.3c0,0,6,2.5,7.2,7.6
	c0,0,3.7,7.2,0,14.9c0,0-3.7,5.8-8.3,5.4c0,0-3.5-2.3-7.6,1.4c0,0-5.6,2.9-10.2-3.1c0,0-2.5-3.7-5.4-5.6c0,0-1.2-2.1-1.4-7.2
	C94.9,39.9,92.4,34.7,96.3,29.5z"/>
<path id="smal_circle" class="st2" d="M101.2,41.2c0,0-4.2-9.2,5.9-13c0,0,13-1.3,15,6.5c0,0,5,9-4.6,14.8
	C117.5,49.6,107.1,57.1,101.2,41.2z"/>
<g id="sprikles_29_">
	<path id="sprikles" class="st6" d="M98.2,12.3c0,0,2.4-3.1,6-1.3c0,0,0.5,0.6,0,1.1c0,0-3.6-1.3-4.9,1.1
		C99.3,13.1,97.9,13.4,98.2,12.3z"/>
	<path id="sprikles_1_" class="st7" d="M106.9,10.9c0,0,2.4-3.1,6-1.3c0,0,0.5,0.6,0,1.1c0,0-3.6-1.3-4.9,1.1
		C108.1,11.7,106.6,12.1,106.9,10.9z"/>
	<path id="sprikles_2_" class="st8" d="M106.3,14.8c0,0,3.9-0.5,5.2,3.3c0,0-0.1,0.7-0.7,0.7c0,0-1.5-3.5-4.2-2.7
		C106.6,16.2,105.3,15.4,106.3,14.8z"/>
	<path id="sprikles_3_" class="st9" d="M98.7,14.8c0,0,3.8,0.7,4,4.7c0,0-0.3,0.7-0.9,0.5c0,0-0.5-3.8-3.2-3.8
		C98.6,16.2,97.5,15.1,98.7,14.8z"/>
	<path id="sprikles_4_" class="st2" d="M97.6,23.2c0,0-3.8,1-5.6-2.6c0,0,0-0.7,0.6-0.8c0,0,2,3.2,4.5,2.2
		C97.1,21.9,98.5,22.5,97.6,23.2z"/>
	<path id="sprikles_5_" class="st6" d="M81.7,16.7c0,0,3.1,2.3,1.5,6c0,0-0.6,0.5-1.1,0c0,0,1.2-3.6-1.2-4.9
		C81,17.8,80.5,16.4,81.7,16.7z"/>
	<path id="sprikles_6_" class="st10" d="M82.8,28c0,0,2.4-3.1,6-1.3c0,0,0.5,0.6,0,1.1c0,0-3.6-1.3-4.9,1.1
		C84,28.7,82.5,29.1,82.8,28z"/>
	<path id="sprikles_7_" class="st11" d="M92.4,31.5c0,0-3.4,1.9-6.1-1.2c0,0-0.2-0.7,0.4-1c0,0,2.7,2.6,4.9,1
		C91.6,30.4,93.1,30.6,92.4,31.5z"/>
	<path id="sprikles_8_" class="st6" d="M87,41.4c0,0-3.5-1.6-2.7-5.6c0,0,0.4-0.6,1-0.2c0,0-0.5,3.8,2.2,4.5
		C87.5,40.1,88.2,41.4,87,41.4z"/>
	<path id="sprikles_9_" class="st12" d="M80.6,38.3c0,0,3.4,2,2.2,5.8c0,0-0.5,0.6-1,0.1c0,0,0.8-3.7-1.7-4.7
		C80,39.6,79.4,38.2,80.6,38.3z"/>
	<path id="sprikles_10_" class="st2" d="M86.4,50.1c0,0-3.3,2-6.1-0.9c0,0-0.2-0.7,0.4-1c0,0,2.8,2.5,5,0.8
		C85.6,48.9,87.1,49.1,86.4,50.1z"/>
	<path id="sprikles_11_" class="st13" d="M91.5,51.4c0,0,3.2-2.2,6.2,0.5c0,0,0.3,0.7-0.3,1c0,0-3-2.3-5-0.4
		C92.4,52.4,90.9,52.4,91.5,51.4z"/>
	<path id="sprikles_12_" class="st14" d="M84.8,60.8c0,0-2.8-2.8-0.6-6.2c0,0,0.6-0.4,1,0.1c0,0-1.8,3.4,0.4,5
		C85.7,59.7,85.9,61.2,84.8,60.8z"/>
	<path id="sprikles_13_" class="st15" d="M90.3,63.7c0,0-1.6-3.5,1.6-6c0,0,0.7-0.2,0.9,0.5c0,0-2.8,2.5-1.3,4.8
		C91.5,63.1,91.2,64.5,90.3,63.7z"/>
	<path id="sprikles_14_" class="st2" d="M97,68.3c0,0,0.4-3.9,4.4-4.3c0,0,0.7,0.2,0.6,0.9c0,0-3.7,0.7-3.6,3.5
		C98.4,68.3,97.4,69.4,97,68.3z"/>
	<path id="sprikles_15_" class="st16" d="M110.2,61.5c0,0,3.5,1.6,2.7,5.6c0,0-0.5,0.6-1,0.2c0,0,0.5-3.8-2.1-4.5
		C109.7,62.8,109,61.5,110.2,61.5z"/>
	<path id="sprikles_16_" class="st17" d="M108.1,72.2c0,0,2.4-3.1,6-1.3c0,0,0.5,0.6,0,1.1c0,0-3.6-1.3-4.9,1.1
		C109.3,73,107.8,73.3,108.1,72.2z"/>
	<path id="sprikles_17_" class="st6" d="M123.8,65.4c0,0-0.6-3.9,3.1-5.3c0,0,0.7,0,0.8,0.7c0,0-3.4,1.7-2.6,4.3
		C125.1,65.1,124.4,66.4,123.8,65.4z"/>
	<path id="sprikles_18_" class="st2" d="M136.9,54.1c0,0,3.2,2.2,1.7,6c0,0-0.5,0.5-1.1,0.1c0,0,1.2-3.6-1.3-4.8
		C136.2,55.3,135.8,53.9,136.9,54.1z"/>
	<path id="sprikles_19_" class="st18" d="M139,51.9c0,0,2.4-3.1,6-1.3c0,0,0.5,0.6,0,1.1c0,0-3.6-1.3-4.9,1.1
		C140.2,52.6,138.7,53,139,51.9z"/>
	<path id="sprikles_20_" class="st19" d="M134,48.6c0,0,2.4-3.1,6-1.3c0,0,0.5,0.6,0,1.1c0,0-3.6-1.3-4.9,1.1
		C135.1,49.4,133.7,49.8,134,48.6z"/>
	<path id="sprikles_21_" class="st6" d="M138.4,36.2c0,0,3.9,0.5,4.2,4.5c0,0-0.3,0.7-0.9,0.5c0,0-0.6-3.7-3.4-3.7
		C138.3,37.6,137.2,36.5,138.4,36.2z"/>
	<path id="sprikles_22_" class="st20" d="M132.7,34.5c0,0,3.6,1.5,2.9,5.5c0,0-0.4,0.6-1,0.3c0,0,0.3-3.8-2.4-4.4
		C132.3,35.8,131.6,34.5,132.7,34.5z"/>
	<path id="sprikles_23_" class="st2" d="M136.1,30.3c0,0,0-3.9,4-4.8c0,0,0.7,0.2,0.6,0.8c0,0-3.6,1.1-3.2,3.8
		C137.5,30.2,136.6,31.4,136.1,30.3z"/>
	<path id="sprikles_24_" class="st21" d="M132.3,17.2c0,0,3.8,0.6,4.1,4.7c0,0-0.3,0.7-0.9,0.5c0,0-0.5-3.8-3.3-3.8
		C132.2,18.6,131.2,17.5,132.3,17.2z"/>
	<path id="sprikles_25_" class="st6" d="M122.8,19.6c0,0,2.4-3.1,6-1.3c0,0,0.5,0.6,0,1.1c0,0-3.6-1.3-4.9,1.1
		C123.9,20.4,122.5,20.7,122.8,19.6z"/>
	<path id="sprikles_26_" class="st22" d="M119.6,10.9c0,0,2.4-3.1,6-1.3c0,0,0.5,0.6,0,1.1c0,0-3.6-1.3-4.9,1.1
		C120.8,11.7,119.4,12.1,119.6,10.9z"/>
	<path id="sprikles_27_" class="st2" d="M125.7,3.4c0,0,3.7,1.2,3.4,5.2c0,0-0.4,0.7-1,0.4c0,0,0-3.8-2.7-4.2
		C125.4,4.8,124.5,3.6,125.7,3.4z"/>
	<path id="sprikles_28_" class="st23" d="M115.1,12.5c0,0,3.9,0.2,4.5,4.2c0,0-0.2,0.7-0.9,0.6c0,0-0.9-3.7-3.7-3.4
		C115.1,13.9,114,13,115.1,12.5z"/>
</g>
<g id="lipstick_1_">
	<polygon id="bottom_lipstick" class="st0" points="177.8,48.7 177.8,84.3 197.4,84.3 197.8,48.7 	"/>
	<path id="center_of_lipstick" class="st1" d="M180,46.3V22.7c0,0,5,6.5,16,0v23.6"/>
	<path id="lipstick" class="st0" d="M182.1,8.4v14.3c0,0,4.7,1.7,10.8,0c0,0,0.6-18.8-2-21.4C190.9,1.3,188.8,6.7,182.1,8.4z"/>
	<path id="lipstick_top" class="st0" d="M182.1,6.8c0,0,3-10.3,7.2-8.2C189.2-1.4,191.5,1.9,182.1,6.8z"/>
</g>
<g id="makeup_mirror">
	<path id="outside_mirror" class="st0" d="M242.6,46v3h-7c0,0-26.5-22.3,0-45.9c0,0,19.3-14,37,5.3c0,0,15.6,17-0.8,35.8l-4.6,4.9
		H260l-0.1-2.7c0,0,25.3-13.7,5.9-36.7c0,0-13.2-11.2-28.2-0.2s-4.8,29.4-4.8,29.4S238.5,45.3,242.6,46z"/>
	<path id="bottom_mirror" class="st0" d="M244.4,46.4V49h14v-2.5C258.3,46.4,250.8,50.2,244.4,46.4z"/>
	<ellipse id="blush" class="st0" cx="251.4" cy="61.8" rx="21.9" ry="10.9"/>
	<path id="mirror_line" class="st1" d="M228.7,66.2c0,0,6.9,8.8,20,9c0,0,16,2.3,25.1-8"/>
	<path id="bottom_mirror_1_" class="st0" d="M234.8,50.7h3.5c0,0-7.9,2.4-10.6,8.3c0,0-7.2,17.6,23.6,18.4
		c30.7,0.9,23.6-19.9,23.6-19.9s-5.3-5.8-10.1-6.8h3.3c0,0,24.6,9.5,6.7,24.7c0,0-9.1,6.4-18,6.1c0,0-14,1.2-21.1-2
		c-7-3.2-10.5-4.6-12.4-8.6C223.3,70.8,214,60.2,234.8,50.7z"/>
	<path id="bottom_line" class="st1" d="M226.1,76.5c0,0,25.2,18.3,50.1,0C276.3,76.5,252,94.6,226.1,76.5z"/>
</g>
<g id="wine_1_">
	<path id="glass" class="st0" d="M368.1-15.6l36.4,36.9c0,0-19,35.6-42.8,32.3c0,0-8-0.5-14.5-6.9l-23,23.3l8.8,8.5c0,0,2.3,2,1,4.1
		c0,0-1.6,3.6-5.4,1.3c-3.8-2.3-23.4-23.8-23.4-23.8s-1.5-2.5,1-4.2c0,0,1.6-1.9,3.6-0.2l9.9,9.6l23.4-22.7c0,0-16.6-15.4-0.2-37.1
		C342.9,5.6,361.7-14,368.1-15.6z"/>
	<path id="inside_glass" class="st2" d="M367.6-6.6l28.8,28.8c0,0-21.5,35.2-41,22.3C336,31.6,343.2,18,343.2,18
		S347.5,5.2,367.6-6.6z"/>
	<path id="wine" class="st0" d="M352.4,9.6c0,0,8.2,6.6,18.7,7.2c10.5,0.7,22.3,6.9,22.3,6.9s-15.1,19.3-28.8,19
		c-13.8-0.3-16.4-12.8-16.4-12.8S344.2,23.2,352.4,9.6z"/>
</g>
<g id="heart">
	<path id="left_heart" class="st0" d="M335.8,153c0,0,2.9-19,40.6-28.8l3.3,20l-23.9,2.9l-1,25.2l-0.3,4.9l-33.8-11.5v35.4
		l-36.7-6.9v40.3c0,0-37.6-27.2-39.3-59.3c0,0-5.9-38,33.1-48.8s51.1,15.1,51.1,15.1L335.8,153z"/>
	<path id="right_heart" class="st0" d="M384.9,123.8c0,0,41-1.6,42.6,49.2s-89.8,93.7-89.8,93.7l-42.3-25.6v-35.7l38,1.6L326,173
		l35.6,11.8l2.8-30.8l25.6-1L384.9,123.8z"/>
</g>
<g id="ice_cream_cone">
	<g id="cone">
		
			<rect id="cube" x="147.5" y="154.3" transform="matrix(0.9122 -0.4097 0.4097 0.9122 -51.4777 75.8264)" class="st0" width="7.4" height="7.4"/>
		
			<rect id="cube_1_" x="151.4" y="163" transform="matrix(0.9122 -0.4097 0.4097 0.9122 -54.6767 78.1749)" class="st0" width="7.4" height="7.4"/>
		
			<rect id="cube_2_" x="155.3" y="171.7" transform="matrix(0.9122 -0.4097 0.4097 0.9122 -57.8995 80.5407)" class="st0" width="7.4" height="7.4"/>
		
			<rect id="cube_3_" x="159.1" y="180.1" transform="matrix(0.9122 -0.4097 0.4097 0.9122 -61.0032 82.8192)" class="st0" width="7.4" height="7.4"/>
		
			<rect id="cube_4_" x="160.1" y="159" transform="matrix(0.9122 -0.4097 0.4097 0.9122 -52.2771 81.378)" class="st0" width="7.4" height="7.4"/>
		
			<rect id="cube_5_" x="163.9" y="167.1" transform="matrix(0.9122 -0.4097 0.4097 0.9122 -55.2491 83.6772)" class="st0" width="7.4" height="7.4"/>
		
			<rect id="cube_6_" x="168.1" y="155.5" transform="matrix(0.9122 -0.4097 0.4097 0.9122 -50.1396 84.3552)" class="st0" width="7.4" height="7.4"/>
		
			<rect id="cube_7_" x="138.5" y="159" transform="matrix(0.9122 -0.4097 0.4097 0.9122 -54.1687 72.5498)" class="st0" width="7.4" height="7.4"/>
		
			<rect id="cube_8_" x="142.3" y="167.1" transform="matrix(0.9122 -0.4097 0.4097 0.9122 -57.1501 74.8057)" class="st0" width="7.4" height="7.4"/>
		
			<rect id="cube_9_" x="146.1" y="175.8" transform="matrix(0.9122 -0.4097 0.4097 0.9122 -60.4049 77.1279)" class="st0" width="7.4" height="7.4"/>
		
			<rect id="cube_10_" x="150.4" y="183.9" transform="matrix(0.9122 -0.4097 0.4097 0.9122 -63.3531 79.6183)" class="st0" width="7.4" height="7.4"/>
		
			<rect id="cube_11_" x="153.8" y="192.7" transform="matrix(0.9122 -0.4097 0.4097 0.9122 -66.6407 81.7729)" class="st0" width="7.4" height="7.4"/>
		
			<rect id="cube_12_" x="146.1" y="196.6" transform="matrix(0.9122 -0.4097 0.4097 0.9122 -68.9263 78.9538)" class="st0" width="7.4" height="7.4"/>
		
			<rect id="cube_13_" x="142.3" y="187.6" transform="matrix(0.9122 -0.4097 0.4097 0.9122 -65.5628 76.6083)" class="st0" width="7.4" height="7.4"/>
		
			<rect id="cube_14_" x="150" y="205.3" transform="matrix(0.9122 -0.4097 0.4097 0.9122 -72.1533 81.3093)" class="st0" width="7.4" height="7.4"/>
		<polygon id="corner" class="st0" points="129.5,153.9 132.1,153.1 135,159.2 131.7,160.9 		"/>
		<path id="corner_1_" class="st0" d="M134,151.3c0,0,3.3,3.4,8.9,2.3l-6.2,4.9L134,151.3z"/>
		<polygon class="st0" points="144.4,153.4 148.3,151.8 148.8,152.6 144.9,154.9 		"/>
		<polygon id="corner_2_" class="st0" points="154.6,153.9 161,151.8 164.6,156.1 157.5,159.2 		"/>
		<path id="corner_3_" class="st0" d="M164.9,153.9c0,0,5,0.2,6.9-1.5l-5,3.1L164.9,153.9z"/>
		<polyline id="corner_4_" class="st0" points="174.8,152.7 177.2,158.5 178.8,153.9 174.4,152.7 		"/>
		<polygon id="corner_5_" class="st0" points="170.3,165.1 175.5,163 173.4,171.5 		"/>
		<polygon id="corner_6_" class="st0" points="166.2,178 171.8,175.4 169.6,185.3 		"/>
		<polygon id="corner_7_" class="st0" points="161.5,190.5 168.3,187.6 165.4,196.4 		"/>
		<polygon id="corner_8_" class="st0" points="156.8,202.7 164.6,200.3 161.5,209 160.7,211.5 		"/>
		<polygon id="corner_9_" class="st0" points="152.3,215.5 155.7,222.1 158.3,221 160.7,214.1 159.6,212.1 		"/>
		<polygon id="corner_10_" class="st0" points="156.5,224.1 157.5,226 158.3,223.3 		"/>
		<path id="corner_11_" class="st0" d="M150.6,226l4.4-1.4c0,0,2.5,3.4,0.5,6.1C155.5,230.8,153.3,235.9,150.6,226z"/>
		<polygon id="corner_12_" class="st0" points="148.3,217.1 149.8,224.7 154.1,223.3 151.2,216.3 		"/>
		<polygon id="corner_13_" class="st0" points="145.5,207.6 147.6,215.4 149.8,214.4 147.7,207.6 		"/>
		<polygon id="corner_14_" class="st0" points="142.9,199 144.6,205.9 146,205.4 		"/>
		<polygon id="corner_15_" class="st0" points="137.5,180.8 139.9,188.5 146.6,185.3 143.8,178.4 		"/>
		<polygon id="corner_16_" class="st0" points="135,171.2 136.5,179.5 142.9,176.6 139.8,169.9 		"/>
		<polygon id="corner_17_" class="st0" points="132.2,162.7 134,169.9 139,168.1 135.6,160.9 		"/>
	</g>
	<g id="ice_cream_6_">
		<circle id="ice_cream" cx="127.1" cy="143.3" r="8.6"/>
		<circle id="ice_cream_1_" cx="141.4" cy="144.3" r="7.5"/>
		<circle id="ice_cream_2_" cx="154.4" cy="145" r="7.3"/>
		<ellipse id="ice_cream_3_" cx="167" cy="145.4" rx="7.4" ry="6.4"/>
		<circle id="ice_cream_4_" cx="181.3" cy="143.5" r="8.8"/>
		<path id="ice_cream_5_" d="M124.6,135.7c0,0,0-21.4,25.2-27.4c0,0,20.9-3.4,31.5,17.8c0,0,3.2,5.3,2.4,9.5l-18.8,8.8l-39.2-2.1
			L124.6,135.7z"/>
	</g>
</g>
</svg>
