<?xml version="1.0" encoding="utf-8"?>
<!-- Generator: Adobe Illustrator 23.0.1, SVG Export Plug-In . SVG Version: 6.00 Build 0)  -->
<svg version="1.1" id="background" xmlns="http://www.w3.org/2000/svg" xmlns:xlink="http://www.w3.org/1999/xlink" x="0px" y="0px"
	 viewBox="0 0 88 105.7" style="enable-background:new 0 0 88 105.7;" xml:space="preserve">
<style type="text/css">
	.st0{stroke:#000000;stroke-miterlimit:10;}
	.st1{fill:none;stroke:#000000;stroke-miterlimit:10;}
	.st2{fill:#FFFFFF;stroke:#000000;stroke-miterlimit:10;}
	.st3{fill:#F4F4C0;stroke:#000000;stroke-miterlimit:10;}
	.st4{fill:#F9F8CE;stroke:#000000;stroke-miterlimit:10;}
	.st5{stroke:#FFFFFF;stroke-miterlimit:10;}
	.st6{fill:#E8E61B;stroke:#000000;stroke-miterlimit:10;}
	.st7{fill:#F15922;stroke:#000000;stroke-miterlimit:10;}
	.st8{fill:#ED2490;stroke:#000000;stroke-miterlimit:10;}
	.st9{fill:#EE2924;stroke:#000000;stroke-miterlimit:10;}
	.st10{fill:#6BCCE4;stroke:#000000;stroke-miterlimit:10;}
	.st11{fill:#129F49;stroke:#000000;stroke-miterlimit:10;}
	.st12{fill:#EF4829;stroke:#000000;stroke-miterlimit:10;}
	.st13{fill:#F04D23;stroke:#000000;stroke-miterlimit:10;}
	.st14{fill:#EF3B24;stroke:#000000;stroke-miterlimit:10;}
	.st15{fill:#33449B;stroke:#000000;stroke-miterlimit:10;}
	.st16{fill:#6CBE45;stroke:#000000;stroke-miterlimit:10;}
	.st17{fill:#66CCE9;stroke:#000000;stroke-miterlimit:10;}
	.st18{fill:#EE3024;stroke:#000000;stroke-miterlimit:10;}
	.st19{fill:#55B948;stroke:#000000;stroke-miterlimit:10;}
	.st20{fill:#3B2F90;stroke:#000000;stroke-miterlimit:10;}
	.st21{fill:#2AB34B;stroke:#000000;stroke-miterlimit:10;}
	.st22{fill:#312D85;stroke:#000000;stroke-miterlimit:10;}
	.st23{fill:#47B649;stroke:#000000;stroke-miterlimit:10;}
</style>
<path id="middle_paw" class="st0" d="M-67.7,45.1c0,0,6.4-5.7,8.9-10.7s11.4-10.4,17.9,0c0,0,4.4,7,6.8,8.2c0,0,12.6,12.1-0.7,18.4
	c0,0-6.1,0.1-7.2-0.9c0,0-8.4-4-13.5-0.1c0,0-10.6,5.4-13.9-3.2C-69.4,56.8-72.4,52.6-67.7,45.1z"/>
<path id="first_dot" class="st0" d="M-79.7,28.5c0,0-0.3-8.3,8-5.5c0,0,7,2.1,6,9.8c0,0-0.8,8.1-7.7,5.3
	C-73.5,38.1-79.7,36.7-79.7,28.5z"/>
<path id="second_dot" class="st0" d="M-66.9,12.1c0,0,4-9.2,11.4-2.1c0,0,6.4,6.4,1.7,13.7c0,0-3.6,5.8-9.7,1.2
	C-63.4,24.8-68.3,19.8-66.9,12.1z"/>
<path id="third_dot" class="st0" d="M-44.4,10.1c0,0,6-7.3,10.9,2.3c0,0,2.3,6.6-1.7,10.6c0,0-2.9,4.4-6.9,3.6c0,0-5-1.3-4.8-5.8
	C-47,20.9-49,15.8-44.4,10.1z"/>
<path id="forth_dot" class="st0" d="M-28.7,22.9c0,0,6.6-3.3,8.1,5.7c0,0-0.3,7.3-4.1,8.5c0,0-2.4,2.2-5.9,1.6c0,0-3.8-1.1-3.4-5.2
	C-34,33.5-35.5,26.8-28.7,22.9z"/>
<ellipse id="top_cake" class="st1" cx="44.2" cy="36" rx="43.4" ry="12.7"/>
<path id="chocolate_cake" class="st2" d="M0.8,36l2.5,58.1c0,0,40.9,25,79.8,0c0,0,4.5-46.4,3.9-55.9"/>
<path id="icing_side" class="st0" d="M1.6,53c0,0,3.4,32.6,9.1,2.4c0,0,4.1-14.3,8.2,0c0,0,6.1,14.7,9.8,3.2c0,0,3.3-6.6,4.5,0
	c0,0,6.1,36.4,8.6,0c0,0,3.3-5.3,8.6-0.8c0,0,7,25.4,14.3-1.6c0,0,4.5-1.6,4.9,0.8c0,0,8.6,51.1,13.9-2.5c0,0-0.1-12.7,3.2-7
	l0.2-10.5c0,0-9.2,9.5-19.6,8.6c0,0-29,3.4-41.7,0.7c0,0-24.2-4.5-24-9.3V53z"/>
<ellipse id="top_icing_cake" class="st0" cx="43.9" cy="36" rx="43.4" ry="12.7"/>
<path id="candle" class="st3" d="M37.7,36.5V10.3c0,0,2.9,3.1,5.5,0v27.3C43.1,37.5,39.2,39.3,37.7,36.5z"/>
<ellipse id="candle_tip" class="st4" cx="40.4" cy="9.7" rx="2.7" ry="1.6"/>
<rect id="fire_string" x="40.1" y="8.6" class="st1" width="0.5" height="2"/>
<path id="fire" class="st0" d="M38.5,6.5c0,0-0.2,2.4,1.3,2.2c0,0,1.8,1.4,3-2.2c0,0-1.7-2.6-2.5-5.6C40.3,0.8,38.6,2,38.5,6.5z"/>
<g id="flower">
	<path id="flower_patals" class="st5" d="M184.2,82c0,0,5.5,6.1,5.9,15.4c0,0,1.6,5.2,2.5,6.2c0,0,6.2,16.2-4.2,24.8
		c0,0-10,8-18.7-1.8c0,0-7.3-3.6-5.9-25.6l0.4-4.3c0,0-4,12.2,0,24c0,0-5,2.7-10.7-0.6c0,0-3.1-9-4.4-11.6c0,0,18.7-9.8,23.9-26.5
		c0,0-10.5,23.4-28.3,27.1c0,0-4.3,1.3-9.5-3.9c0,0-1-2.1-1.8-2.1c0,0-1.6-4-0.9-8.6c0,0,1.8-0.1,0.7-4c0,0,1-3.9,5.6-6.4
		c0,0,14.2-4.3,27.9-9.5c0,0-27.4,8.6-34.4,11.4c0,0-3.8,0-5.1-2.2c0,0-3.4-0.3-4.4-5.5c0,0,0.9-2.1,0-3.3c0,0,1-4.2,0.6-5.5
		c0,0,0.1-6.5,4.6-8.3c0,0,14.3,10.1,37.9,9.3c0,0-34.8-3.2-40-11.8c0,0-0.7,0.7-1.2-4c0,0-2.7-4.3-0.1-6.4c0,0,4.9-3.9,7.4-4.4
		c0,0,2.8-2.8,9.3-2.7c0,0,2.7-3.9,10.2,0.6c0,0,13.2,2.4,18.5,17.3c0,0-5.9-18.1-28.2-20.5c0,0-4.7-14.5,4.9-20.8
		c0,0,1.8-2.1,8.2,1.2c0,0,0.3,2.5,3,8.3c0,0,19.9,21.5,18.2,28.7c0,0,0.7-5.8-9.2-19.3c0,0-7.7-6.8-8.3-11c0,0-3.8-9.8,7.2-15.1
		c0,0,3.8-2.1,5.7,0c0,0,5-3.9,14.7,2.2c0,0,7.4,4.6,7.1,10.1c0,0-16.2,17-10.8,33.1c0,0-5.1-17.4,12-33.1c0,0,9.3-7.3,18-3.7
		s8.3,15.6,8.3,15.6s-1,9.3-10.1,14.4c0,0-16.3,7.1-19.3,13.3c0,0,7.1-9,19-12.3c0,0,5.2-4.6,8-7.1c0,0,8.9-4,16.2,2.8
		c7.3,6.8,2.4,10.1,2.4,10.1s4.2,4.4-5.2,18c0,0-16.9-16.9-39.2-5.6c0,0,24.2-11.7,40.2,8.3c0,0,1.9,1.6,2.7,4.7
		c0,0-0.7,2.4,0.3,3.6c0,0,1.5,2.2-0.3,3c0,0-0.3,0.6-0.2,1.8c0,0.2,0,0.5,0.1,0.8c0.3,1.6,0.3,3-1.9,4c0,0,2.2,1.8-1.8,6.7
		c0,0-1.5,2.5-4,3.9c0,0-6.4,2.1-11.3,1.2c0,0-16.9-27-25.5-30.4c0,0,18.8,16,25.1,31.3c0,0-1,12.3-10.8,11.1c0,0-9.2-1-9.9-3.1
		c0,0-1.2-7.7-2.5-14.2l-1.8-4.3C190.9,96.8,187.6,83.5,184.2,82z"/>
	<circle id="flower_center" class="st2" cx="179.2" cy="69.7" r="13.4"/>
</g>
<g id="mirror">
	<ellipse id="circle_mirror" class="st1" cx="281.5" cy="51.9" rx="25.2" ry="28.7"/>
	<path id="holding_mirror" class="st0" d="M281,86.1v7.5c0,0-8.1-0.3-10.9,6.5h23.4c0,0-1.7-5.8-10-6l-1.2-0.2l0.3-7.8H281z"/>
	<path id="mirror_cut" class="st0" d="M264.9,45c0,0,8.2-10,13.2-12.9C278.1,32.1,270.2,42.4,264.9,45z"/>
	<path id="big_mirror_cut" class="st0" d="M266.6,53.3c0,0,11.3-13.9,19.6-19.6C286.1,33.7,274.3,48.1,266.6,53.3z"/>
	<ellipse id="big_mirror_circle" class="st1" cx="281.5" cy="52.3" rx="24.6" ry="28"/>
	<path id="mirror_holder" class="st1" d="M256.3,51.9h-4.7c0,0-3.3,32.1,30.2,33.2c0,0,27.8,1.5,29.5-33.2h-4.6"/>
</g>
<ellipse id="circle_donut" class="st2" cx="363.6" cy="61.7" rx="41.8" ry="43.8"/>
<path id="icing" class="st0" d="M326.1,50.9c0,0-2.9-11.7,6.6-15.6c0,0,7.8-1.4,11-12.1c0,0,2.4-3.1,4.9-2.3c0,0,13.7,4.9,26.9,1.2
	c0,0,12.4-1.2,12.4,7.7c0,0,1.4,13.9,10.8,15.3c0,0,7.5,2.1,3.3,11.6c0,0-2.9,10.6,1.3,15.1c0,0,1.4,11.6-5.8,11.8
	c0,0-9.3,2-11.6,13.7c0,0-3.1,4.1-6.6,3.5c0,0-13.2-0.4-17.7,3.3c0,0-8,2.1-10.2-2.3c0,0-8.2-9.7-17.1-8.7c0,0-4.3-4.1-3.9-7.2
	c0,0,0-13.7-8.2-17.7c0,0-2.9-3.7,1.2-6.3C323.4,61.7,329.4,57,326.1,50.9z"/>
<path id="inside_donut" class="st2" d="M347.4,52.2c0,0,5.2-3.5,8.1-3.5c0,0,5.6-4.3,11-1.9l5.2,2.3c0,0,6,2.5,7.2,7.6
	c0,0,3.7,7.2,0,14.9c0,0-3.7,5.8-8.3,5.4c0,0-3.5-2.3-7.6,1.4c0,0-5.6,2.9-10.2-3.1c0,0-2.5-3.7-5.4-5.6c0,0-1.2-2.1-1.4-7.2
	C345.9,62.6,343.5,57.4,347.4,52.2z"/>
<path id="smal_circle" class="st2" d="M352.3,63.9c0,0-4.2-9.2,5.9-13c0,0,13-1.3,15,6.5c0,0,5,9-4.6,14.8
	C368.6,72.3,358.1,79.8,352.3,63.9z"/>
<g id="sprikles_29_">
	<path id="sprikles" class="st6" d="M349.3,35c0,0,2.4-3.1,6-1.3c0,0,0.5,0.6,0,1.1c0,0-3.6-1.3-4.9,1.1
		C350.4,35.8,349,36.2,349.3,35z"/>
	<path id="sprikles_1_" class="st7" d="M358,33.7c0,0,2.4-3.1,6-1.3c0,0,0.5,0.6,0,1.1c0,0-3.6-1.3-4.9,1.1
		C359.2,34.4,357.7,34.8,358,33.7z"/>
	<path id="sprikles_2_" class="st8" d="M357.4,37.5c0,0,3.9-0.5,5.2,3.3c0,0-0.1,0.7-0.7,0.7c0,0-1.5-3.5-4.2-2.7
		C357.7,38.9,356.4,38.1,357.4,37.5z"/>
	<path id="sprikles_3_" class="st9" d="M349.8,37.5c0,0,3.8,0.7,4,4.7c0,0-0.3,0.7-0.9,0.5c0,0-0.5-3.8-3.2-3.8
		C349.6,38.9,348.6,37.8,349.8,37.5z"/>
	<path id="sprikles_4_" class="st2" d="M348.6,46c0,0-3.8,1-5.6-2.6c0,0,0-0.7,0.6-0.8c0,0,2,3.2,4.5,2.2
		C348.2,44.6,349.6,45.2,348.6,46z"/>
	<path id="sprikles_5_" class="st6" d="M332.8,39.4c0,0,3.1,2.3,1.5,6c0,0-0.6,0.5-1.1,0c0,0,1.2-3.6-1.2-4.9
		C332,40.6,331.6,39.1,332.8,39.4z"/>
	<path id="sprikles_6_" class="st10" d="M333.9,50.7c0,0,2.4-3.1,6-1.3c0,0,0.5,0.6,0,1.1c0,0-3.6-1.3-4.9,1.1
		C335,51.4,333.6,51.8,333.9,50.7z"/>
	<path id="sprikles_7_" class="st11" d="M343.4,54.2c0,0-3.4,1.9-6.1-1.2c0,0-0.2-0.7,0.4-1c0,0,2.7,2.6,4.9,1
		C342.7,53.1,344.1,53.3,343.4,54.2z"/>
	<path id="sprikles_8_" class="st6" d="M338.1,64.1c0,0-3.5-1.6-2.7-5.6c0,0,0.4-0.6,1-0.2c0,0-0.5,3.8,2.2,4.5
		C338.5,62.8,339.3,64.1,338.1,64.1z"/>
	<path id="sprikles_9_" class="st12" d="M331.7,61.1c0,0,3.4,2,2.2,5.8c0,0-0.5,0.6-1,0.1c0,0,0.8-3.7-1.7-4.7
		C331.1,62.3,330.5,60.9,331.7,61.1z"/>
	<path id="sprikles_10_" class="st2" d="M337.5,72.8c0,0-3.3,2-6.1-0.9c0,0-0.2-0.7,0.4-1c0,0,2.8,2.5,5,0.8
		C336.7,71.7,338.1,71.8,337.5,72.8z"/>
	<path id="sprikles_11_" class="st13" d="M342.6,74.1c0,0,3.2-2.2,6.2,0.5c0,0,0.3,0.7-0.3,1c0,0-3-2.3-5-0.4
		C343.5,75.1,342,75.1,342.6,74.1z"/>
	<path id="sprikles_12_" class="st14" d="M335.9,83.5c0,0-2.8-2.8-0.6-6.2c0,0,0.6-0.4,1,0.1c0,0-1.8,3.4,0.4,5
		C336.8,82.4,337,83.9,335.9,83.5z"/>
	<path id="sprikles_13_" class="st15" d="M341.4,86.4c0,0-1.6-3.5,1.6-6c0,0,0.7-0.2,0.9,0.5c0,0-2.8,2.5-1.3,4.8
		C342.6,85.8,342.3,87.2,341.4,86.4z"/>
	<path id="sprikles_14_" class="st2" d="M348.1,91c0,0,0.4-3.9,4.4-4.3c0,0,0.7,0.2,0.6,0.9c0,0-3.7,0.7-3.6,3.5
		C349.5,91.1,348.4,92.1,348.1,91z"/>
	<path id="sprikles_15_" class="st16" d="M361.2,84.3c0,0,3.5,1.6,2.7,5.6c0,0-0.5,0.6-1,0.2c0,0,0.5-3.8-2.1-4.5
		C360.7,85.5,360,84.2,361.2,84.3z"/>
	<path id="sprikles_16_" class="st17" d="M359.2,94.9c0,0,2.4-3.1,6-1.3c0,0,0.5,0.6,0,1.1c0,0-3.6-1.3-4.9,1.1
		C360.3,95.7,358.9,96.1,359.2,94.9z"/>
	<path id="sprikles_17_" class="st6" d="M374.8,88.1c0,0-0.6-3.9,3.1-5.3c0,0,0.7,0,0.8,0.7c0,0-3.4,1.7-2.6,4.3
		C376.2,87.8,375.5,89.1,374.8,88.1z"/>
	<path id="sprikles_18_" class="st2" d="M388,76.9c0,0,3.2,2.2,1.7,6c0,0-0.5,0.5-1.1,0.1c0,0,1.2-3.6-1.3-4.8
		C387.3,78.1,386.8,76.6,388,76.9z"/>
	<path id="sprikles_19_" class="st18" d="M390.1,74.6c0,0,2.4-3.1,6-1.3c0,0,0.5,0.6,0,1.1c0,0-3.6-1.3-4.9,1.1
		C391.3,75.3,389.8,75.7,390.1,74.6z"/>
	<path id="sprikles_20_" class="st19" d="M385,71.3c0,0,2.4-3.1,6-1.3c0,0,0.5,0.6,0,1.1c0,0-3.6-1.3-4.9,1.1
		C386.2,72.1,384.7,72.5,385,71.3z"/>
	<path id="sprikles_21_" class="st6" d="M389.5,58.9c0,0,3.9,0.5,4.2,4.5c0,0-0.3,0.7-0.9,0.5c0,0-0.6-3.7-3.4-3.7
		C389.4,60.3,388.3,59.3,389.5,58.9z"/>
	<path id="sprikles_22_" class="st20" d="M383.8,57.2c0,0,3.6,1.5,2.9,5.5c0,0-0.4,0.6-1,0.3c0,0,0.3-3.8-2.4-4.4
		C383.4,58.5,382.6,57.3,383.8,57.2z"/>
	<path id="sprikles_23_" class="st2" d="M387.2,53c0,0,0-3.9,4-4.8c0,0,0.7,0.2,0.6,0.8c0,0-3.6,1.1-3.2,3.8
		C388.6,52.9,387.7,54.1,387.2,53z"/>
	<path id="sprikles_24_" class="st21" d="M383.4,39.9c0,0,3.8,0.6,4.1,4.7c0,0-0.3,0.7-0.9,0.5c0,0-0.5-3.8-3.3-3.8
		C383.3,41.3,382.3,40.2,383.4,39.9z"/>
	<path id="sprikles_25_" class="st6" d="M373.9,42.3c0,0,2.4-3.1,6-1.3c0,0,0.5,0.6,0,1.1c0,0-3.6-1.3-4.9,1.1
		C375,43.1,373.6,43.5,373.9,42.3z"/>
	<path id="sprikles_26_" class="st22" d="M370.7,33.7c0,0,2.4-3.1,6-1.3c0,0,0.5,0.6,0,1.1c0,0-3.6-1.3-4.9,1.1
		C371.9,34.4,370.4,34.8,370.7,33.7z"/>
	<path id="sprikles_27_" class="st2" d="M376.8,26.2c0,0,3.7,1.2,3.4,5.2c0,0-0.4,0.7-1,0.4c0,0,0-3.8-2.7-4.2
		C376.5,27.5,375.6,26.3,376.8,26.2z"/>
	<path id="sprikles_28_" class="st23" d="M366.2,35.3c0,0,3.9,0.2,4.5,4.2c0,0-0.2,0.7-0.9,0.6c0,0-0.9-3.7-3.7-3.4
		C366.2,36.6,365.1,35.7,366.2,35.3z"/>
</g>
<g id="lipstick_1_">
	<polygon id="bottom_lipstick" class="st0" points="428.8,71.4 428.8,107 448.4,107 448.8,71.4 	"/>
	<path id="center_of_lipstick" class="st1" d="M431,69V45.4c0,0,5,6.5,16,0V69"/>
	<path id="lipstick" class="st0" d="M433.2,31.1v14.3c0,0,4.7,1.7,10.8,0c0,0,0.6-18.8-2-21.4C442,24,439.8,29.4,433.2,31.1z"/>
	<path id="lipstick_top" class="st0" d="M433.2,29.5c0,0,3-10.3,7.2-8.2C440.3,21.3,442.5,24.6,433.2,29.5z"/>
</g>
<g id="makeup_mirror">
	<path id="outside_mirror" class="st0" d="M493.7,68.7v3h-7c0,0-26.5-22.3,0-45.9c0,0,19.3-14,37,5.3c0,0,15.6,17-0.8,35.8l-4.6,4.9
		h-7.2l-0.1-2.7c0,0,25.3-13.7,5.9-36.7c0,0-13.2-11.2-28.2-0.2c-15,11-4.8,29.4-4.8,29.4S489.5,68,493.7,68.7z"/>
	<path id="bottom_mirror" class="st0" d="M495.4,69.2v2.5h14v-2.5C509.4,69.2,501.9,72.9,495.4,69.2z"/>
	<ellipse id="blush" class="st0" cx="502.5" cy="84.6" rx="21.9" ry="10.9"/>
	<path id="mirror_line" class="st1" d="M479.8,88.9c0,0,6.9,8.8,20,9c0,0,16,2.3,25.1-8"/>
	<path id="bottom_mirror_1_" class="st0" d="M485.8,73.4h3.5c0,0-7.9,2.4-10.6,8.3c0,0-7.2,17.6,23.6,18.4s23.6-19.9,23.6-19.9
		s-5.3-5.8-10.1-6.8h3.3c0,0,24.6,9.5,6.7,24.7c0,0-9.1,6.4-18,6.1c0,0-14,1.2-21.1-2c-7-3.2-10.5-4.6-12.4-8.6
		C474.4,93.5,465.1,83,485.8,73.4z"/>
	<path id="bottom_line" class="st1" d="M477.2,99.2c0,0,25.2,18.3,50.1,0C527.4,99.2,503,117.3,477.2,99.2z"/>
</g>
<g id="wine_1_">
	<path id="glass" class="st0" d="M619.2,7.1L655.6,44c0,0-19,35.6-42.8,32.3c0,0-8-0.5-14.5-6.9l-23,23.3l8.8,8.5c0,0,2.3,2,1,4.1
		c0,0-1.6,3.6-5.4,1.3c-3.8-2.3-23.4-23.8-23.4-23.8s-1.5-2.5,1-4.2c0,0,1.6-1.9,3.6-0.2l9.9,9.6l23.4-22.7c0,0-16.6-15.4-0.2-37.1
		C594,28.3,612.8,8.8,619.2,7.1z"/>
	<path id="inside_glass" class="st2" d="M618.7,16.1L647.5,45c0,0-21.5,35.2-41,22.3s-12.3-26.5-12.3-26.5S598.5,27.9,618.7,16.1z"
		/>
	<path id="wine" class="st0" d="M603.5,32.3c0,0,8.2,6.6,18.7,7.2s22.3,6.9,22.3,6.9s-15.1,19.3-28.8,19
		c-13.8-0.3-16.4-12.8-16.4-12.8S595.3,45.9,603.5,32.3z"/>
</g>
<g id="heart">
	<path id="left_heart" class="st0" d="M586.9,175.7c0,0,2.9-19,40.6-28.8l3.3,20l-23.9,2.9l-1,25.2l-0.3,4.9l-33.8-11.5v35.4
		l-36.7-6.9v40.3c0,0-37.6-27.2-39.3-59.3c0,0-5.9-38,33.1-48.8s51.1,15.1,51.1,15.1L586.9,175.7z"/>
	<path id="right_heart" class="st0" d="M636,146.5c0,0,41-1.6,42.6,49.2c1.6,50.8-89.8,93.7-89.8,93.7l-42.3-25.6v-35.7l38,1.6
		l-7.5-34.1l35.6,11.8l2.8-30.8l25.6-1L636,146.5z"/>
</g>
<g id="ice_cream_cone">
	<g id="cone">
		
			<rect id="cube" x="398.6" y="177.1" transform="matrix(0.9122 -0.4097 0.4097 0.9122 -38.7437 180.6952)" class="st0" width="7.4" height="7.4"/>
		
			<rect id="cube_1_" x="402.5" y="185.7" transform="matrix(0.9122 -0.4097 0.4097 0.9122 -41.9427 183.0436)" class="st0" width="7.4" height="7.4"/>
		
			<rect id="cube_2_" x="406.4" y="194.4" transform="matrix(0.9122 -0.4097 0.4097 0.9122 -45.1655 185.4095)" class="st0" width="7.4" height="7.4"/>
		
			<rect id="cube_3_" x="410.1" y="202.8" transform="matrix(0.9122 -0.4097 0.4097 0.9122 -48.2692 187.688)" class="st0" width="7.4" height="7.4"/>
		
			<rect id="cube_4_" x="411.1" y="181.7" transform="matrix(0.9122 -0.4097 0.4097 0.9122 -39.543 186.2467)" class="st0" width="7.4" height="7.4"/>
		
			<rect id="cube_5_" x="415" y="189.8" transform="matrix(0.9122 -0.4097 0.4097 0.9122 -42.5151 188.546)" class="st0" width="7.4" height="7.4"/>
		
			<rect id="cube_6_" x="419.1" y="178.2" transform="matrix(0.9122 -0.4097 0.4097 0.9122 -37.4056 189.224)" class="st0" width="7.4" height="7.4"/>
		
			<rect id="cube_7_" x="389.6" y="181.7" transform="matrix(0.9122 -0.4097 0.4097 0.9122 -41.4347 177.4185)" class="st0" width="7.4" height="7.4"/>
		
			<rect id="cube_8_" x="393.4" y="189.8" transform="matrix(0.9122 -0.4097 0.4097 0.9122 -44.416 179.6744)" class="st0" width="7.4" height="7.4"/>
		
			<rect id="cube_9_" x="397.1" y="198.5" transform="matrix(0.9122 -0.4097 0.4097 0.9122 -47.6709 181.9966)" class="st0" width="7.4" height="7.4"/>
		
			<rect id="cube_10_" x="401.5" y="206.7" transform="matrix(0.9122 -0.4097 0.4097 0.9122 -50.619 184.4871)" class="st0" width="7.4" height="7.4"/>
		
			<rect id="cube_11_" x="404.9" y="215.4" transform="matrix(0.9122 -0.4097 0.4097 0.9122 -53.9067 186.6416)" class="st0" width="7.4" height="7.4"/>
		
			<rect id="cube_12_" x="397.1" y="219.3" transform="matrix(0.9122 -0.4097 0.4097 0.9122 -56.1923 183.8226)" class="st0" width="7.4" height="7.4"/>
		
			<rect id="cube_13_" x="393.4" y="210.3" transform="matrix(0.9122 -0.4097 0.4097 0.9122 -52.8287 181.4771)" class="st0" width="7.4" height="7.4"/>
		
			<rect id="cube_14_" x="401" y="228" transform="matrix(0.9122 -0.4097 0.4097 0.9122 -59.4192 186.178)" class="st0" width="7.4" height="7.4"/>
		<polygon id="corner" class="st0" points="380.5,176.7 383.2,175.8 386.1,181.9 382.8,183.6 		"/>
		<path id="corner_1_" class="st0" d="M385.1,174c0,0,3.3,3.4,8.9,2.3l-6.2,4.9L385.1,174z"/>
		<polygon class="st0" points="395.5,176.1 399.4,174.6 399.8,175.4 395.9,177.6 		"/>
		<polygon id="corner_2_" class="st0" points="405.7,176.6 412,174.6 415.6,178.8 408.6,181.9 		"/>
		<path id="corner_3_" class="st0" d="M415.9,176.6c0,0,5,0.2,6.9-1.5l-5,3.1L415.9,176.6z"/>
		<polyline id="corner_4_" class="st0" points="425.9,175.5 428.3,181.2 429.9,176.7 425.5,175.5 		"/>
		<polygon id="corner_5_" class="st0" points="421.4,187.9 426.5,185.8 424.4,194.3 		"/>
		<polygon id="corner_6_" class="st0" points="417.3,200.7 422.8,198.1 420.7,208 		"/>
		<polygon id="corner_7_" class="st0" points="412.5,213.2 419.4,210.4 416.5,219.1 		"/>
		<polygon id="corner_8_" class="st0" points="407.9,225.4 415.6,223 412.5,231.7 411.7,234.2 		"/>
		<polygon id="corner_9_" class="st0" points="403.4,238.2 406.8,244.8 409.4,243.8 411.7,236.8 410.7,234.8 		"/>
		<polygon id="corner_10_" class="st0" points="407.6,246.8 408.6,248.8 409.4,246.1 		"/>
		<path id="corner_11_" class="st0" d="M401.7,248.8l4.4-1.4c0,0,2.5,3.4,0.5,6.1C406.6,253.6,404.4,258.7,401.7,248.8z"/>
		<polygon id="corner_12_" class="st0" points="399.4,239.8 400.8,247.4 405.2,246.1 402.3,239 		"/>
		<polygon id="corner_13_" class="st0" points="396.6,230.3 398.7,238.1 400.8,237.1 398.7,230.3 		"/>
		<polygon id="corner_14_" class="st0" points="394,221.7 395.7,228.6 397,228.1 		"/>
		<polygon id="corner_15_" class="st0" points="388.6,203.6 391,211.3 397.7,208 394.8,201.2 		"/>
		<polygon id="corner_16_" class="st0" points="386.1,193.9 387.5,202.2 394,199.3 390.9,192.6 		"/>
		<polygon id="corner_17_" class="st0" points="383.3,185.4 385.1,192.6 390,190.9 386.7,183.6 		"/>
	</g>
	<g id="ice_cream_6_">
		<circle id="ice_cream" cx="378.1" cy="166" r="8.6"/>
		<circle id="ice_cream_1_" cx="392.5" cy="167" r="7.5"/>
		<circle id="ice_cream_2_" cx="405.5" cy="167.8" r="7.3"/>
		<ellipse id="ice_cream_3_" cx="418.1" cy="168.1" rx="7.4" ry="6.4"/>
		<circle id="ice_cream_4_" cx="432.4" cy="166.3" r="8.8"/>
		<path id="ice_cream_5_" d="M375.7,158.5c0,0,0-21.4,25.2-27.4c0,0,20.9-3.4,31.5,17.8c0,0,3.2,5.3,2.4,9.5l-18.8,8.8l-39.2-2.1
			L375.7,158.5z"/>
	</g>
</g>
</svg>
