<?xml version="1.0" encoding="utf-8"?>
<!-- Generator: Adobe Illustrator 23.0.1, SVG Export Plug-In . SVG Version: 6.00 Build 0)  -->
<svg version="1.1" id="background" xmlns="http://www.w3.org/2000/svg" xmlns:xlink="http://www.w3.org/1999/xlink" x="0px" y="0px"
	 viewBox="0 0 60.1 55.3" style="enable-background:new 0 0 60.1 55.3;" xml:space="preserve">
<style type="text/css">
	.st0{stroke:#000000;stroke-miterlimit:10;}
	.st1{fill:none;stroke:#000000;stroke-miterlimit:10;}
	.st2{fill:#725130;stroke:#000000;stroke-miterlimit:10;}
	.st3{fill:#E179AA;stroke:#000000;stroke-miterlimit:10;}
	.st4{fill:none;stroke:#E179AA;stroke-miterlimit:10;}
	.st5{fill:#F4F4C0;stroke:#000000;stroke-miterlimit:10;}
	.st6{fill:#F9F8CE;stroke:#000000;stroke-miterlimit:10;}
	.st7{fill:#F3EB3D;stroke:#000000;stroke-miterlimit:10;}
	.st8{stroke:#FFFFFF;stroke-miterlimit:10;}
	.st9{fill:#FFFFFF;stroke:#000000;stroke-miterlimit:10;}
	.st10{fill:#E8E61B;stroke:#000000;stroke-miterlimit:10;}
	.st11{fill:#F15922;stroke:#000000;stroke-miterlimit:10;}
	.st12{fill:#ED2490;stroke:#000000;stroke-miterlimit:10;}
	.st13{fill:#EE2924;stroke:#000000;stroke-miterlimit:10;}
	.st14{fill:#6BCCE4;stroke:#000000;stroke-miterlimit:10;}
	.st15{fill:#129F49;stroke:#000000;stroke-miterlimit:10;}
	.st16{fill:#EF4829;stroke:#000000;stroke-miterlimit:10;}
	.st17{fill:#F04D23;stroke:#000000;stroke-miterlimit:10;}
	.st18{fill:#EF3B24;stroke:#000000;stroke-miterlimit:10;}
	.st19{fill:#33449B;stroke:#000000;stroke-miterlimit:10;}
	.st20{fill:#6CBE45;stroke:#000000;stroke-miterlimit:10;}
	.st21{fill:#66CCE9;stroke:#000000;stroke-miterlimit:10;}
	.st22{fill:#EE3024;stroke:#000000;stroke-miterlimit:10;}
	.st23{fill:#55B948;stroke:#000000;stroke-miterlimit:10;}
	.st24{fill:#3B2F90;stroke:#000000;stroke-miterlimit:10;}
	.st25{fill:#2AB34B;stroke:#000000;stroke-miterlimit:10;}
	.st26{fill:#312D85;stroke:#000000;stroke-miterlimit:10;}
	.st27{fill:#47B649;stroke:#000000;stroke-miterlimit:10;}
</style>
<path id="middle_paw" class="st0" d="M12.6,38.3c0,0,6.4-5.7,8.9-10.7s11.4-10.4,17.9,0c0,0,4.4,7,6.8,8.2c0,0,12.6,12.1-0.7,18.4
	c0,0-6.1,0.1-7.2-0.9c0,0-8.4-4-13.5-0.1c0,0-10.6,5.4-13.9-3.2C10.8,50,7.8,45.7,12.6,38.3z"/>
<path id="first_dot" class="st0" d="M0.5,21.7c0,0-0.3-8.3,8-5.5c0,0,7,2.1,6,9.8c0,0-0.8,8.1-7.7,5.3C6.7,31.3,0.5,29.8,0.5,21.7z"
	/>
<path id="second_dot" class="st0" d="M13.4,5.3c0,0,4-9.2,11.4-2.1c0,0,6.4,6.4,1.7,13.7c0,0-3.6,5.8-9.7,1.2
	C16.8,18,11.9,12.9,13.4,5.3z"/>
<path id="third_dot" class="st0" d="M35.8,3.3c0,0,6-7.3,10.9,2.3c0,0,2.3,6.6-1.7,10.6c0,0-2.9,4.4-6.9,3.6c0,0-5-1.3-4.8-5.8
	C33.3,14,31.3,8.9,35.8,3.3z"/>
<path id="forth_dot" class="st0" d="M51.5,16c0,0,6.6-3.3,8.1,5.7c0,0-0.3,7.3-4.1,8.5c0,0-2.4,2.2-5.9,1.6c0,0-3.8-1.1-3.4-5.2
	C46.3,26.6,44.7,20,51.5,16z"/>
<g id="cake">
	<ellipse id="top_cake" class="st1" cx="124.4" cy="29.1" rx="43.4" ry="12.7"/>
	<path id="chocolate_cake" class="st2" d="M81,29.1l2.5,58.1c0,0,40.9,25,79.8,0c0,0,4.5-46.4,3.9-55.9"/>
	<path id="icing_side" class="st3" d="M81.8,46.2c0,0,3.4,32.6,9.1,2.4c0,0,4.1-14.3,8.2,0c0,0,6.1,14.7,9.8,3.2c0,0,3.3-6.6,4.5,0
		c0,0,6.1,36.4,8.6,0c0,0,3.3-5.3,8.6-0.8c0,0,7,25.4,14.3-1.6c0,0,4.5-1.6,4.9,0.8c0,0,8.6,51.1,13.9-2.5c0,0-0.1-12.7,3.2-7
		l0.2-10.5c0,0-9.2,9.5-19.6,8.6c0,0-29,3.4-41.7,0.7c0,0-24.2-4.5-24-9.3V46.2z"/>
	<ellipse id="top_icing_cake" class="st3" cx="124.1" cy="29.1" rx="43.4" ry="12.7"/>
	<path id="icing_ring" class="st4" d="M83.8,79.3c0,0,61.2,23.7,81.1-6"/>
	<path id="candle" class="st5" d="M117.9,29.7V3.4c0,0,2.9,3.1,5.5,0v27.3C123.4,30.7,119.4,32.4,117.9,29.7z"/>
	<ellipse id="candle_tip" class="st6" cx="120.6" cy="2.9" rx="2.7" ry="1.6"/>
	<rect id="fire_string" x="120.4" y="1.7" class="st1" width="0.5" height="2"/>
	<path id="fire" class="st7" d="M118.8-0.4c0,0-0.2,2.4,1.3,2.2c0,0,1.8,1.4,3-2.2c0,0-1.7-2.6-2.5-5.6C120.5-6,118.8-4.8,118.8-0.4
		z"/>
</g>
<g id="flower">
	<path id="flower_patals" class="st8" d="M264.5,75.2c0,0,5.5,6.1,5.9,15.4c0,0,1.6,5.2,2.5,6.2c0,0,6.2,16.2-4.2,24.8
		c0,0-10,8-18.7-1.8c0,0-7.3-3.6-5.9-25.6l0.4-4.3c0,0-4,12.2,0,24c0,0-5,2.7-10.7-0.6c0,0-3.1-9-4.4-11.6c0,0,18.7-9.8,23.9-26.5
		c0,0-10.5,23.4-28.3,27.1c0,0-4.3,1.3-9.5-3.9c0,0-1-2.1-1.8-2.1c0,0-1.6-4-0.9-8.6c0,0,1.8-0.1,0.7-4c0,0,1-3.9,5.6-6.4
		c0,0,14.2-4.3,27.9-9.5c0,0-27.4,8.6-34.4,11.4c0,0-3.8,0-5.1-2.2c0,0-3.4-0.3-4.4-5.5c0,0,0.9-2.1,0-3.3c0,0,1-4.2,0.6-5.5
		c0,0,0.1-6.5,4.6-8.3c0,0,14.3,10.1,37.9,9.3c0,0-34.8-3.2-40-11.8c0,0-0.7,0.7-1.2-4c0,0-2.7-4.3-0.1-6.4c0,0,4.9-3.9,7.4-4.4
		c0,0,2.8-2.8,9.3-2.7c0,0,2.7-3.9,10.2,0.6c0,0,13.2,2.4,18.5,17.3c0,0-5.9-18.1-28.2-20.5c0,0-4.7-14.5,4.9-20.8
		c0,0,1.8-2.1,8.2,1.2c0,0,0.3,2.5,3,8.3c0,0,19.9,21.5,18.2,28.7c0,0,0.7-5.8-9.2-19.3c0,0-7.7-6.8-8.3-11c0,0-3.8-9.8,7.2-15.1
		c0,0,3.8-2.1,5.7,0c0,0,5-3.9,14.7,2.2c0,0,7.4,4.6,7.1,10.1c0,0-16.2,17-10.8,33.1c0,0-5.1-17.4,12-33.1c0,0,9.3-7.3,18-3.7
		s8.3,15.6,8.3,15.6s-1,9.3-10.1,14.4c0,0-16.3,7.1-19.3,13.3c0,0,7.1-9,19-12.3c0,0,5.2-4.6,8-7.1c0,0,8.9-4,16.2,2.8
		s2.4,10.1,2.4,10.1s4.2,4.4-5.2,18c0,0-16.9-16.9-39.2-5.6c0,0,24.2-11.7,40.2,8.3c0,0,1.9,1.6,2.7,4.7c0,0-0.7,2.4,0.3,3.6
		c0,0,1.5,2.2-0.3,3c0,0-0.3,0.6-0.2,1.8c0,0.2,0,0.5,0.1,0.8c0.3,1.6,0.3,3-1.9,4c0,0,2.2,1.8-1.8,6.7c0,0-1.5,2.5-4,3.9
		c0,0-6.4,2.1-11.3,1.2c0,0-16.9-27-25.5-30.4c0,0,18.8,16,25.1,31.3c0,0-1,12.3-10.8,11.1c0,0-9.2-1-9.9-3.1c0,0-1.2-7.7-2.5-14.2
		l-1.8-4.3C271.1,90,267.9,76.7,264.5,75.2z"/>
	<circle id="flower_center" class="st9" cx="259.4" cy="62.9" r="13.4"/>
</g>
<g id="mirror">
	<ellipse id="circle_mirror" class="st1" cx="361.7" cy="45.1" rx="25.2" ry="28.7"/>
	<path id="holding_mirror" class="st0" d="M361.2,79.3v7.5c0,0-8.1-0.3-10.9,6.5h23.4c0,0-1.7-5.8-10-6l-1.2-0.2l0.3-7.8H361.2z"/>
	<path id="mirror_cut" class="st0" d="M345.1,38.1c0,0,8.2-10,13.2-12.9C358.3,25.2,350.4,35.5,345.1,38.1z"/>
	<path id="big_mirror_cut" class="st0" d="M346.8,46.4c0,0,11.3-13.9,19.6-19.6C366.4,26.9,354.6,41.2,346.8,46.4z"/>
	<ellipse id="big_mirror_circle" class="st1" cx="361.7" cy="45.4" rx="24.6" ry="28"/>
	<path id="mirror_holder" class="st1" d="M336.5,45.1h-4.7c0,0-3.3,32.1,30.2,33.2c0,0,27.8,1.5,29.5-33.2h-4.6"/>
</g>
<ellipse id="circle_donut" class="st9" cx="443.8" cy="54.8" rx="41.8" ry="43.8"/>
<path id="icing" class="st0" d="M406.3,44c0,0-2.9-11.7,6.6-15.6c0,0,7.8-1.4,11-12.1c0,0,2.4-3.1,4.9-2.3c0,0,13.7,4.9,26.9,1.2
	c0,0,12.4-1.2,12.4,7.7c0,0,1.4,13.9,10.8,15.3c0,0,7.5,2.1,3.3,11.6c0,0-2.9,10.6,1.3,15.1c0,0,1.4,11.6-5.8,11.8
	c0,0-9.3,2-11.6,13.7c0,0-3.1,4.1-6.6,3.5c0,0-13.2-0.4-17.7,3.3c0,0-8,2.1-10.2-2.3c0,0-8.2-9.7-17.1-8.7c0,0-4.3-4.1-3.9-7.2
	c0,0,0-13.7-8.2-17.7c0,0-2.9-3.7,1.2-6.3C403.6,54.8,409.6,50.2,406.3,44z"/>
<path id="inside_donut" class="st9" d="M427.6,45.4c0,0,5.2-3.5,8.1-3.5c0,0,5.6-4.3,11-1.9l5.2,2.3c0,0,6,2.5,7.2,7.6
	c0,0,3.7,7.2,0,14.9c0,0-3.7,5.8-8.3,5.4c0,0-3.5-2.3-7.6,1.4c0,0-5.6,2.9-10.2-3.1c0,0-2.5-3.7-5.4-5.6c0,0-1.2-2.1-1.4-7.2
	C426.2,55.8,423.7,50.5,427.6,45.4z"/>
<path id="smal_circle" class="st9" d="M432.5,57.1c0,0-4.2-9.2,5.9-13c0,0,13-1.3,15,6.5c0,0,5,9-4.6,14.8
	C448.8,65.4,438.3,73,432.5,57.1z"/>
<g id="sprikles_29_">
	<path id="sprikles" class="st10" d="M429.5,28.2c0,0,2.4-3.1,6-1.3c0,0,0.5,0.6,0,1.1c0,0-3.6-1.3-4.9,1.1
		C430.6,28.9,429.2,29.3,429.5,28.2z"/>
	<path id="sprikles_1_" class="st11" d="M438.2,26.8c0,0,2.4-3.1,6-1.3c0,0,0.5,0.6,0,1.1c0,0-3.6-1.3-4.9,1.1
		C439.4,27.6,437.9,28,438.2,26.8z"/>
	<path id="sprikles_2_" class="st12" d="M437.6,30.7c0,0,3.9-0.5,5.2,3.3c0,0-0.1,0.7-0.7,0.7c0,0-1.5-3.5-4.2-2.7
		C437.9,32.1,436.6,31.3,437.6,30.7z"/>
	<path id="sprikles_3_" class="st13" d="M430,30.7c0,0,3.8,0.7,4,4.7c0,0-0.3,0.7-0.9,0.5c0,0-0.5-3.8-3.2-3.8
		C429.9,32.1,428.8,31,430,30.7z"/>
	<path id="sprikles_4_" class="st9" d="M428.8,39.1c0,0-3.8,1-5.6-2.6c0,0,0-0.7,0.6-0.8c0,0,2,3.2,4.5,2.2
		C428.4,37.8,429.8,38.4,428.8,39.1z"/>
	<path id="sprikles_5_" class="st10" d="M413,32.6c0,0,3.1,2.3,1.5,6c0,0-0.6,0.5-1.1,0c0,0,1.2-3.6-1.2-4.9
		C412.2,33.7,411.8,32.3,413,32.6z"/>
	<path id="sprikles_6_" class="st14" d="M414.1,43.8c0,0,2.4-3.1,6-1.3c0,0,0.5,0.6,0,1.1c0,0-3.6-1.3-4.9,1.1
		C415.3,44.6,413.8,45,414.1,43.8z"/>
	<path id="sprikles_7_" class="st15" d="M423.7,47.4c0,0-3.4,1.9-6.1-1.2c0,0-0.2-0.7,0.4-1c0,0,2.7,2.6,4.9,1
		C422.9,46.2,424.4,46.5,423.7,47.4z"/>
	<path id="sprikles_8_" class="st10" d="M418.3,57.3c0,0-3.5-1.6-2.7-5.6c0,0,0.4-0.6,1-0.2c0,0-0.5,3.8,2.2,4.5
		C418.8,56,419.5,57.3,418.3,57.3z"/>
	<path id="sprikles_9_" class="st16" d="M411.9,54.2c0,0,3.4,2,2.2,5.8c0,0-0.5,0.6-1,0.1c0,0,0.8-3.7-1.7-4.7
		C411.3,55.5,410.7,54.1,411.9,54.2z"/>
	<path id="sprikles_10_" class="st9" d="M417.7,65.9c0,0-3.3,2-6.1-0.9c0,0-0.2-0.7,0.4-1c0,0,2.8,2.5,5,0.8
		C416.9,64.8,418.4,65,417.7,65.9z"/>
	<path id="sprikles_11_" class="st17" d="M422.8,67.2c0,0,3.2-2.2,6.2,0.5c0,0,0.3,0.7-0.3,1c0,0-3-2.3-5-0.4
		C423.7,68.3,422.2,68.3,422.8,67.2z"/>
	<path id="sprikles_12_" class="st18" d="M416.1,76.6c0,0-2.8-2.8-0.6-6.2c0,0,0.6-0.4,1,0.1c0,0-1.8,3.4,0.4,5
		C417,75.6,417.2,77.1,416.1,76.6z"/>
	<path id="sprikles_13_" class="st19" d="M421.6,79.6c0,0-1.6-3.5,1.6-6c0,0,0.7-0.2,0.9,0.5c0,0-2.8,2.5-1.3,4.8
		C422.8,78.9,422.5,80.4,421.6,79.6z"/>
	<path id="sprikles_14_" class="st9" d="M428.3,84.2c0,0,0.4-3.9,4.4-4.3c0,0,0.7,0.2,0.6,0.9c0,0-3.7,0.7-3.6,3.5
		C429.7,84.2,428.7,85.3,428.3,84.2z"/>
	<path id="sprikles_15_" class="st20" d="M441.5,77.4c0,0,3.5,1.6,2.7,5.6c0,0-0.5,0.6-1,0.2c0,0,0.5-3.8-2.1-4.5
		C441,78.7,440.3,77.4,441.5,77.4z"/>
	<path id="sprikles_16_" class="st21" d="M439.4,88.1c0,0,2.4-3.1,6-1.3c0,0,0.5,0.6,0,1.1c0,0-3.6-1.3-4.9,1.1
		C440.6,88.8,439.1,89.2,439.4,88.1z"/>
	<path id="sprikles_17_" class="st10" d="M455,81.3c0,0-0.6-3.9,3.1-5.3c0,0,0.7,0,0.8,0.7c0,0-3.4,1.7-2.6,4.3
		C456.4,81,455.7,82.3,455,81.3z"/>
	<path id="sprikles_18_" class="st9" d="M468.2,70c0,0,3.2,2.2,1.7,6c0,0-0.5,0.5-1.1,0.1c0,0,1.2-3.6-1.3-4.8
		C467.5,71.2,467,69.8,468.2,70z"/>
	<path id="sprikles_19_" class="st22" d="M470.3,67.7c0,0,2.4-3.1,6-1.3c0,0,0.5,0.6,0,1.1c0,0-3.6-1.3-4.9,1.1
		C471.5,68.5,470,68.9,470.3,67.7z"/>
	<path id="sprikles_20_" class="st23" d="M465.3,64.5c0,0,2.4-3.1,6-1.3c0,0,0.5,0.6,0,1.1c0,0-3.6-1.3-4.9,1.1
		C466.4,65.3,465,65.7,465.3,64.5z"/>
	<path id="sprikles_21_" class="st10" d="M469.7,52.1c0,0,3.9,0.5,4.2,4.5c0,0-0.3,0.7-0.9,0.5c0,0-0.6-3.7-3.4-3.7
		C469.6,53.5,468.5,52.4,469.7,52.1z"/>
	<path id="sprikles_22_" class="st24" d="M464,50.4c0,0,3.6,1.5,2.9,5.5c0,0-0.4,0.6-1,0.3c0,0,0.3-3.8-2.4-4.4
		C463.6,51.7,462.9,50.4,464,50.4z"/>
	<path id="sprikles_23_" class="st9" d="M467.4,46.2c0,0,0-3.9,4-4.8c0,0,0.7,0.2,0.6,0.8c0,0-3.6,1.1-3.2,3.8
		C468.8,46.1,467.9,47.3,467.4,46.2z"/>
	<path id="sprikles_24_" class="st25" d="M463.6,33.1c0,0,3.8,0.6,4.1,4.7c0,0-0.3,0.7-0.9,0.5c0,0-0.5-3.8-3.3-3.8
		C463.5,34.4,462.5,33.4,463.6,33.1z"/>
	<path id="sprikles_25_" class="st10" d="M454.1,35.5c0,0,2.4-3.1,6-1.3c0,0,0.5,0.6,0,1.1c0,0-3.6-1.3-4.9,1.1
		C455.2,36.2,453.8,36.6,454.1,35.5z"/>
	<path id="sprikles_26_" class="st26" d="M450.9,26.8c0,0,2.4-3.1,6-1.3c0,0,0.5,0.6,0,1.1c0,0-3.6-1.3-4.9,1.1
		C452.1,27.6,450.7,28,450.9,26.8z"/>
	<path id="sprikles_27_" class="st9" d="M457,19.3c0,0,3.7,1.2,3.4,5.2c0,0-0.4,0.7-1,0.4c0,0,0-3.8-2.7-4.2
		C456.7,20.7,455.8,19.4,457,19.3z"/>
	<path id="sprikles_28_" class="st27" d="M446.4,28.4c0,0,3.9,0.2,4.5,4.2c0,0-0.2,0.7-0.9,0.6c0,0-0.9-3.7-3.7-3.4
		C446.4,29.8,445.3,28.8,446.4,28.4z"/>
</g>
<g id="lipstick_1_">
	<polygon id="bottom_lipstick" class="st0" points="509.1,64.6 509.1,100.2 528.7,100.2 529.1,64.6 	"/>
	<path id="center_of_lipstick" class="st1" d="M511.3,62.2V38.6c0,0,5,6.5,16,0v23.6"/>
	<path id="lipstick" class="st0" d="M513.4,24.2v14.3c0,0,4.7,1.7,10.8,0c0,0,0.6-18.8-2-21.4C522.2,17.2,520.1,22.6,513.4,24.2z"/>
	<path id="lipstick_top" class="st0" d="M513.4,22.7c0,0,3-10.3,7.2-8.2C520.5,14.5,522.7,17.8,513.4,22.7z"/>
</g>
<g id="makeup_mirror">
	<path id="outside_mirror" class="st0" d="M573.9,61.9v3h-7c0,0-26.5-22.3,0-45.9c0,0,19.3-14,37,5.3c0,0,15.6,17-0.8,35.8l-4.6,4.9
		h-7.2l-0.1-2.7c0,0,25.3-13.7,5.9-36.7c0,0-13.2-11.2-28.2-0.2c-15,11-4.8,29.4-4.8,29.4S569.8,61.2,573.9,61.9z"/>
	<path id="bottom_mirror" class="st0" d="M575.7,62.3v2.5h14v-2.5C589.6,62.3,582.1,66.1,575.7,62.3z"/>
	<ellipse id="blush" class="st0" cx="582.7" cy="77.7" rx="21.9" ry="10.9"/>
	<path id="mirror_line" class="st1" d="M560,82.1c0,0,6.9,8.8,20,9c0,0,16,2.3,25.1-8"/>
	<path id="bottom_mirror_1_" class="st0" d="M566.1,66.6h3.5c0,0-7.9,2.4-10.6,8.3c0,0-7.2,17.6,23.6,18.4
		c30.7,0.9,23.6-19.9,23.6-19.9s-5.3-5.8-10.1-6.8h3.3c0,0,24.6,9.5,6.7,24.7c0,0-9.1,6.4-18,6.1c0,0-14,1.2-21.1-2
		c-7-3.2-10.5-4.6-12.4-8.6C554.6,86.7,545.3,76.1,566.1,66.6z"/>
	<path id="bottom_line" class="st1" d="M557.4,92.4c0,0,25.2,18.3,50.1,0C607.6,92.4,583.3,110.5,557.4,92.4z"/>
</g>
<g id="wine_1_">
	<path id="glass" class="st0" d="M699.4,0.3l36.4,36.9c0,0-19,35.6-42.8,32.3c0,0-8-0.5-14.5-6.9l-23,23.3l8.8,8.5c0,0,2.3,2,1,4.1
		c0,0-1.6,3.6-5.4,1.3c-3.8-2.3-23.4-23.8-23.4-23.8s-1.5-2.5,1-4.2c0,0,1.6-1.9,3.6-0.2l9.9,9.6l23.4-22.7c0,0-16.6-15.4-0.2-37.1
		C674.2,21.5,693,1.9,699.4,0.3z"/>
	<path id="inside_glass" class="st9" d="M698.9,9.3l28.8,28.8c0,0-21.5,35.2-41,22.3c-19.5-12.9-12.3-26.5-12.3-26.5
		S678.8,21.1,698.9,9.3z"/>
	<path id="wine" class="st0" d="M683.7,25.5c0,0,8.2,6.6,18.7,7.2s22.3,6.9,22.3,6.9s-15.1,19.3-28.8,19s-16.4-12.8-16.4-12.8
		S675.5,39.1,683.7,25.5z"/>
</g>
<g id="heart">
	<path id="left_heart" class="st0" d="M667.1,168.9c0,0,2.9-19,40.6-28.8l3.3,20l-23.9,2.9l-1,25.2l-0.3,4.9L652,181.6V217
		l-36.7-6.9v40.3c0,0-37.6-27.2-39.3-59.3c0,0-5.9-38,33.1-48.8c39-10.8,51.1,15.1,51.1,15.1L667.1,168.9z"/>
	<path id="right_heart" class="st0" d="M716.2,139.7c0,0,41-1.6,42.6,49.2c1.6,50.8-89.8,93.7-89.8,93.7L626.8,257v-35.7l38,1.6
		l-7.5-34.1l35.6,11.8l2.8-30.8l25.6-1L716.2,139.7z"/>
</g>
<g id="ice_cream_cone">
	<g id="cone">
		
			<rect id="cube" x="478.8" y="170.2" transform="matrix(0.9122 -0.4097 0.4097 0.9122 -28.8984 212.9664)" class="st0" width="7.4" height="7.4"/>
		
			<rect id="cube_1_" x="482.7" y="178.9" transform="matrix(0.9122 -0.4097 0.4097 0.9122 -32.0974 215.3148)" class="st0" width="7.4" height="7.4"/>
		
			<rect id="cube_2_" x="486.6" y="187.6" transform="matrix(0.9122 -0.4097 0.4097 0.9122 -35.3202 217.6807)" class="st0" width="7.4" height="7.4"/>
		
			<rect id="cube_3_" x="490.4" y="195.9" transform="matrix(0.9122 -0.4097 0.4097 0.9122 -38.424 219.9592)" class="st0" width="7.4" height="7.4"/>
		
			<rect id="cube_4_" x="491.4" y="174.9" transform="matrix(0.9122 -0.4097 0.4097 0.9122 -29.6978 218.5179)" class="st0" width="7.4" height="7.4"/>
		
			<rect id="cube_5_" x="495.2" y="183" transform="matrix(0.9122 -0.4097 0.4097 0.9122 -32.6698 220.8172)" class="st0" width="7.4" height="7.4"/>
		
			<rect id="cube_6_" x="499.4" y="171.4" transform="matrix(0.9122 -0.4097 0.4097 0.9122 -27.5604 221.4952)" class="st0" width="7.4" height="7.4"/>
		
			<rect id="cube_7_" x="469.8" y="174.9" transform="matrix(0.9122 -0.4097 0.4097 0.9122 -31.5895 209.6898)" class="st0" width="7.4" height="7.4"/>
		
			<rect id="cube_8_" x="473.6" y="183" transform="matrix(0.9122 -0.4097 0.4097 0.9122 -34.5708 211.9456)" class="st0" width="7.4" height="7.4"/>
		
			<rect id="cube_9_" x="477.4" y="191.7" transform="matrix(0.9122 -0.4097 0.4097 0.9122 -37.8257 214.2678)" class="st0" width="7.4" height="7.4"/>
		
			<rect id="cube_10_" x="481.7" y="199.8" transform="matrix(0.9122 -0.4097 0.4097 0.9122 -40.7738 216.7583)" class="st0" width="7.4" height="7.4"/>
		
			<rect id="cube_11_" x="485.1" y="208.6" transform="matrix(0.9122 -0.4097 0.4097 0.9122 -44.0614 218.9128)" class="st0" width="7.4" height="7.4"/>
		
			<rect id="cube_12_" x="477.4" y="212.5" transform="matrix(0.9122 -0.4097 0.4097 0.9122 -46.3471 216.0938)" class="st0" width="7.4" height="7.4"/>
		
			<rect id="cube_13_" x="473.6" y="203.5" transform="matrix(0.9122 -0.4097 0.4097 0.9122 -42.9835 213.7483)" class="st0" width="7.4" height="7.4"/>
		
			<rect id="cube_14_" x="481.3" y="221.2" transform="matrix(0.9122 -0.4097 0.4097 0.9122 -49.574 218.4492)" class="st0" width="7.4" height="7.4"/>
		<polygon id="corner" class="st0" points="460.8,169.8 463.4,169 466.3,175.1 463,176.7 		"/>
		<path id="corner_1_" class="st0" d="M465.3,167.2c0,0,3.3,3.4,8.9,2.3l-6.2,4.9L465.3,167.2z"/>
		<polygon class="st0" points="475.7,169.3 479.6,167.7 480.1,168.5 476.2,170.8 		"/>
		<polygon id="corner_2_" class="st0" points="485.9,169.8 492.2,167.7 495.9,172 488.8,175.1 		"/>
		<path id="corner_3_" class="st0" d="M496.2,169.8c0,0,5,0.2,6.9-1.5l-5,3.1L496.2,169.8z"/>
		<polyline id="corner_4_" class="st0" points="506.1,168.6 508.5,174.3 510.1,169.8 505.7,168.6 		"/>
		<polygon id="corner_5_" class="st0" points="501.6,181 506.8,178.9 504.7,187.4 		"/>
		<polygon id="corner_6_" class="st0" points="497.5,193.9 503.1,191.3 500.9,201.1 		"/>
		<polygon id="corner_7_" class="st0" points="492.8,206.4 499.6,203.5 496.7,212.3 		"/>
		<polygon id="corner_8_" class="st0" points="488.1,218.6 495.9,216.2 492.8,224.9 492,227.3 		"/>
		<polygon id="corner_9_" class="st0" points="483.6,231.4 487,238 489.6,236.9 492,230 490.9,228 		"/>
		<polygon id="corner_10_" class="st0" points="487.8,239.9 488.8,241.9 489.6,239.2 		"/>
		<path id="corner_11_" class="st0" d="M481.9,241.9l4.4-1.4c0,0,2.5,3.4,0.5,6.1C486.8,246.7,484.6,251.8,481.9,241.9z"/>
		<polygon id="corner_12_" class="st0" points="479.6,233 481.1,240.6 485.4,239.2 482.5,232.1 		"/>
		<polygon id="corner_13_" class="st0" points="476.8,223.5 478.9,231.3 481.1,230.3 478.9,223.5 		"/>
		<polygon id="corner_14_" class="st0" points="474.2,214.8 475.9,221.8 477.3,221.3 		"/>
		<polygon id="corner_15_" class="st0" points="468.8,196.7 471.2,204.4 477.9,201.1 475.1,194.3 		"/>
		<polygon id="corner_16_" class="st0" points="466.3,187 467.8,195.4 474.2,192.5 471.1,185.8 		"/>
		<polygon id="corner_17_" class="st0" points="463.5,178.6 465.3,185.8 470.3,184 466.9,176.7 		"/>
	</g>
	<g id="ice_cream_6_">
		<circle id="ice_cream" cx="458.4" cy="159.2" r="8.6"/>
		<circle id="ice_cream_1_" cx="472.7" cy="160.2" r="7.5"/>
		<circle id="ice_cream_2_" cx="485.7" cy="160.9" r="7.3"/>
		<ellipse id="ice_cream_3_" cx="498.3" cy="161.3" rx="7.4" ry="6.4"/>
		<circle id="ice_cream_4_" cx="512.6" cy="159.4" r="8.8"/>
		<path id="ice_cream_5_" d="M455.9,151.6c0,0,0-21.4,25.2-27.4c0,0,20.9-3.4,31.5,17.8c0,0,3.2,5.3,2.4,9.5l-18.8,8.8l-39.2-2.1
			L455.9,151.6z"/>
	</g>
</g>
</svg>
