<?xml version="1.0" encoding="utf-8"?>
<!-- Generator: Adobe Illustrator 23.0.1, SVG Export Plug-In . SVG Version: 6.00 Build 0)  -->
<svg version="1.1" id="background" xmlns="http://www.w3.org/2000/svg" xmlns:xlink="http://www.w3.org/1999/xlink" x="0px" y="0px"
	 viewBox="0 0 117 122.9" style="enable-background:new 0 0 117 122.9;" xml:space="preserve">
<style type="text/css">
	.st0{stroke:#000000;stroke-miterlimit:10;}
	.st1{fill:none;stroke:#000000;stroke-miterlimit:10;}
	.st2{fill:#FFFFFF;stroke:#000000;stroke-miterlimit:10;}
	.st3{fill:#F4F4C0;stroke:#000000;stroke-miterlimit:10;}
	.st4{fill:#F9F8CE;stroke:#000000;stroke-miterlimit:10;}
	.st5{stroke:#FFFFFF;stroke-miterlimit:10;}
	.st6{fill:#E8E61B;stroke:#000000;stroke-miterlimit:10;}
	.st7{fill:#F15922;stroke:#000000;stroke-miterlimit:10;}
	.st8{fill:#ED2490;stroke:#000000;stroke-miterlimit:10;}
	.st9{fill:#EE2924;stroke:#000000;stroke-miterlimit:10;}
	.st10{fill:#6BCCE4;stroke:#000000;stroke-miterlimit:10;}
	.st11{fill:#129F49;stroke:#000000;stroke-miterlimit:10;}
	.st12{fill:#EF4829;stroke:#000000;stroke-miterlimit:10;}
	.st13{fill:#F04D23;stroke:#000000;stroke-miterlimit:10;}
	.st14{fill:#EF3B24;stroke:#000000;stroke-miterlimit:10;}
	.st15{fill:#33449B;stroke:#000000;stroke-miterlimit:10;}
	.st16{fill:#6CBE45;stroke:#000000;stroke-miterlimit:10;}
	.st17{fill:#66CCE9;stroke:#000000;stroke-miterlimit:10;}
	.st18{fill:#EE3024;stroke:#000000;stroke-miterlimit:10;}
	.st19{fill:#55B948;stroke:#000000;stroke-miterlimit:10;}
	.st20{fill:#3B2F90;stroke:#000000;stroke-miterlimit:10;}
	.st21{fill:#2AB34B;stroke:#000000;stroke-miterlimit:10;}
	.st22{fill:#312D85;stroke:#000000;stroke-miterlimit:10;}
	.st23{fill:#47B649;stroke:#000000;stroke-miterlimit:10;}
</style>
<path id="middle_paw" class="st0" d="M-189.8,36c0,0,6.4-5.7,8.9-10.7c2.5-5,11.4-10.4,17.9,0c0,0,4.4,7,6.8,8.2
	c0,0,12.6,12.1-0.7,18.4c0,0-6.1,0.1-7.2-0.9c0,0-8.4-4-13.5-0.1c0,0-10.6,5.4-13.9-3.2C-191.5,47.7-194.6,43.4-189.8,36z"/>
<path id="first_dot" class="st0" d="M-201.9,19.4c0,0-0.3-8.3,8-5.5c0,0,7,2.1,6,9.8c0,0-0.8,8.1-7.7,5.3
	C-195.7,29-201.9,27.5-201.9,19.4z"/>
<path id="second_dot" class="st0" d="M-189,3c0,0,4-9.2,11.4-2.1c0,0,6.4,6.4,1.7,13.7c0,0-3.6,5.8-9.7,1.2
	C-185.6,15.7-190.5,10.6-189,3z"/>
<path id="third_dot" class="st0" d="M-166.6,1c0,0,6-7.3,10.9,2.3c0,0,2.3,6.6-1.7,10.6c0,0-2.9,4.4-6.9,3.6c0,0-5-1.3-4.8-5.8
	C-169.1,11.7-171.1,6.6-166.6,1z"/>
<path id="forth_dot" class="st0" d="M-150.9,13.7c0,0,6.6-3.3,8.1,5.7c0,0-0.3,7.3-4.1,8.5c0,0-2.4,2.2-5.9,1.6c0,0-3.8-1.1-3.4-5.2
	C-156.1,24.3-157.7,17.7-150.9,13.7z"/>
<ellipse id="top_cake" class="st1" cx="-78" cy="26.8" rx="43.4" ry="12.7"/>
<path id="chocolate_cake" class="st2" d="M-121.4,26.8l2.5,58.1c0,0,40.9,25,79.8,0c0,0,4.5-46.4,3.9-55.9"/>
<path id="icing_side" class="st0" d="M-120.6,43.9c0,0,3.4,32.6,9.1,2.4c0,0,4.1-14.3,8.2,0c0,0,6.1,14.7,9.8,3.2c0,0,3.3-6.6,4.5,0
	c0,0,6.1,36.4,8.6,0c0,0,3.3-5.3,8.6-0.8c0,0,7,25.4,14.3-1.6c0,0,4.5-1.6,4.9,0.8c0,0,8.6,51.1,13.9-2.5c0,0-0.1-12.7,3.2-7
	l0.2-10.5c0,0-9.2,9.5-19.6,8.6c0,0-29,3.4-41.7,0.7c0,0-24.2-4.5-24-9.3V43.9z"/>
<ellipse id="top_icing_cake" class="st0" cx="-78.3" cy="26.8" rx="43.4" ry="12.7"/>
<path id="candle" class="st3" d="M-84.5,27.4V1.1c0,0,2.9,3.1,5.5,0v27.3C-79,28.4-83,30.1-84.5,27.4z"/>
<ellipse id="candle_tip" class="st4" cx="-81.8" cy="0.6" rx="2.7" ry="1.6"/>
<rect id="fire_string" x="-82" y="-0.6" class="st1" width="0.5" height="2"/>
<path id="fire" class="st0" d="M-83.6-2.7c0,0-0.2,2.4,1.3,2.2c0,0,1.8,1.4,3-2.2c0,0-1.7-2.6-2.5-5.6C-81.8-8.3-83.6-7.1-83.6-2.7z
	"/>
<path id="flower_patals" class="st5" d="M62.1,72.9c0,0,5.5,6.1,5.9,15.4c0,0,1.6,5.2,2.5,6.2c0,0,6.2,16.2-4.2,24.8
	c0,0-10,8-18.7-1.8c0,0-7.3-3.6-5.9-25.6l0.4-4.3c0,0-4,12.2,0,24c0,0-5,2.7-10.7-0.6c0,0-3.1-9-4.4-11.6c0,0,18.7-9.8,23.9-26.5
	c0,0-10.5,23.4-28.3,27.1c0,0-4.3,1.3-9.5-3.9c0,0-1-2.1-1.8-2.1c0,0-1.6-4-0.9-8.6c0,0,1.8-0.1,0.7-4c0,0,1-3.9,5.6-6.4
	c0,0,14.2-4.3,27.9-9.5c0,0-27.4,8.6-34.4,11.4c0,0-3.8,0-5.1-2.2c0,0-3.4-0.3-4.4-5.5c0,0,0.9-2.1,0-3.3c0,0,1-4.2,0.6-5.5
	c0,0,0.1-6.5,4.6-8.3c0,0,14.3,10.1,37.9,9.3c0,0-34.8-3.2-40-11.8c0,0-0.7,0.7-1.2-4c0,0-2.7-4.3-0.1-6.4c0,0,4.9-3.9,7.4-4.4
	c0,0,2.8-2.8,9.3-2.7c0,0,2.7-3.9,10.2,0.6c0,0,13.2,2.4,18.5,17.3c0,0-5.9-18.1-28.2-20.5c0,0-4.7-14.5,4.9-20.8
	c0,0,1.8-2.1,8.2,1.2c0,0,0.3,2.5,3,8.3c0,0,19.9,21.5,18.2,28.7c0,0,0.7-5.8-9.2-19.3c0,0-7.7-6.8-8.3-11c0,0-3.8-9.8,7.2-15.1
	c0,0,3.8-2.1,5.7,0c0,0,5-3.9,14.7,2.2c0,0,7.4,4.6,7.1,10.1c0,0-16.2,17-10.8,33.1c0,0-5.1-17.4,12-33.1c0,0,9.3-7.3,18-3.7
	s8.3,15.6,8.3,15.6s-1,9.3-10.1,14.4c0,0-16.3,7.1-19.3,13.3c0,0,7.1-9,19-12.3c0,0,5.2-4.6,8-7.1c0,0,8.9-4,16.2,2.8
	s2.4,10.1,2.4,10.1s4.2,4.4-5.2,18c0,0-16.9-16.9-39.2-5.6c0,0,24.2-11.7,40.2,8.3c0,0,1.9,1.6,2.7,4.7c0,0-0.7,2.4,0.3,3.6
	c0,0,1.5,2.2-0.3,3c0,0-0.3,0.6-0.2,1.8c0,0.2,0,0.5,0.1,0.8c0.3,1.6,0.3,3-1.9,4c0,0,2.2,1.8-1.8,6.7c0,0-1.5,2.5-4,3.9
	c0,0-6.4,2.1-11.3,1.2c0,0-16.9-27-25.5-30.4c0,0,18.8,16,25.1,31.3c0,0-1,12.3-10.8,11.1c0,0-9.2-1-9.9-3.1c0,0-1.2-7.7-2.5-14.2
	l-1.8-4.3C68.7,87.7,65.5,74.4,62.1,72.9z"/>
<circle id="flower_center" class="st2" cx="57.1" cy="60.6" r="13.4"/>
<g id="mirror">
	<ellipse id="circle_mirror" class="st1" cx="159.3" cy="42.8" rx="25.2" ry="28.7"/>
	<path id="holding_mirror" class="st0" d="M158.9,77v7.5c0,0-8.1-0.3-10.9,6.5h23.4c0,0-1.7-5.8-10-6l-1.2-0.2l0.3-7.8H158.9z"/>
	<path id="mirror_cut" class="st0" d="M142.7,35.8c0,0,8.2-10,13.2-12.9C155.9,22.9,148.1,33.2,142.7,35.8z"/>
	<path id="big_mirror_cut" class="st0" d="M144.4,44.1c0,0,11.3-13.9,19.6-19.6C164,24.6,152.2,38.9,144.4,44.1z"/>
	<ellipse id="big_mirror_circle" class="st1" cx="159.3" cy="43.1" rx="24.6" ry="28"/>
	<path id="mirror_holder" class="st1" d="M134.2,42.8h-4.7c0,0-3.3,32.1,30.2,33.2c0,0,27.8,1.5,29.5-33.2h-4.6"/>
</g>
<ellipse id="circle_donut" class="st2" cx="241.4" cy="52.5" rx="41.8" ry="43.8"/>
<path id="icing" class="st0" d="M203.9,41.7c0,0-2.9-11.7,6.6-15.6c0,0,7.8-1.4,11-12.1c0,0,2.4-3.1,4.9-2.3c0,0,13.7,4.9,26.9,1.2
	c0,0,12.4-1.2,12.4,7.7c0,0,1.4,13.9,10.8,15.3c0,0,7.5,2.1,3.3,11.6c0,0-2.9,10.6,1.3,15.1c0,0,1.4,11.6-5.8,11.8
	c0,0-9.3,2-11.6,13.7c0,0-3.1,4.1-6.6,3.5c0,0-13.2-0.4-17.7,3.3c0,0-8,2.1-10.2-2.3c0,0-8.2-9.7-17.1-8.7c0,0-4.3-4.1-3.9-7.2
	c0,0,0-13.7-8.2-17.7c0,0-2.9-3.7,1.2-6.3C201.2,52.5,207.2,47.9,203.9,41.7z"/>
<path id="inside_donut" class="st2" d="M225.2,43.1c0,0,5.2-3.5,8.1-3.5c0,0,5.6-4.3,11-1.9l5.2,2.3c0,0,6,2.5,7.2,7.6
	c0,0,3.7,7.2,0,14.9c0,0-3.7,5.8-8.3,5.4c0,0-3.5-2.3-7.6,1.4c0,0-5.6,2.9-10.2-3.1c0,0-2.5-3.7-5.4-5.6c0,0-1.2-2.1-1.4-7.2
	C223.8,53.5,221.3,48.2,225.2,43.1z"/>
<path id="smal_circle" class="st2" d="M230.1,54.8c0,0-4.2-9.2,5.9-13c0,0,13-1.3,15,6.5c0,0,5,9-4.6,14.8
	C246.4,63.1,236,70.7,230.1,54.8z"/>
<g id="sprikles_29_">
	<path id="sprikles" class="st6" d="M227.1,25.9c0,0,2.4-3.1,6-1.3c0,0,0.5,0.6,0,1.1c0,0-3.6-1.3-4.9,1.1
		C228.2,26.6,226.8,27,227.1,25.9z"/>
	<path id="sprikles_1_" class="st7" d="M235.8,24.5c0,0,2.4-3.1,6-1.3c0,0,0.5,0.6,0,1.1c0,0-3.6-1.3-4.9,1.1
		C237,25.3,235.6,25.7,235.8,24.5z"/>
	<path id="sprikles_2_" class="st8" d="M235.2,28.4c0,0,3.9-0.5,5.2,3.3c0,0-0.1,0.7-0.7,0.7c0,0-1.5-3.5-4.2-2.7
		C235.5,29.8,234.2,29,235.2,28.4z"/>
	<path id="sprikles_3_" class="st9" d="M227.6,28.4c0,0,3.8,0.7,4,4.7c0,0-0.3,0.7-0.9,0.5c0,0-0.5-3.8-3.2-3.8
		C227.5,29.8,226.5,28.7,227.6,28.4z"/>
	<path id="sprikles_4_" class="st2" d="M226.5,36.8c0,0-3.8,1-5.6-2.6c0,0,0-0.7,0.6-0.8c0,0,2,3.2,4.5,2.2
		C226,35.5,227.4,36.1,226.5,36.8z"/>
	<path id="sprikles_5_" class="st6" d="M210.6,30.2c0,0,3.1,2.3,1.5,6c0,0-0.6,0.5-1.1,0c0,0,1.2-3.6-1.2-4.9
		C209.9,31.4,209.4,30,210.6,30.2z"/>
	<path id="sprikles_6_" class="st10" d="M211.7,41.5c0,0,2.4-3.1,6-1.3c0,0,0.5,0.6,0,1.1c0,0-3.6-1.3-4.9,1.1
		C212.9,42.3,211.4,42.7,211.7,41.5z"/>
	<path id="sprikles_7_" class="st11" d="M221.3,45.1c0,0-3.4,1.9-6.1-1.2c0,0-0.2-0.7,0.4-1c0,0,2.7,2.6,4.9,1
		C220.5,43.9,222,44.2,221.3,45.1z"/>
	<path id="sprikles_8_" class="st6" d="M215.9,55c0,0-3.5-1.6-2.7-5.6c0,0,0.4-0.6,1-0.2c0,0-0.5,3.8,2.2,4.5
		C216.4,53.7,217.1,55,215.9,55z"/>
	<path id="sprikles_9_" class="st12" d="M209.5,51.9c0,0,3.4,2,2.2,5.8c0,0-0.5,0.6-1,0.1c0,0,0.8-3.7-1.7-4.7
		C208.9,53.2,208.3,51.8,209.5,51.9z"/>
	<path id="sprikles_10_" class="st2" d="M215.3,63.6c0,0-3.3,2-6.1-0.9c0,0-0.2-0.7,0.4-1c0,0,2.8,2.5,5,0.8
		C214.5,62.5,216,62.7,215.3,63.6z"/>
	<path id="sprikles_11_" class="st13" d="M220.4,64.9c0,0,3.2-2.2,6.2,0.5c0,0,0.3,0.7-0.3,1c0,0-3-2.3-5-0.4
		C221.3,66,219.8,66,220.4,64.9z"/>
	<path id="sprikles_12_" class="st14" d="M213.7,74.3c0,0-2.8-2.8-0.6-6.2c0,0,0.6-0.4,1,0.1c0,0-1.8,3.4,0.4,5
		C214.6,73.3,214.8,74.8,213.7,74.3z"/>
	<path id="sprikles_13_" class="st15" d="M219.2,77.3c0,0-1.6-3.5,1.6-6c0,0,0.7-0.2,0.9,0.5c0,0-2.8,2.5-1.3,4.8
		C220.4,76.6,220.1,78.1,219.2,77.3z"/>
	<path id="sprikles_14_" class="st2" d="M225.9,81.9c0,0,0.4-3.9,4.4-4.3c0,0,0.7,0.2,0.6,0.9c0,0-3.7,0.7-3.6,3.5
		C227.3,81.9,226.3,83,225.9,81.9z"/>
	<path id="sprikles_15_" class="st16" d="M239.1,75.1c0,0,3.5,1.6,2.7,5.6c0,0-0.5,0.6-1,0.2c0,0,0.5-3.8-2.1-4.5
		C238.6,76.4,237.9,75.1,239.1,75.1z"/>
	<path id="sprikles_16_" class="st17" d="M237,85.8c0,0,2.4-3.1,6-1.3c0,0,0.5,0.6,0,1.1c0,0-3.6-1.3-4.9,1.1
		C238.2,86.5,236.7,86.9,237,85.8z"/>
	<path id="sprikles_17_" class="st6" d="M252.7,79c0,0-0.6-3.9,3.1-5.3c0,0,0.7,0,0.8,0.7c0,0-3.4,1.7-2.6,4.3
		C254,78.7,253.3,80,252.7,79z"/>
	<path id="sprikles_18_" class="st2" d="M265.8,67.7c0,0,3.2,2.2,1.7,6c0,0-0.5,0.5-1.1,0.1c0,0,1.2-3.6-1.3-4.8
		C265.1,68.9,264.7,67.5,265.8,67.7z"/>
	<path id="sprikles_19_" class="st18" d="M267.9,65.4c0,0,2.4-3.1,6-1.3c0,0,0.5,0.6,0,1.1c0,0-3.6-1.3-4.9,1.1
		C269.1,66.2,267.7,66.6,267.9,65.4z"/>
	<path id="sprikles_20_" class="st19" d="M262.9,62.2c0,0,2.4-3.1,6-1.3c0,0,0.5,0.6,0,1.1c0,0-3.6-1.3-4.9,1.1
		C264,63,262.6,63.3,262.9,62.2z"/>
	<path id="sprikles_21_" class="st6" d="M267.3,49.8c0,0,3.9,0.5,4.2,4.5c0,0-0.3,0.7-0.9,0.5c0,0-0.6-3.7-3.4-3.7
		C267.2,51.2,266.2,50.1,267.3,49.8z"/>
	<path id="sprikles_22_" class="st20" d="M261.7,48.1c0,0,3.6,1.5,2.9,5.5c0,0-0.4,0.6-1,0.3c0,0,0.3-3.8-2.4-4.4
		C261.2,49.4,260.5,48.1,261.7,48.1z"/>
	<path id="sprikles_23_" class="st2" d="M265,43.9c0,0,0-3.9,4-4.8c0,0,0.7,0.2,0.6,0.8c0,0-3.6,1.1-3.2,3.8
		C266.4,43.8,265.5,45,265,43.9z"/>
	<path id="sprikles_24_" class="st21" d="M261.3,30.8c0,0,3.8,0.6,4.1,4.7c0,0-0.3,0.7-0.9,0.5c0,0-0.5-3.8-3.3-3.8
		C261.1,32.1,260.1,31.1,261.3,30.8z"/>
	<path id="sprikles_25_" class="st6" d="M251.7,33.2c0,0,2.4-3.1,6-1.3c0,0,0.5,0.6,0,1.1c0,0-3.6-1.3-4.9,1.1
		C252.9,33.9,251.4,34.3,251.7,33.2z"/>
	<path id="sprikles_26_" class="st22" d="M248.6,24.5c0,0,2.4-3.1,6-1.3c0,0,0.5,0.6,0,1.1c0,0-3.6-1.3-4.9,1.1
		C249.7,25.3,248.3,25.7,248.6,24.5z"/>
	<path id="sprikles_27_" class="st2" d="M254.6,17c0,0,3.7,1.2,3.4,5.2c0,0-0.4,0.7-1,0.4c0,0,0-3.8-2.7-4.2
		C254.3,18.4,253.5,17.1,254.6,17z"/>
	<path id="sprikles_28_" class="st23" d="M244,26.1c0,0,3.9,0.2,4.5,4.2c0,0-0.2,0.7-0.9,0.6c0,0-0.9-3.7-3.7-3.4
		C244.1,27.5,242.9,26.5,244,26.1z"/>
</g>
<g id="lipstick_1_">
	<polygon id="bottom_lipstick" class="st0" points="306.7,62.3 306.7,97.9 326.3,97.9 326.7,62.3 	"/>
	<path id="center_of_lipstick" class="st1" d="M308.9,59.9V36.2c0,0,5,6.5,16,0v23.6"/>
	<path id="lipstick" class="st0" d="M311,21.9v14.3c0,0,4.7,1.7,10.8,0c0,0,0.6-18.8-2-21.4C319.8,14.9,317.7,20.3,311,21.9z"/>
	<path id="lipstick_top" class="st0" d="M311,20.4c0,0,3-10.3,7.2-8.2C318.2,12.2,320.4,15.5,311,20.4z"/>
</g>
<g id="makeup_mirror">
	<path id="outside_mirror" class="st0" d="M371.5,59.5v3h-7c0,0-26.5-22.3,0-45.9c0,0,19.3-14,37,5.3c0,0,15.6,17-0.8,35.8l-4.6,4.9
		h-7.2l-0.1-2.7c0,0,25.3-13.7,5.9-36.7c0,0-13.2-11.2-28.2-0.2c-15,11-4.8,29.4-4.8,29.4S367.4,58.9,371.5,59.5z"/>
	<path id="bottom_mirror" class="st0" d="M373.3,60v2.5h14V60C387.3,60,379.7,63.8,373.3,60z"/>
	<ellipse id="blush" class="st0" cx="380.3" cy="75.4" rx="21.9" ry="10.9"/>
	<path id="mirror_line" class="st1" d="M357.6,79.8c0,0,6.9,8.8,20,9c0,0,16,2.3,25.1-8"/>
	<path id="bottom_mirror_1_" class="st0" d="M363.7,64.3h3.5c0,0-7.9,2.4-10.6,8.3c0,0-7.2,17.6,23.6,18.4
		c30.7,0.9,23.6-19.9,23.6-19.9s-5.3-5.8-10.1-6.8h3.3c0,0,24.6,9.5,6.7,24.7c0,0-9.1,6.4-18,6.1c0,0-14,1.2-21.1-2
		c-7-3.2-10.5-4.6-12.4-8.6C352.2,84.4,343,73.8,363.7,64.3z"/>
	<path id="bottom_line" class="st1" d="M355,90.1c0,0,25.2,18.3,50.1,0C405.2,90.1,380.9,108.2,355,90.1z"/>
</g>
<g id="wine_1_">
	<path id="glass" class="st0" d="M497-2l36.4,36.9c0,0-19,35.6-42.8,32.3c0,0-8-0.5-14.5-6.9l-23,23.3L462,92c0,0,2.3,2,1,4.1
		c0,0-1.6,3.6-5.4,1.3s-23.4-23.8-23.4-23.8s-1.5-2.5,1-4.2c0,0,1.6-1.9,3.6-0.2l9.9,9.6L472,56.3c0,0-16.6-15.4-0.2-37.1
		C471.8,19.1,490.6-0.4,497-2z"/>
	<path id="inside_glass" class="st2" d="M496.5,7l28.8,28.8c0,0-21.5,35.2-41,22.3c-19.5-12.9-12.3-26.5-12.3-26.5
		S476.4,18.8,496.5,7z"/>
	<path id="wine" class="st0" d="M481.3,23.2c0,0,8.2,6.6,18.7,7.2c10.5,0.7,22.3,6.9,22.3,6.9s-15.1,19.3-28.8,19S477,43.5,477,43.5
		S473.1,36.8,481.3,23.2z"/>
</g>
<g id="heart">
	<path id="left_heart" class="st0" d="M464.7,166.6c0,0,2.9-19,40.6-28.8l3.3,20l-23.9,2.9l-1,25.2l-0.3,4.9l-33.8-11.5v35.4
		l-36.7-6.9v40.3c0,0-37.6-27.2-39.3-59.3c0,0-5.9-38,33.1-48.8c39-10.8,51.1,15.1,51.1,15.1L464.7,166.6z"/>
	<path id="right_heart" class="st0" d="M513.9,137.4c0,0,41-1.6,42.6,49.2c1.6,50.8-89.8,93.7-89.8,93.7l-42.3-25.6V219l38,1.6
		l-7.5-34.1l35.6,11.8l2.8-30.8l25.6-1L513.9,137.4z"/>
</g>
<g id="ice_cream_cone">
	<g id="cone">
		
			<rect id="cube" x="276.4" y="167.9" transform="matrix(0.9122 -0.4097 0.4097 0.9122 -45.7236 129.8382)" class="st0" width="7.4" height="7.4"/>
		
			<rect id="cube_1_" x="280.3" y="176.6" transform="matrix(0.9122 -0.4097 0.4097 0.9122 -48.9226 132.1866)" class="st0" width="7.4" height="7.4"/>
		
			<rect id="cube_2_" x="284.2" y="185.3" transform="matrix(0.9122 -0.4097 0.4097 0.9122 -52.1454 134.5525)" class="st0" width="7.4" height="7.4"/>
		
			<rect id="cube_3_" x="288" y="193.6" transform="matrix(0.9122 -0.4097 0.4097 0.9122 -55.2492 136.831)" class="st0" width="7.4" height="7.4"/>
		
			<rect id="cube_4_" x="289" y="172.6" transform="matrix(0.9122 -0.4097 0.4097 0.9122 -46.523 135.3897)" class="st0" width="7.4" height="7.4"/>
		
			<rect id="cube_5_" x="292.8" y="180.6" transform="matrix(0.9122 -0.4097 0.4097 0.9122 -49.495 137.689)" class="st0" width="7.4" height="7.4"/>
		
			<rect id="cube_6_" x="297" y="169.1" transform="matrix(0.9122 -0.4097 0.4097 0.9122 -44.3856 138.367)" class="st0" width="7.4" height="7.4"/>
		
			<rect id="cube_7_" x="267.4" y="172.6" transform="matrix(0.9122 -0.4097 0.4097 0.9122 -48.4147 126.5616)" class="st0" width="7.4" height="7.4"/>
		
			<rect id="cube_8_" x="271.2" y="180.6" transform="matrix(0.9122 -0.4097 0.4097 0.9122 -51.396 128.8174)" class="st0" width="7.4" height="7.4"/>
		
			<rect id="cube_9_" x="275" y="189.4" transform="matrix(0.9122 -0.4097 0.4097 0.9122 -54.6509 131.1396)" class="st0" width="7.4" height="7.4"/>
		
			<rect id="cube_10_" x="279.3" y="197.5" transform="matrix(0.9122 -0.4097 0.4097 0.9122 -57.599 133.6301)" class="st0" width="7.4" height="7.4"/>
		
			<rect id="cube_11_" x="282.7" y="206.3" transform="matrix(0.9122 -0.4097 0.4097 0.9122 -60.8866 135.7846)" class="st0" width="7.4" height="7.4"/>
		
			<rect id="cube_12_" x="275" y="210.2" transform="matrix(0.9122 -0.4097 0.4097 0.9122 -63.1723 132.9656)" class="st0" width="7.4" height="7.4"/>
		
			<rect id="cube_13_" x="271.2" y="201.2" transform="matrix(0.9122 -0.4097 0.4097 0.9122 -59.8087 130.6201)" class="st0" width="7.4" height="7.4"/>
		
			<rect id="cube_14_" x="278.9" y="218.9" transform="matrix(0.9122 -0.4097 0.4097 0.9122 -66.3992 135.321)" class="st0" width="7.4" height="7.4"/>
		<polygon id="corner" class="st0" points="258.4,167.5 261,166.7 263.9,172.8 260.6,174.4 		"/>
		<path id="corner_1_" class="st0" d="M263,164.9c0,0,3.3,3.4,8.9,2.3l-6.2,4.9L263,164.9z"/>
		<polygon class="st0" points="273.3,167 277.2,165.4 277.7,166.2 273.8,168.5 		"/>
		<polygon id="corner_2_" class="st0" points="283.5,167.4 289.9,165.4 293.5,169.7 286.4,172.8 		"/>
		<path id="corner_3_" class="st0" d="M293.8,167.4c0,0,5,0.2,6.9-1.5l-5,3.1L293.8,167.4z"/>
		<polyline id="corner_4_" class="st0" points="303.7,166.3 306.1,172 307.8,167.5 303.3,166.3 		"/>
		<polygon id="corner_5_" class="st0" points="299.3,178.7 304.4,176.6 302.3,185.1 		"/>
		<polygon id="corner_6_" class="st0" points="295.1,191.5 300.7,189 298.6,198.8 		"/>
		<polygon id="corner_7_" class="st0" points="290.4,204.1 297.2,201.2 294.3,210 		"/>
		<polygon id="corner_8_" class="st0" points="285.7,216.3 293.5,213.9 290.4,222.6 289.6,225 		"/>
		<polygon id="corner_9_" class="st0" points="281.2,229.1 284.6,235.7 287.3,234.6 289.6,227.6 288.5,225.7 		"/>
		<polygon id="corner_10_" class="st0" points="285.4,237.6 286.4,239.6 287.3,236.9 		"/>
		<path id="corner_11_" class="st0" d="M279.5,239.6l4.4-1.4c0,0,2.5,3.4,0.5,6.1C284.4,244.4,282.3,249.5,279.5,239.6z"/>
		<polygon id="corner_12_" class="st0" points="277.3,230.7 278.7,238.3 283,236.9 280.1,229.8 		"/>
		<polygon id="corner_13_" class="st0" points="274.4,221.2 276.5,229 278.7,228 276.6,221.2 		"/>
		<polygon id="corner_14_" class="st0" points="271.8,212.5 273.5,219.5 274.9,219 		"/>
		<polygon id="corner_15_" class="st0" points="266.4,194.4 268.8,202.1 275.5,198.8 272.7,192 		"/>
		<polygon id="corner_16_" class="st0" points="263.9,184.7 265.4,193.1 271.8,190.1 268.7,183.5 		"/>
		<polygon id="corner_17_" class="st0" points="261.1,176.3 263,183.5 267.9,181.7 264.5,174.4 		"/>
	</g>
	<g id="ice_cream_6_">
		<circle id="ice_cream" cx="256" cy="156.9" r="8.6"/>
		<circle id="ice_cream_1_" cx="270.3" cy="157.9" r="7.5"/>
		<circle id="ice_cream_2_" cx="283.3" cy="158.6" r="7.3"/>
		<ellipse id="ice_cream_3_" cx="295.9" cy="159" rx="7.4" ry="6.4"/>
		<circle id="ice_cream_4_" cx="310.2" cy="157.1" r="8.8"/>
		<path id="ice_cream_5_" d="M253.5,149.3c0,0,0-21.4,25.2-27.4c0,0,20.9-3.4,31.5,17.8c0,0,3.2,5.3,2.4,9.5l-18.8,8.8l-39.2-2.1
			L253.5,149.3z"/>
	</g>
</g>
</svg>
