<?xml version="1.0" encoding="utf-8"?>
<!-- Generator: Adobe Illustrator 23.0.1, SVG Export Plug-In . SVG Version: 6.00 Build 0)  -->
<svg version="1.1" id="background" xmlns="http://www.w3.org/2000/svg" xmlns:xlink="http://www.w3.org/1999/xlink" x="0px" y="0px"
	 viewBox="0 0 72.5 122.3" style="enable-background:new 0 0 72.5 122.3;" xml:space="preserve">
<style type="text/css">
	.st0{stroke:#000000;stroke-miterlimit:10;}
	.st1{fill:none;stroke:#000000;stroke-miterlimit:10;}
	.st2{fill:#725130;stroke:#000000;stroke-miterlimit:10;}
	.st3{fill:#E179AA;stroke:#000000;stroke-miterlimit:10;}
	.st4{fill:none;stroke:#E179AA;stroke-miterlimit:10;}
	.st5{fill:#F4F4C0;stroke:#000000;stroke-miterlimit:10;}
	.st6{fill:#F9F8CE;stroke:#000000;stroke-miterlimit:10;}
	.st7{fill:#F3EB3D;stroke:#000000;stroke-miterlimit:10;}
	.st8{stroke:#FFFFFF;stroke-miterlimit:10;}
	.st9{fill:#FFFFFF;stroke:#000000;stroke-miterlimit:10;}
	.st10{fill:#F7F4B0;stroke:#000000;stroke-miterlimit:10;}
	.st11{fill:#C166A8;stroke:#000000;stroke-miterlimit:10;}
	.st12{fill:#F7F4B2;stroke:#000000;stroke-miterlimit:10;}
	.st13{fill:#E8E61B;stroke:#000000;stroke-miterlimit:10;}
	.st14{fill:#F15922;stroke:#000000;stroke-miterlimit:10;}
	.st15{fill:#ED2490;stroke:#000000;stroke-miterlimit:10;}
	.st16{fill:#EE2924;stroke:#000000;stroke-miterlimit:10;}
	.st17{fill:#6BCCE4;stroke:#000000;stroke-miterlimit:10;}
	.st18{fill:#129F49;stroke:#000000;stroke-miterlimit:10;}
	.st19{fill:#EF4829;stroke:#000000;stroke-miterlimit:10;}
	.st20{fill:#F04D23;stroke:#000000;stroke-miterlimit:10;}
	.st21{fill:#EF3B24;stroke:#000000;stroke-miterlimit:10;}
	.st22{fill:#33449B;stroke:#000000;stroke-miterlimit:10;}
	.st23{fill:#6CBE45;stroke:#000000;stroke-miterlimit:10;}
	.st24{fill:#66CCE9;stroke:#000000;stroke-miterlimit:10;}
	.st25{fill:#EE3024;stroke:#000000;stroke-miterlimit:10;}
	.st26{fill:#55B948;stroke:#000000;stroke-miterlimit:10;}
	.st27{fill:#3B2F90;stroke:#000000;stroke-miterlimit:10;}
	.st28{fill:#2AB34B;stroke:#000000;stroke-miterlimit:10;}
	.st29{fill:#312D85;stroke:#000000;stroke-miterlimit:10;}
	.st30{fill:#47B649;stroke:#000000;stroke-miterlimit:10;}
</style>
<g id="cat_paw">
	<path id="middle_paw" class="st0" d="M-437.6-87.9c0,0,6.4-5.7,8.9-10.7s11.4-10.4,17.9,0c0,0,4.4,7,6.8,8.2
		c0,0,12.6,12.1-0.7,18.4c0,0-6.1,0.1-7.2-0.9c0,0-8.4-4-13.5-0.1c0,0-10.6,5.4-13.9-3.2C-439.3-76.3-442.4-80.5-437.6-87.9z"/>
	<path id="first_dot" class="st0" d="M-449.7-104.6c0,0-0.3-8.3,8-5.5c0,0,7,2.1,6,9.8c0,0-0.8,8.1-7.7,5.3
		C-443.4-95-449.7-96.4-449.7-104.6z"/>
	<path id="second_dot" class="st0" d="M-436.8-121c0,0,4-9.2,11.4-2.1c0,0,6.4,6.4,1.7,13.7c0,0-3.6,5.8-9.7,1.2
		C-433.3-108.2-438.3-113.3-436.8-121z"/>
	<path id="third_dot" class="st0" d="M-414.4-122.9c0,0,6-7.3,10.9,2.3c0,0,2.3,6.6-1.7,10.6c0,0-2.9,4.4-6.9,3.6c0,0-5-1.3-4.8-5.8
		C-416.9-112.2-418.9-117.3-414.4-122.9z"/>
	<path id="forth_dot" class="st0" d="M-398.6-110.2c0,0,6.6-3.3,8.1,5.7c0,0-0.3,7.3-4.1,8.5c0,0-2.4,2.2-5.9,1.6
		c0,0-3.8-1.1-3.4-5.2C-403.9-99.6-405.4-106.2-398.6-110.2z"/>
</g>
<ellipse id="top_cake" class="st1" cx="-325.8" cy="-97.1" rx="43.4" ry="12.7"/>
<path id="chocolate_cake" class="st2" d="M-369.1-97.1l2.5,58.1c0,0,40.9,25,79.8,0c0,0,4.5-46.4,3.9-55.9"/>
<path id="icing_side" class="st3" d="M-368.4-80.1c0,0,3.4,32.6,9.1,2.4c0,0,4.1-14.3,8.2,0c0,0,6.1,14.7,9.8,3.2c0,0,3.3-6.6,4.5,0
	c0,0,6.1,36.4,8.6,0c0,0,3.3-5.3,8.6-0.8c0,0,7,25.4,14.3-1.6c0,0,4.5-1.6,4.9,0.8c0,0,8.6,51.1,13.9-2.5c0,0-0.1-12.7,3.2-7
	l0.2-10.5c0,0-9.2,9.5-19.6,8.6c0,0-29,3.4-41.7,0.7c0,0-24.2-4.5-24-9.3V-80.1z"/>
<ellipse id="top_icing_cake" class="st3" cx="-326.1" cy="-97.1" rx="43.4" ry="12.7"/>
<path id="icing_ring" class="st4" d="M-366.4-46.9c0,0,61.2,23.7,81.1-6"/>
<path id="candle" class="st5" d="M-332.3-96.5v-26.3c0,0,2.9,3.1,5.5,0v27.3C-326.8-95.5-330.7-93.8-332.3-96.5z"/>
<ellipse id="candle_tip" class="st6" cx="-329.5" cy="-123.4" rx="2.7" ry="1.6"/>
<rect id="fire_string" x="-329.8" y="-124.5" class="st1" width="0.5" height="2"/>
<path id="fire" class="st7" d="M-331.4-126.6c0,0-0.2,2.4,1.3,2.2c0,0,1.8,1.4,3-2.2c0,0-1.7-2.6-2.5-5.6
	C-329.6-132.2-331.3-131.1-331.4-126.6z"/>
<g id="flower">
	<path id="flower_patals" class="st8" d="M-185.7-51.1c0,0,5.5,6.1,5.9,15.4c0,0,1.6,5.2,2.5,6.2c0,0,6.2,16.2-4.2,24.8
		c0,0-10,8-18.7-1.8c0,0-7.3-3.6-5.9-25.6l0.4-4.3c0,0-4,12.2,0,24c0,0-5,2.7-10.7-0.6c0,0-3.1-9-4.4-11.6c0,0,18.7-9.8,23.9-26.5
		c0,0-10.5,23.4-28.3,27.1c0,0-4.3,1.3-9.5-3.9c0,0-1-2.1-1.8-2.1c0,0-1.6-4-0.9-8.6c0,0,1.8-0.1,0.7-4c0,0,1-3.9,5.6-6.4
		c0,0,14.2-4.3,27.9-9.5c0,0-27.4,8.6-34.4,11.4c0,0-3.8,0-5.1-2.2c0,0-3.4-0.3-4.4-5.5c0,0,0.9-2.1,0-3.3c0,0,1-4.2,0.6-5.5
		c0,0,0.1-6.5,4.6-8.3c0,0,14.3,10.1,37.9,9.3c0,0-34.8-3.2-40-11.8c0,0-0.7,0.7-1.2-4c0,0-2.7-4.3-0.1-6.4c0,0,4.9-3.9,7.4-4.4
		c0,0,2.8-2.8,9.3-2.7c0,0,2.7-3.9,10.2,0.6c0,0,13.2,2.4,18.5,17.3c0,0-5.9-18.1-28.2-20.5c0,0-4.7-14.5,4.9-20.8
		c0,0,1.8-2.1,8.2,1.2c0,0,0.3,2.5,3,8.3c0,0,19.9,21.5,18.2,28.7c0,0,0.7-5.8-9.2-19.3c0,0-7.7-6.8-8.3-11c0,0-3.8-9.8,7.2-15.1
		c0,0,3.8-2.1,5.7,0c0,0,5-3.9,14.7,2.2c0,0,7.4,4.6,7.1,10.1c0,0-16.2,17-10.8,33.1c0,0-5.1-17.4,12-33.1c0,0,9.3-7.3,18-3.7
		s8.3,15.6,8.3,15.6s-1,9.3-10.1,14.4c0,0-16.3,7.1-19.3,13.3c0,0,7.1-9,19-12.3c0,0,5.2-4.6,8-7.1c0,0,8.9-4,16.2,2.8
		s2.4,10.1,2.4,10.1s4.2,4.4-5.2,18c0,0-16.9-16.9-39.2-5.6c0,0,24.2-11.7,40.2,8.3c0,0,1.9,1.6,2.7,4.7c0,0-0.7,2.4,0.3,3.6
		c0,0,1.5,2.2-0.3,3c0,0-0.3,0.6-0.2,1.8c0,0.2,0,0.5,0.1,0.8c0.3,1.6,0.3,3-1.9,4c0,0,2.2,1.8-1.8,6.7c0,0-1.5,2.5-4,3.9
		c0,0-6.4,2.1-11.3,1.2c0,0-16.9-27-25.5-30.4c0,0,18.8,16,25.1,31.3c0,0-1,12.3-10.8,11.1c0,0-9.2-1-9.9-3.1c0,0-1.2-7.7-2.5-14.2
		l-1.8-4.3C-179-36.2-182.3-49.6-185.7-51.1z"/>
	<circle id="flower_center" class="st9" cx="-190.7" cy="-63.4" r="13.4"/>
</g>
<g id="mirror">
	<ellipse id="circle_mirror" class="st1" cx="-88.4" cy="-81.1" rx="25.2" ry="28.7"/>
	<path id="holding_mirror" class="st0" d="M-88.9-46.9v7.5c0,0-8.1-0.3-10.9,6.5h23.4c0,0-1.7-5.8-10-6l-1.2-0.2l0.3-7.8H-88.9z"/>
	<path id="mirror_cut" class="st0" d="M-105.1-88.1c0,0,8.2-10,13.2-12.9C-91.8-101-99.7-90.7-105.1-88.1z"/>
	<path id="big_mirror_cut" class="st0" d="M-103.4-79.8c0,0,11.3-13.9,19.6-19.6C-83.8-99.4-95.6-85-103.4-79.8z"/>
	<ellipse id="big_mirror_circle" class="st1" cx="-88.4" cy="-80.8" rx="24.6" ry="28"/>
	<path id="mirror_holder" class="st1" d="M-113.6-81.1h-4.7c0,0-3.3,32.1,30.2,33.2c0,0,27.8,1.5,29.5-33.2h-4.6"/>
</g>
<g id="donut">
	<ellipse id="circle_donut" class="st10" cx="-6.4" cy="-71.4" rx="41.8" ry="43.8"/>
	<path id="icing" class="st11" d="M-43.9-82.2c0,0-2.9-11.7,6.6-15.6c0,0,7.8-1.4,11-12.1c0,0,2.4-3.1,4.9-2.3
		c0,0,13.7,4.9,26.9,1.2c0,0,12.4-1.2,12.4,7.7c0,0,1.4,13.9,10.8,15.3c0,0,7.5,2.1,3.3,11.6c0,0-2.9,10.6,1.3,15.1
		c0,0,1.4,11.6-5.8,11.8c0,0-9.3,2-11.6,13.7c0,0-3.1,4.1-6.6,3.5c0,0-13.2-0.4-17.7,3.3c0,0-8,2.1-10.2-2.3c0,0-8.2-9.7-17.1-8.7
		c0,0-4.3-4.1-3.9-7.2c0,0,0-13.7-8.2-17.7c0,0-2.9-3.7,1.2-6.3C-46.6-71.4-40.6-76.1-43.9-82.2z"/>
	<path id="inside_donut" class="st12" d="M-22.5-80.9c0,0,5.2-3.5,8.1-3.5c0,0,5.6-4.3,11-1.9L1.8-84c0,0,6,2.5,7.2,7.6
		c0,0,3.7,7.2,0,14.9c0,0-3.7,5.8-8.3,5.4c0,0-3.5-2.3-7.6,1.4c0,0-5.6,2.9-10.2-3.1c0,0-2.5-3.7-5.4-5.6c0,0-1.2-2.1-1.4-7.2
		C-24-70.4-26.5-75.7-22.5-80.9z"/>
	<path id="smal_circle" class="st9" d="M-17.7-69.2c0,0-4.2-9.2,5.9-13c0,0,13-1.3,15,6.5c0,0,5,9-4.6,14.8
		C-1.4-60.8-11.8-53.3-17.7-69.2z"/>
	<g id="sprikles_29_">
		<path id="sprikles" class="st13" d="M-20.7-98.1c0,0,2.4-3.1,6-1.3c0,0,0.5,0.6,0,1.1c0,0-3.6-1.3-4.9,1.1
			C-19.5-97.3-21-96.9-20.7-98.1z"/>
		<path id="sprikles_1_" class="st14" d="M-11.9-99.4c0,0,2.4-3.1,6-1.3c0,0,0.5,0.6,0,1.1c0,0-3.6-1.3-4.9,1.1
			C-10.8-98.6-12.2-98.3-11.9-99.4z"/>
		<path id="sprikles_2_" class="st15" d="M-12.5-95.5c0,0,3.9-0.5,5.2,3.3c0,0-0.1,0.7-0.7,0.7c0,0-1.5-3.5-4.2-2.7
			C-12.3-94.2-13.6-94.9-12.5-95.5z"/>
		<path id="sprikles_3_" class="st16" d="M-20.2-95.6c0,0,3.8,0.7,4,4.7c0,0-0.3,0.7-0.9,0.5c0,0-0.5-3.8-3.2-3.8
			C-20.3-94.2-21.3-95.3-20.2-95.6z"/>
		<path id="sprikles_4_" class="st9" d="M-21.3-87.1c0,0-3.8,1-5.6-2.6c0,0,0-0.7,0.6-0.8c0,0,2,3.2,4.5,2.2
			C-21.8-88.4-20.4-87.8-21.3-87.1z"/>
		<path id="sprikles_5_" class="st13" d="M-37.2-93.7c0,0,3.1,2.3,1.5,6c0,0-0.6,0.5-1.1,0c0,0,1.2-3.6-1.2-4.9
			C-37.9-92.5-38.3-93.9-37.2-93.7z"/>
		<path id="sprikles_6_" class="st17" d="M-36.1-82.4c0,0,2.4-3.1,6-1.3c0,0,0.5,0.6,0,1.1c0,0-3.6-1.3-4.9,1.1
			C-34.9-81.6-36.3-81.2-36.1-82.4z"/>
		<path id="sprikles_7_" class="st18" d="M-26.5-78.8c0,0-3.4,1.9-6.1-1.2c0,0-0.2-0.7,0.4-1c0,0,2.7,2.6,4.9,1
			C-27.3-80-25.8-79.8-26.5-78.8z"/>
		<path id="sprikles_8_" class="st13" d="M-31.9-69c0,0-3.5-1.6-2.7-5.6c0,0,0.4-0.6,1-0.2c0,0-0.5,3.8,2.2,4.5
			C-31.4-70.3-30.7-68.9-31.9-69z"/>
		<path id="sprikles_9_" class="st19" d="M-38.3-72c0,0,3.4,2,2.2,5.8c0,0-0.5,0.6-1,0.1c0,0,0.8-3.7-1.7-4.7
			C-38.9-70.8-39.5-72.1-38.3-72z"/>
		<path id="sprikles_10_" class="st9" d="M-32.5-60.3c0,0-3.3,2-6.1-0.9c0,0-0.2-0.7,0.4-1c0,0,2.8,2.5,5,0.8
			C-33.3-61.4-31.8-61.3-32.5-60.3z"/>
		<path id="sprikles_11_" class="st20" d="M-27.3-59c0,0,3.2-2.2,6.2,0.5c0,0,0.3,0.7-0.3,1c0,0-3-2.3-5-0.4
			C-26.5-57.9-27.9-58-27.3-59z"/>
		<path id="sprikles_12_" class="st21" d="M-34.1-49.6c0,0-2.8-2.8-0.6-6.2c0,0,0.6-0.4,1,0.1c0,0-1.8,3.4,0.4,5
			C-33.2-50.6-32.9-49.2-34.1-49.6z"/>
		<path id="sprikles_13_" class="st22" d="M-28.5-46.6c0,0-1.6-3.5,1.6-6c0,0,0.7-0.2,0.9,0.5c0,0-2.8,2.5-1.3,4.8
			C-27.3-47.3-27.6-45.8-28.5-46.6z"/>
		<path id="sprikles_14_" class="st9" d="M-21.9-42.1c0,0,0.4-3.9,4.4-4.3c0,0,0.7,0.2,0.6,0.9c0,0-3.7,0.7-3.6,3.5
			C-20.5-42-21.5-40.9-21.9-42.1z"/>
		<path id="sprikles_15_" class="st23" d="M-8.7-48.8c0,0,3.5,1.6,2.7,5.6c0,0-0.5,0.6-1,0.2c0,0,0.5-3.8-2.1-4.5
			C-9.2-47.5-9.9-48.8-8.7-48.8z"/>
		<path id="sprikles_16_" class="st24" d="M-10.8-38.1c0,0,2.4-3.1,6-1.3c0,0,0.5,0.6,0,1.1c0,0-3.6-1.3-4.9,1.1
			C-9.6-37.4-11-37-10.8-38.1z"/>
		<path id="sprikles_17_" class="st13" d="M4.9-44.9c0,0-0.6-3.9,3.1-5.3c0,0,0.7,0,0.8,0.7c0,0-3.4,1.7-2.6,4.3
			C6.2-45.3,5.5-44,4.9-44.9z"/>
		<path id="sprikles_18_" class="st9" d="M18.1-56.2c0,0,3.2,2.2,1.7,6c0,0-0.5,0.5-1.1,0.1c0,0,1.2-3.6-1.3-4.8
			C17.3-55,16.9-56.4,18.1-56.2z"/>
		<path id="sprikles_19_" class="st25" d="M20.2-58.5c0,0,2.4-3.1,6-1.3c0,0,0.5,0.6,0,1.1c0,0-3.6-1.3-4.9,1.1
			C21.3-57.7,19.9-57.3,20.2-58.5z"/>
		<path id="sprikles_20_" class="st26" d="M15.1-61.7c0,0,2.4-3.1,6-1.3c0,0,0.5,0.6,0,1.1c0,0-3.6-1.3-4.9,1.1
			C16.3-61,14.8-60.6,15.1-61.7z"/>
		<path id="sprikles_21_" class="st13" d="M19.5-74.1c0,0,3.9,0.5,4.2,4.5c0,0-0.3,0.7-0.9,0.5c0,0-0.6-3.7-3.4-3.7
			C19.4-72.8,18.4-73.8,19.5-74.1z"/>
		<path id="sprikles_22_" class="st27" d="M13.9-75.9c0,0,3.6,1.5,2.9,5.5c0,0-0.4,0.6-1,0.3c0,0,0.3-3.8-2.4-4.4
			C13.5-74.5,12.7-75.8,13.9-75.9z"/>
		<path id="sprikles_23_" class="st9" d="M17.3-80c0,0,0-3.9,4-4.8c0,0,0.7,0.2,0.6,0.8c0,0-3.6,1.1-3.2,3.8
			C18.6-80.1,17.7-79,17.3-80z"/>
		<path id="sprikles_24_" class="st28" d="M13.5-93.2c0,0,3.8,0.6,4.1,4.7c0,0-0.3,0.7-0.9,0.5c0,0-0.5-3.8-3.3-3.8
			C13.4-91.8,12.3-92.9,13.5-93.2z"/>
		<path id="sprikles_25_" class="st13" d="M3.9-90.8c0,0,2.4-3.1,6-1.3c0,0,0.5,0.6,0,1.1c0,0-3.6-1.3-4.9,1.1
			C5.1-90,3.6-89.6,3.9-90.8z"/>
		<path id="sprikles_26_" class="st29" d="M0.8-99.4c0,0,2.4-3.1,6-1.3c0,0,0.5,0.6,0,1.1c0,0-3.6-1.3-4.9,1.1
			C1.9-98.6,0.5-98.3,0.8-99.4z"/>
		<path id="sprikles_27_" class="st9" d="M6.9-106.9c0,0,3.7,1.2,3.4,5.2c0,0-0.4,0.7-1,0.4c0,0,0-3.8-2.7-4.2
			C6.5-105.6,5.7-106.8,6.9-106.9z"/>
		<path id="sprikles_28_" class="st30" d="M-3.7-97.8c0,0,3.9,0.2,4.5,4.2c0,0-0.2,0.7-0.9,0.6c0,0-0.9-3.7-3.7-3.4
			C-3.7-96.4-4.8-97.4-3.7-97.8z"/>
	</g>
</g>
<g id="lipstick_1_">
	<polygon id="bottom_lipstick" class="st0" points="58.9,-61.6 58.9,-26.1 78.5,-26.1 78.9,-61.6 	"/>
	<path id="center_of_lipstick" class="st1" d="M61.1-64v-23.6c0,0,5,6.5,16,0V-64"/>
	<path id="lipstick" class="st0" d="M63.2-102v14.3c0,0,4.7,1.7,10.8,0c0,0,0.6-18.8-2-21.4C72-109.1,69.9-103.6,63.2-102z"/>
	<path id="lipstick_top" class="st0" d="M63.2-103.6c0,0,3-10.3,7.2-8.2C70.4-111.8,72.6-108.5,63.2-103.6z"/>
</g>
<g id="makeup_mirror">
	<path id="outside_mirror" class="st0" d="M123.8-64.4v3h-7c0,0-26.5-22.3,0-45.9c0,0,19.3-14,37,5.3c0,0,15.6,17-0.8,35.8l-4.6,4.9
		h-7.2l-0.1-2.7c0,0,25.3-13.7,5.9-36.7c0,0-13.2-11.2-28.2-0.2S114-71.5,114-71.5S119.6-65,123.8-64.4z"/>
	<path id="bottom_mirror" class="st0" d="M125.5-63.9v2.5h14v-2.5C139.5-63.9,132-60.2,125.5-63.9z"/>
	<ellipse id="blush" class="st0" cx="132.5" cy="-48.5" rx="21.9" ry="10.9"/>
	<path id="mirror_line" class="st1" d="M109.8-44.1c0,0,6.9,8.8,20,9c0,0,16,2.3,25.1-8"/>
	<path id="bottom_mirror_1_" class="st0" d="M115.9-59.7h3.5c0,0-7.9,2.4-10.6,8.3c0,0-7.2,17.6,23.6,18.4
		c30.7,1,23.6-19.8,23.6-19.8s-5.3-5.8-10.1-6.8h3.3c0,0,24.6,9.5,6.7,24.7c0,0-9.1,6.4-18,6.1c0,0-14,1.2-21.1-2
		s-10.5-4.6-12.4-8.6C104.4-39.5,95.2-50.1,115.9-59.7z"/>
	<path id="bottom_line" class="st1" d="M107.3-33.8c0,0,25.2,18.3,50.1,0C157.4-33.8,133.1-15.8,107.3-33.8z"/>
</g>
<g id="wine_1_">
	<path id="glass" class="st0" d="M249.3-126l36.4,36.9c0,0-19,35.6-42.8,32.3c0,0-8-0.5-14.5-6.9l-23,23.3l8.8,8.5c0,0,2.3,2,1,4.1
		c0,0-1.6,3.6-5.4,1.3c-3.8-2.3-23.4-23.8-23.4-23.8s-1.5-2.5,1-4.2c0,0,1.6-1.9,3.6-0.2l9.9,9.6l23.4-22.7c0,0-16.6-15.4-0.2-37.1
		C224.1-104.8,242.8-124.3,249.3-126z"/>
	<path id="inside_glass" class="st9" d="M248.8-117l28.8,28.8c0,0-21.5,35.2-41,22.3s-12.3-26.5-12.3-26.5S228.6-105.2,248.8-117z"
		/>
	<path id="wine" class="st0" d="M233.5-100.7c0,0,8.2,6.6,18.7,7.2c10.5,0.7,22.3,6.9,22.3,6.9s-15.1,19.3-28.8,19
		c-13.8-0.3-16.4-12.8-16.4-12.8S225.3-87.1,233.5-100.7z"/>
</g>
<g id="heart">
	<path id="left_heart" class="st0" d="M216.9,42.6c0,0,2.9-19,40.6-28.8l3.3,20l-23.9,2.9l-1,25.2l-0.3,4.9l-33.8-11.5v35.4
		l-36.7-6.9v40.3c0,0-37.6-27.2-39.3-59.3c0,0-5.9-38,33.1-48.8S210,31.2,210,31.2L216.9,42.6z"/>
	<path id="right_heart" class="st0" d="M266.1,13.5c0,0,41-1.6,42.6,49.2s-89.8,93.7-89.8,93.7l-42.3-25.6V95.1l38,1.6l-7.5-34.1
		l35.6,11.8l2.8-30.8l25.6-1L266.1,13.5z"/>
</g>
<g id="cone">
	
		<rect id="cube" x="28.6" y="44" transform="matrix(0.9122 -0.4097 0.4097 0.9122 -16.7127 17.4247)" class="st0" width="7.4" height="7.4"/>
	
		<rect id="cube_1_" x="32.5" y="52.6" transform="matrix(0.9122 -0.4097 0.4097 0.9122 -19.8936 19.7698)" class="st0" width="7.4" height="7.4"/>
	
		<rect id="cube_2_" x="36.4" y="61.3" transform="matrix(0.9122 -0.4097 0.4097 0.9122 -23.1175 22.1314)" class="st0" width="7.4" height="7.4"/>
	
		<rect id="cube_3_" x="40.2" y="69.7" transform="matrix(0.9122 -0.4097 0.4097 0.9122 -26.2186 24.4259)" class="st0" width="7.4" height="7.4"/>
	
		<rect id="cube_4_" x="41.2" y="48.6" transform="matrix(0.9122 -0.4097 0.4097 0.9122 -17.4872 22.981)" class="st0" width="7.4" height="7.4"/>
	
		<rect id="cube_5_" x="45.1" y="56.7" transform="matrix(0.9122 -0.4097 0.4097 0.9122 -20.4591 25.2907)" class="st0" width="7.4" height="7.4"/>
	
		<rect id="cube_6_" x="49.2" y="45.1" transform="matrix(0.9122 -0.4097 0.4097 0.9122 -15.3537 25.9524)" class="st0" width="7.4" height="7.4"/>
	
		<rect id="cube_7_" x="19.7" y="48.6" transform="matrix(0.9122 -0.4097 0.4097 0.9122 -19.3668 14.1689)" class="st0" width="7.4" height="7.4"/>
	
		<rect id="cube_8_" x="23.4" y="56.7" transform="matrix(0.9122 -0.4097 0.4097 0.9122 -22.3714 16.4035)" class="st0" width="7.4" height="7.4"/>
	
		<rect id="cube_9_" x="27.2" y="65.5" transform="matrix(0.9122 -0.4097 0.4097 0.9122 -25.6388 18.7391)" class="st0" width="7.4" height="7.4"/>
	
		<rect id="cube_10_" x="31.6" y="73.6" transform="matrix(0.9122 -0.4097 0.4097 0.9122 -28.563 21.2443)" class="st0" width="7.4" height="7.4"/>
	
		<rect id="cube_11_" x="34.9" y="82.4" transform="matrix(0.9122 -0.4097 0.4097 0.9122 -31.8885 23.3829)" class="st0" width="7.4" height="7.4"/>
	
		<rect id="cube_12_" x="27.2" y="86.3" transform="matrix(0.9122 -0.4097 0.4097 0.9122 -34.1605 20.5651)" class="st0" width="7.4" height="7.4"/>
	
		<rect id="cube_13_" x="23.4" y="77.3" transform="matrix(0.9122 -0.4097 0.4097 0.9122 -30.8065 18.2224)" class="st0" width="7.4" height="7.4"/>
	
		<rect id="cube_14_" x="31.1" y="95" transform="matrix(0.9122 -0.4097 0.4097 0.9122 -37.3805 22.9241)" class="st0" width="7.4" height="7.4"/>
	<polygon id="corner" class="st0" points="10.6,43.6 13.2,42.8 16.2,48.8 12.9,50.5 	"/>
	<path id="corner_1_" class="st0" d="M15.2,41c0,0,3.3,3.4,8.9,2.3L18,48.1L15.2,41z"/>
	<polygon class="st0" points="25.6,43.1 29.5,41.5 29.9,42.3 26,44.5 	"/>
	<polygon id="corner_2_" class="st0" points="35.8,43.5 42.1,41.5 45.7,45.8 38.6,48.8 	"/>
	<path id="corner_3_" class="st0" d="M46,43.5c0,0,5,0.2,6.9-1.5l-5,3.1L46,43.5z"/>
	<polyline id="corner_4_" class="st0" points="55.9,42.4 58.3,48.1 60,43.6 55.5,42.4 	"/>
	<polygon id="corner_5_" class="st0" points="51.5,54.8 56.6,52.7 54.5,61.2 	"/>
	<polygon id="corner_6_" class="st0" points="47.3,67.6 52.9,65 50.8,74.9 	"/>
	<polygon id="corner_7_" class="st0" points="42.6,80.1 49.5,77.3 46.6,86 	"/>
	<polygon id="corner_8_" class="st0" points="37.9,92.4 45.7,90 42.6,98.7 41.8,101.1 	"/>
	<polygon id="corner_9_" class="st0" points="33.4,105.2 36.9,111.7 39.5,110.7 41.8,103.7 40.7,101.7 	"/>
	<polygon id="corner_10_" class="st0" points="37.6,113.7 38.6,115.7 39.5,113 	"/>
	<path id="corner_11_" class="st0" d="M31.8,115.7l4.4-1.4c0,0,2.5,3.4,0.5,6.1C36.7,120.5,34.5,125.6,31.8,115.7z"/>
	<polygon id="corner_12_" class="st0" points="29.5,106.7 30.9,114.3 35.2,113 32.4,105.9 	"/>
	<polygon id="corner_13_" class="st0" points="26.7,97.3 28.8,105.1 30.9,104 28.8,97.3 	"/>
	<polygon id="corner_14_" class="st0" points="24.1,88.6 25.7,95.5 27.1,95.1 	"/>
	<polygon id="corner_15_" class="st0" points="18.6,70.5 21,78.2 27.7,74.9 24.9,68.1 	"/>
	<polygon id="corner_16_" class="st0" points="16.2,60.8 17.6,69.2 24.1,66.2 20.9,59.6 	"/>
	<polygon id="corner_17_" class="st0" points="13.4,52.3 15.2,59.6 20.1,57.8 16.7,50.5 	"/>
</g>
<path id="ice_cream" d="M6.2,26.5c0,0-11.6,5.1-3,15.1s13.4-3.5,13.4-3.5s4.2,10.6,13.8-0.4c0,0-2.1,5.4,5.6,6.3
	c0,0,5.3,0.1,6.3-3.6c0,0,6.4,7.4,13.1-0.7c0,0,6.2,9.2,14.4,1s-4.4-14.2-4.4-14.2S64.1,10.2,48.5,3.1s-26.7,0-26.7,0
	S7.6,9.8,6.2,26.5z"/>
</svg>
