<?xml version="1.0" encoding="utf-8"?>
<!-- Generator: Adobe Illustrator 23.0.1, SVG Export Plug-In . SVG Version: 6.00 Build 0)  -->
<svg version="1.1" id="background" xmlns="http://www.w3.org/2000/svg" xmlns:xlink="http://www.w3.org/1999/xlink" x="0px" y="0px"
	 viewBox="0 0 71.6 124.5" style="enable-background:new 0 0 71.6 124.5;" xml:space="preserve">
<style type="text/css">
	.st0{stroke:#000000;stroke-miterlimit:10;}
	.st1{fill:none;stroke:#000000;stroke-miterlimit:10;}
	.st2{fill:#FFFFFF;stroke:#000000;stroke-miterlimit:10;}
	.st3{fill:#F4F4C0;stroke:#000000;stroke-miterlimit:10;}
	.st4{fill:#F9F8CE;stroke:#000000;stroke-miterlimit:10;}
	.st5{stroke:#FFFFFF;stroke-miterlimit:10;}
	.st6{fill:#E8E61B;stroke:#000000;stroke-miterlimit:10;}
	.st7{fill:#F15922;stroke:#000000;stroke-miterlimit:10;}
	.st8{fill:#ED2490;stroke:#000000;stroke-miterlimit:10;}
	.st9{fill:#EE2924;stroke:#000000;stroke-miterlimit:10;}
	.st10{fill:#6BCCE4;stroke:#000000;stroke-miterlimit:10;}
	.st11{fill:#129F49;stroke:#000000;stroke-miterlimit:10;}
	.st12{fill:#EF4829;stroke:#000000;stroke-miterlimit:10;}
	.st13{fill:#F04D23;stroke:#000000;stroke-miterlimit:10;}
	.st14{fill:#EF3B24;stroke:#000000;stroke-miterlimit:10;}
	.st15{fill:#33449B;stroke:#000000;stroke-miterlimit:10;}
	.st16{fill:#6CBE45;stroke:#000000;stroke-miterlimit:10;}
	.st17{fill:#66CCE9;stroke:#000000;stroke-miterlimit:10;}
	.st18{fill:#EE3024;stroke:#000000;stroke-miterlimit:10;}
	.st19{fill:#55B948;stroke:#000000;stroke-miterlimit:10;}
	.st20{fill:#3B2F90;stroke:#000000;stroke-miterlimit:10;}
	.st21{fill:#2AB34B;stroke:#000000;stroke-miterlimit:10;}
	.st22{fill:#312D85;stroke:#000000;stroke-miterlimit:10;}
	.st23{fill:#47B649;stroke:#000000;stroke-miterlimit:10;}
</style>
<path id="middle_paw" class="st0" d="M-437.2-85.8c0,0,6.4-5.7,8.9-10.7s11.4-10.4,17.9,0c0,0,4.4,7,6.8,8.2c0,0,12.6,12.1-0.7,18.4
	c0,0-6.1,0.1-7.2-0.9c0,0-8.4-4-13.5-0.1c0,0-10.6,5.4-13.9-3.2C-439-74.1-442-78.4-437.2-85.8z"/>
<path id="first_dot" class="st0" d="M-449.3-102.4c0,0-0.3-8.3,8-5.5c0,0,7,2.1,6,9.8c0,0-0.8,8.1-7.7,5.3
	C-443.1-92.8-449.3-94.2-449.3-102.4z"/>
<path id="second_dot" class="st0" d="M-436.4-118.8c0,0,4-9.2,11.4-2.1c0,0,6.4,6.4,1.7,13.7c0,0-3.6,5.8-9.7,1.2
	C-433-106.1-437.9-111.2-436.4-118.8z"/>
<path id="third_dot" class="st0" d="M-414-120.8c0,0,6-7.3,10.9,2.3c0,0,2.3,6.6-1.7,10.6c0,0-2.9,4.4-6.9,3.6c0,0-5-1.3-4.8-5.8
	C-416.5-110-418.5-115.1-414-120.8z"/>
<path id="forth_dot" class="st0" d="M-398.3-108.1c0,0,6.6-3.3,8.1,5.7c0,0-0.3,7.3-4.1,8.5c0,0-2.4,2.2-5.9,1.6
	c0,0-3.8-1.1-3.4-5.2C-403.5-97.4-405.1-104.1-398.3-108.1z"/>
<ellipse id="top_cake" class="st1" cx="-325.4" cy="-94.9" rx="43.4" ry="12.7"/>
<path id="chocolate_cake" class="st2" d="M-368.8-94.9l2.5,58.1c0,0,40.9,25,79.8,0c0,0,4.5-46.4,3.9-55.9"/>
<path id="icing_side" class="st0" d="M-368-77.9c0,0,3.4,32.6,9.1,2.4c0,0,4.1-14.3,8.2,0c0,0,6.1,14.7,9.8,3.2c0,0,3.3-6.6,4.5,0
	c0,0,6.1,36.4,8.6,0c0,0,3.3-5.3,8.6-0.8c0,0,7,25.4,14.3-1.6c0,0,4.5-1.6,4.9,0.8c0,0,8.6,51.1,13.9-2.5c0,0-0.1-12.7,3.2-7
	l0.2-10.5c0,0-9.2,9.5-19.6,8.6c0,0-29,3.4-41.7,0.7c0,0-24.2-4.5-24-9.3V-77.9z"/>
<ellipse id="top_icing_cake" class="st0" cx="-325.7" cy="-94.9" rx="43.4" ry="12.7"/>
<path id="candle" class="st3" d="M-331.9-94.4v-26.3c0,0,2.9,3.1,5.5,0v27.3C-326.4-93.4-330.4-91.7-331.9-94.4z"/>
<ellipse id="candle_tip" class="st4" cx="-329.2" cy="-121.2" rx="2.7" ry="1.6"/>
<rect id="fire_string" x="-329.4" y="-122.3" class="st1" width="0.5" height="2"/>
<path id="fire" class="st0" d="M-331-124.5c0,0-0.2,2.4,1.3,2.2c0,0,1.8,1.4,3-2.2c0,0-1.7-2.6-2.5-5.6
	C-329.3-130.1-331-128.9-331-124.5z"/>
<path id="flower_patals" class="st5" d="M-185.3-48.9c0,0,5.5,6.1,5.9,15.4c0,0,1.6,5.2,2.5,6.2c0,0,6.2,16.2-4.2,24.8
	c0,0-10,8-18.7-1.8c0,0-7.3-3.6-5.9-25.6l0.4-4.3c0,0-4,12.2,0,24c0,0-5,2.7-10.7-0.6c0,0-3.1-9-4.4-11.6c0,0,18.7-9.8,23.9-26.5
	c0,0-10.5,23.4-28.3,27.1c0,0-4.3,1.3-9.5-3.9c0,0-1-2.1-1.8-2.1c0,0-1.6-4-0.9-8.6c0,0,1.8-0.1,0.7-4c0,0,1-3.9,5.6-6.4
	c0,0,14.2-4.3,27.9-9.5c0,0-27.4,8.6-34.4,11.4c0,0-3.8,0-5.1-2.2c0,0-3.4-0.3-4.4-5.5c0,0,0.9-2.1,0-3.3c0,0,1-4.2,0.6-5.5
	c0,0,0.1-6.5,4.6-8.3c0,0,14.3,10.1,37.9,9.3c0,0-34.8-3.2-40-11.8c0,0-0.7,0.7-1.2-4c0,0-2.7-4.3-0.1-6.4c0,0,4.9-3.9,7.4-4.4
	c0,0,2.8-2.8,9.3-2.7c0,0,2.7-3.9,10.2,0.6c0,0,13.2,2.4,18.5,17.3c0,0-5.9-18.1-28.2-20.5c0,0-4.7-14.5,4.9-20.8
	c0,0,1.8-2.1,8.2,1.2c0,0,0.3,2.5,3,8.3c0,0,19.9,21.5,18.2,28.7c0,0,0.7-5.8-9.2-19.3c0,0-7.7-6.8-8.3-11c0,0-3.8-9.8,7.2-15.1
	c0,0,3.8-2.1,5.7,0c0,0,5-3.9,14.7,2.2c0,0,7.4,4.6,7.1,10.1c0,0-16.2,17-10.8,33.1c0,0-5.1-17.4,12-33.1c0,0,9.3-7.3,18-3.7
	c8.7,3.6,8.3,15.6,8.3,15.6s-1,9.3-10.1,14.4c0,0-16.3,7.1-19.3,13.3c0,0,7.1-9,19-12.3c0,0,5.2-4.6,8-7.1c0,0,8.9-4,16.2,2.8
	c7.3,6.8,2.4,10.1,2.4,10.1s4.2,4.4-5.2,18c0,0-16.9-16.9-39.2-5.6c0,0,24.2-11.7,40.2,8.3c0,0,1.9,1.6,2.7,4.7c0,0-0.7,2.4,0.3,3.6
	c0,0,1.5,2.2-0.3,3c0,0-0.3,0.6-0.2,1.8c0,0.2,0,0.5,0.1,0.8c0.3,1.6,0.3,3-1.9,4c0,0,2.2,1.8-1.8,6.7c0,0-1.5,2.5-4,3.9
	c0,0-6.4,2.1-11.3,1.2c0,0-16.9-27-25.5-30.4c0,0,18.8,16,25.1,31.3c0,0-1,12.3-10.8,11.1c0,0-9.2-1-9.9-3.1c0,0-1.2-7.7-2.5-14.2
	l-1.8-4.3C-178.7-34.1-181.9-47.4-185.3-48.9z"/>
<circle id="flower_center" class="st2" cx="-190.3" cy="-61.2" r="13.4"/>
<ellipse id="circle_mirror" class="st1" cx="-88.1" cy="-79" rx="25.2" ry="28.7"/>
<path id="holding_mirror" class="st0" d="M-88.6-44.8v7.5c0,0-8.1-0.3-10.9,6.5H-76c0,0-1.7-5.8-10-6l-1.2-0.2l0.3-7.8H-88.6z"/>
<ellipse id="big_mirror_circle" class="st2" cx="-88.1" cy="-78.6" rx="24.6" ry="28"/>
<path id="big_mirror_cut" class="st0" d="M-103-77.6c0,0,11.3-13.9,19.6-19.6C-83.4-97.2-95.2-82.8-103-77.6z"/>
<path id="mirror_cut" class="st0" d="M-104.7-86c0,0,8.2-10,13.2-12.9C-91.5-98.8-99.3-88.6-104.7-86z"/>
<path id="mirror_holder" class="st1" d="M-113.3-79h-4.7c0,0-3.3,32.1,30.2,33.2c0,0,27.8,1.5,29.5-33.2h-4.6"/>
<ellipse id="circle_donut" class="st2" cx="-6" cy="-69.2" rx="41.8" ry="43.8"/>
<path id="icing" class="st0" d="M-43.5-80c0,0-2.9-11.7,6.6-15.6c0,0,7.8-1.4,11-12.1c0,0,2.4-3.1,4.9-2.3c0,0,13.7,4.9,26.9,1.2
	c0,0,12.4-1.2,12.4,7.7c0,0,1.4,13.9,10.8,15.3c0,0,7.5,2.1,3.3,11.6c0,0-2.9,10.6,1.3,15.1c0,0,1.4,11.6-5.8,11.8
	c0,0-9.3,2-11.6,13.7c0,0-3.1,4.1-6.6,3.5c0,0-13.2-0.4-17.7,3.3c0,0-8,2.1-10.2-2.3c0,0-8.2-9.7-17.1-8.7c0,0-4.3-4.1-3.9-7.2
	c0,0,0-13.7-8.2-17.7c0,0-2.9-3.7,1.2-6.3C-46.2-69.2-40.2-73.9-43.5-80z"/>
<path id="inside_donut" class="st2" d="M-22.2-78.7c0,0,5.2-3.5,8.1-3.5c0,0,5.6-4.3,11-1.9L2-81.8c0,0,6,2.5,7.2,7.6
	c0,0,3.7,7.2,0,14.9c0,0-3.7,5.8-8.3,5.4c0,0-3.5-2.3-7.6,1.4c0,0-5.6,2.9-10.2-3.1c0,0-2.5-3.7-5.4-5.6c0,0-1.2-2.1-1.4-7.2
	C-23.6-68.3-26.1-73.5-22.2-78.7z"/>
<path id="smal_circle" class="st2" d="M-17.3-67c0,0-4.2-9.2,5.9-13c0,0,13-1.3,15,6.5c0,0,5,9-4.6,14.8C-1-58.6-11.5-51.1-17.3-67z
	"/>
<g id="sprikles_29_">
	<path id="sprikles" class="st6" d="M-20.3-95.9c0,0,2.4-3.1,6-1.3c0,0,0.5,0.6,0,1.1c0,0-3.6-1.3-4.9,1.1
		C-19.2-95.1-20.6-94.8-20.3-95.9z"/>
	<path id="sprikles_1_" class="st7" d="M-11.6-97.3c0,0,2.4-3.1,6-1.3c0,0,0.5,0.6,0,1.1c0,0-3.6-1.3-4.9,1.1
		C-10.4-96.5-11.9-96.1-11.6-97.3z"/>
	<path id="sprikles_2_" class="st8" d="M-12.2-93.4c0,0,3.9-0.5,5.2,3.3c0,0-0.1,0.7-0.7,0.7c0,0-1.5-3.5-4.2-2.7
		C-11.9-92-13.2-92.8-12.2-93.4z"/>
	<path id="sprikles_3_" class="st9" d="M-19.8-93.4c0,0,3.8,0.7,4,4.7c0,0-0.3,0.7-0.9,0.5c0,0-0.5-3.8-3.2-3.8
		C-19.9-92-21-93.1-19.8-93.4z"/>
	<path id="sprikles_4_" class="st2" d="M-21-85c0,0-3.8,1-5.6-2.6c0,0,0-0.7,0.6-0.8c0,0,2,3.2,4.5,2.2C-21.4-86.3-20-85.7-21-85z"
		/>
	<path id="sprikles_5_" class="st6" d="M-36.8-91.5c0,0,3.1,2.3,1.5,6c0,0-0.6,0.5-1.1,0c0,0,1.2-3.6-1.2-4.9
		C-37.6-90.3-38-91.8-36.8-91.5z"/>
	<path id="sprikles_6_" class="st10" d="M-35.7-80.2c0,0,2.4-3.1,6-1.3c0,0,0.5,0.6,0,1.1c0,0-3.6-1.3-4.9,1.1
		C-34.5-79.5-36-79.1-35.7-80.2z"/>
	<path id="sprikles_7_" class="st11" d="M-26.1-76.7c0,0-3.4,1.9-6.1-1.2c0,0-0.2-0.7,0.4-1c0,0,2.7,2.6,4.9,1
		C-26.9-77.8-25.4-77.6-26.1-76.7z"/>
	<path id="sprikles_8_" class="st6" d="M-31.5-66.8c0,0-3.5-1.6-2.7-5.6c0,0,0.4-0.6,1-0.2c0,0-0.5,3.8,2.2,4.5
		C-31-68.1-30.3-66.8-31.5-66.8z"/>
	<path id="sprikles_9_" class="st12" d="M-37.9-69.8c0,0,3.4,2,2.2,5.8c0,0-0.5,0.6-1,0.1c0,0,0.8-3.7-1.7-4.7
		C-38.5-68.6-39.1-70-37.9-69.8z"/>
	<path id="sprikles_10_" class="st2" d="M-32.1-58.1c0,0-3.3,2-6.1-0.9c0,0-0.2-0.7,0.4-1c0,0,2.8,2.5,5,0.8
		C-32.9-59.3-31.4-59.1-32.1-58.1z"/>
	<path id="sprikles_11_" class="st13" d="M-27-56.8c0,0,3.2-2.2,6.2,0.5c0,0,0.3,0.7-0.3,1c0,0-3-2.3-5-0.4
		C-26.1-55.8-27.6-55.8-27-56.8z"/>
	<path id="sprikles_12_" class="st14" d="M-33.7-47.4c0,0-2.8-2.8-0.6-6.2c0,0,0.6-0.4,1,0.1c0,0-1.8,3.4,0.4,5
		C-32.8-48.5-32.6-47-33.7-47.4z"/>
	<path id="sprikles_13_" class="st15" d="M-28.2-44.5c0,0-1.6-3.5,1.6-6c0,0,0.7-0.2,0.9,0.5c0,0-2.8,2.5-1.3,4.8
		C-27-45.1-27.3-43.7-28.2-44.5z"/>
	<path id="sprikles_14_" class="st2" d="M-21.5-39.9c0,0,0.4-3.9,4.4-4.3c0,0,0.7,0.2,0.6,0.9c0,0-3.7,0.7-3.6,3.5
		C-20.1-39.9-21.1-38.8-21.5-39.9z"/>
	<path id="sprikles_15_" class="st16" d="M-8.3-46.7c0,0,3.5,1.6,2.7,5.6c0,0-0.5,0.6-1,0.2c0,0,0.5-3.8-2.1-4.5
		C-8.8-45.4-9.5-46.7-8.3-46.7z"/>
	<path id="sprikles_16_" class="st17" d="M-10.4-36c0,0,2.4-3.1,6-1.3c0,0,0.5,0.6,0,1.1c0,0-3.6-1.3-4.9,1.1
		C-9.2-35.2-10.7-34.8-10.4-36z"/>
	<path id="sprikles_17_" class="st6" d="M5.3-42.8c0,0-0.6-3.9,3.1-5.3c0,0,0.7,0,0.8,0.7c0,0-3.4,1.7-2.6,4.3
		C6.6-43.1,5.9-41.8,5.3-42.8z"/>
	<path id="sprikles_18_" class="st2" d="M18.4-54c0,0,3.2,2.2,1.7,6c0,0-0.5,0.5-1.1,0.1c0,0,1.2-3.6-1.3-4.8
		C17.7-52.9,17.2-54.3,18.4-54z"/>
	<path id="sprikles_19_" class="st18" d="M20.5-56.3c0,0,2.4-3.1,6-1.3c0,0,0.5,0.6,0,1.1c0,0-3.6-1.3-4.9,1.1
		C21.7-55.6,20.2-55.2,20.5-56.3z"/>
	<path id="sprikles_20_" class="st19" d="M15.5-59.6c0,0,2.4-3.1,6-1.3c0,0,0.5,0.6,0,1.1c0,0-3.6-1.3-4.9,1.1
		C16.6-58.8,15.2-58.4,15.5-59.6z"/>
	<path id="sprikles_21_" class="st6" d="M19.9-72c0,0,3.9,0.5,4.2,4.5c0,0-0.3,0.7-0.9,0.5c0,0-0.6-3.7-3.4-3.7
		C19.8-70.6,18.7-71.6,19.9-72z"/>
	<path id="sprikles_22_" class="st20" d="M14.2-73.7c0,0,3.6,1.5,2.9,5.5c0,0-0.4,0.6-1,0.3c0,0,0.3-3.8-2.4-4.4
		C13.8-72.4,13.1-73.7,14.2-73.7z"/>
	<path id="sprikles_23_" class="st2" d="M17.6-77.9c0,0,0-3.9,4-4.8c0,0,0.7,0.2,0.6,0.8c0,0-3.6,1.1-3.2,3.8
		C19-78,18.1-76.8,17.6-77.9z"/>
	<path id="sprikles_24_" class="st21" d="M13.8-91c0,0,3.8,0.6,4.1,4.7c0,0-0.3,0.7-0.9,0.5c0,0-0.5-3.8-3.3-3.8
		C13.7-89.6,12.7-90.7,13.8-91z"/>
	<path id="sprikles_25_" class="st6" d="M4.3-88.6c0,0,2.4-3.1,6-1.3c0,0,0.5,0.6,0,1.1c0,0-3.6-1.3-4.9,1.1
		C5.4-87.8,4-87.5,4.3-88.6z"/>
	<path id="sprikles_26_" class="st22" d="M1.1-97.3c0,0,2.4-3.1,6-1.3c0,0,0.5,0.6,0,1.1c0,0-3.6-1.3-4.9,1.1
		C2.3-96.5,0.9-96.1,1.1-97.3z"/>
	<path id="sprikles_27_" class="st2" d="M7.2-104.8c0,0,3.7,1.2,3.4,5.2c0,0-0.4,0.7-1,0.4c0,0,0-3.8-2.7-4.2
		C6.9-103.4,6-104.6,7.2-104.8z"/>
	<path id="sprikles_28_" class="st23" d="M-3.4-95.7c0,0,3.9,0.2,4.5,4.2c0,0-0.2,0.7-0.9,0.6c0,0-0.9-3.7-3.7-3.4
		C-3.4-94.3-4.5-95.2-3.4-95.7z"/>
</g>
<polygon id="bottom_lipstick" class="st0" points="59.3,-59.5 59.3,-23.9 78.9,-23.9 79.3,-59.5 "/>
<path id="center_of_lipstick" class="st1" d="M61.5-61.9v-23.6c0,0,5,6.5,16,0v23.6"/>
<path id="lipstick" class="st0" d="M63.6-99.8v14.3c0,0,4.7,1.7,10.8,0c0,0,0.6-18.8-2-21.4C72.4-106.9,70.3-101.5,63.6-99.8z"/>
<path id="lipstick_top" class="st0" d="M63.6-101.4c0,0,3-10.3,7.2-8.2C70.7-109.6,72.9-106.3,63.6-101.4z"/>
<path id="outside_mirror" class="st0" d="M124.1-62.2v3h-7c0,0-26.5-22.3,0-45.9c0,0,19.3-14,37,5.3c0,0,15.6,17-0.8,35.8l-4.6,4.9
	h-7.2l-0.1-2.7c0,0,25.3-13.7,5.9-36.7c0,0-13.2-11.2-28.2-0.2s-4.8,29.4-4.8,29.4S120-62.9,124.1-62.2z"/>
<path id="bottom_mirror" class="st0" d="M125.9-61.8v2.5h14v-2.5C139.8-61.8,132.3-58,125.9-61.8z"/>
<ellipse id="blush" class="st0" cx="132.9" cy="-46.3" rx="21.9" ry="10.9"/>
<path id="mirror_line" class="st1" d="M110.2-42c0,0,6.9,8.8,20,9c0,0,16,2.3,25.1-8"/>
<path id="bottom_mirror_1_" class="st0" d="M116.3-57.5h3.5c0,0-7.9,2.4-10.6,8.3c0,0-7.2,17.6,23.6,18.4s23.6-19.9,23.6-19.9
	s-5.3-5.8-10.1-6.8h3.3c0,0,24.6,9.5,6.7,24.7c0,0-9.1,6.4-18,6.1c0,0-14,1.2-21.1-2s-10.5-4.6-12.4-8.6
	C104.8-37.4,95.5-47.9,116.3-57.5z"/>
<path id="bottom_line" class="st1" d="M107.6-31.7c0,0,25.2,18.3,50.1,0C157.8-31.7,133.5-13.6,107.6-31.7z"/>
<path id="glass" class="st0" d="M249.6-123.8L286-86.9c0,0-19,35.6-42.8,32.3c0,0-8-0.5-14.5-6.9l-23,23.3l8.8,8.5c0,0,2.3,2,1,4.1
	c0,0-1.6,3.6-5.4,1.3c-3.8-2.3-23.4-23.8-23.4-23.8s-1.5-2.5,1-4.2c0,0,1.6-1.9,3.6-0.2l9.9,9.6l23.4-22.7c0,0-16.6-15.4-0.2-37.1
	C224.4-102.6,243.2-122.1,249.6-123.8z"/>
<path id="inside_glass" class="st2" d="M249.1-114.8L278-86c0,0-21.5,35.2-41,22.3s-12.3-26.5-12.3-26.5S229-103,249.1-114.8z"/>
<path id="wine" class="st0" d="M233.9-98.6c0,0,8.2,6.6,18.7,7.2s22.3,6.9,22.3,6.9s-15.1,19.3-28.8,19
	c-13.8-0.3-16.4-12.8-16.4-12.8S225.7-85,233.9-98.6z"/>
<path id="left_heart" class="st0" d="M217.3,44.8c0,0,2.9-19,40.6-28.8l3.3,20l-23.9,2.9l-1,25.2L236,69l-33.8-11.5V93l-36.7-6.9
	v40.3c0,0-37.6-27.2-39.3-59.3c0,0-5.9-38,33.1-48.8s51.1,15.1,51.1,15.1L217.3,44.8z"/>
<path id="right_heart" class="st0" d="M266.4,15.6c0,0,41-1.6,42.6,49.2s-89.8,93.7-89.8,93.7L177,132.9V97.2l38,1.6l-7.5-34.1
	L243,76.6l2.8-30.8l25.6-1L266.4,15.6z"/>
<g id="cone">
	
		<rect id="cube" x="29" y="46.2" transform="matrix(0.9122 -0.4097 0.4097 0.9122 -17.5519 17.772)" class="st0" width="7.4" height="7.4"/>
	
		<rect id="cube_1_" x="32.9" y="54.8" transform="matrix(0.9122 -0.4097 0.4097 0.9122 -20.7509 20.1204)" class="st0" width="7.4" height="7.4"/>
	
		<rect id="cube_2_" x="36.8" y="63.5" transform="matrix(0.9122 -0.4097 0.4097 0.9122 -23.9737 22.4863)" class="st0" width="7.4" height="7.4"/>
	
		<rect id="cube_3_" x="40.6" y="71.9" transform="matrix(0.9122 -0.4097 0.4097 0.9122 -27.0775 24.7648)" class="st0" width="7.4" height="7.4"/>
	
		<rect id="cube_4_" x="41.6" y="50.8" transform="matrix(0.9122 -0.4097 0.4097 0.9122 -18.3513 23.3235)" class="st0" width="7.4" height="7.4"/>
	
		<rect id="cube_5_" x="45.4" y="58.9" transform="matrix(0.9122 -0.4097 0.4097 0.9122 -21.3233 25.6228)" class="st0" width="7.4" height="7.4"/>
	
		<rect id="cube_6_" x="49.6" y="47.3" transform="matrix(0.9122 -0.4097 0.4097 0.9122 -16.2139 26.3008)" class="st0" width="7.4" height="7.4"/>
	
		<rect id="cube_7_" x="20" y="50.8" transform="matrix(0.9122 -0.4097 0.4097 0.9122 -20.243 14.4953)" class="st0" width="7.4" height="7.4"/>
	
		<rect id="cube_8_" x="23.8" y="58.9" transform="matrix(0.9122 -0.4097 0.4097 0.9122 -23.2243 16.7512)" class="st0" width="7.4" height="7.4"/>
	
		<rect id="cube_9_" x="27.6" y="67.6" transform="matrix(0.9122 -0.4097 0.4097 0.9122 -26.4792 19.0734)" class="st0" width="7.4" height="7.4"/>
	
		<rect id="cube_10_" x="31.9" y="75.8" transform="matrix(0.9122 -0.4097 0.4097 0.9122 -29.4273 21.5639)" class="st0" width="7.4" height="7.4"/>
	
		<rect id="cube_11_" x="35.3" y="84.5" transform="matrix(0.9122 -0.4097 0.4097 0.9122 -32.7149 23.7184)" class="st0" width="7.4" height="7.4"/>
	
		<rect id="cube_12_" x="27.6" y="88.4" transform="matrix(0.9122 -0.4097 0.4097 0.9122 -35.0006 20.8993)" class="st0" width="7.4" height="7.4"/>
	
		<rect id="cube_13_" x="23.8" y="79.4" transform="matrix(0.9122 -0.4097 0.4097 0.9122 -31.637 18.5539)" class="st0" width="7.4" height="7.4"/>
	
		<rect id="cube_14_" x="31.5" y="97.1" transform="matrix(0.9122 -0.4097 0.4097 0.9122 -38.2275 23.2548)" class="st0" width="7.4" height="7.4"/>
	<polygon id="corner" class="st0" points="11,45.8 13.6,44.9 16.5,51 13.2,52.7 	"/>
	<path id="corner_1_" class="st0" d="M15.5,43.1c0,0,3.3,3.4,8.9,2.3l-6.2,4.9L15.5,43.1z"/>
	<polygon class="st0" points="25.9,45.2 29.8,43.7 30.3,44.4 26.4,46.7 	"/>
	<polygon id="corner_2_" class="st0" points="36.1,45.7 42.4,43.7 46.1,47.9 39,51 	"/>
	<path id="corner_3_" class="st0" d="M46.4,45.7c0,0,5,0.2,6.9-1.5l-5,3.1L46.4,45.7z"/>
	<polyline id="corner_4_" class="st0" points="56.3,44.6 58.7,50.3 60.3,45.7 55.9,44.6 	"/>
	<polygon id="corner_5_" class="st0" points="51.8,57 57,54.8 54.9,63.3 	"/>
	<polygon id="corner_6_" class="st0" points="47.7,69.8 53.3,67.2 51.1,77.1 	"/>
	<polygon id="corner_7_" class="st0" points="43,82.3 49.8,79.4 46.9,88.2 	"/>
	<polygon id="corner_8_" class="st0" points="38.3,94.5 46.1,92.1 43,100.8 42.2,103.3 	"/>
	<polygon id="corner_9_" class="st0" points="33.8,107.3 37.2,113.9 39.8,112.9 42.2,105.9 41.1,103.9 	"/>
	<polygon id="corner_10_" class="st0" points="38,115.9 39,117.9 39.8,115.1 	"/>
	<path id="corner_11_" class="st0" d="M32.1,117.9l4.4-1.4c0,0,2.5,3.4,0.5,6.1C37,122.6,34.8,127.8,32.1,117.9z"/>
	<polygon id="corner_12_" class="st0" points="29.8,108.9 31.3,116.5 35.6,115.1 32.7,108.1 	"/>
	<polygon id="corner_13_" class="st0" points="27,99.4 29.1,107.2 31.3,106.2 29.1,99.4 	"/>
	<polygon id="corner_14_" class="st0" points="24.4,90.8 26.1,97.7 27.5,97.2 	"/>
	<polygon id="corner_15_" class="st0" points="19,72.6 21.4,80.4 28.1,77.1 25.3,70.3 	"/>
	<polygon id="corner_16_" class="st0" points="16.5,63 18,71.3 24.4,68.4 21.3,61.7 	"/>
	<polygon id="corner_17_" class="st0" points="13.7,54.5 15.5,61.7 20.5,59.9 17.1,52.7 	"/>
</g>
<g id="ice_cream_6_">
	<circle id="ice_cream" cx="8.6" cy="35.1" r="8.6"/>
	<circle id="ice_cream_1_" cx="22.9" cy="36.1" r="7.5"/>
	<circle id="ice_cream_2_" cx="35.9" cy="36.8" r="7.3"/>
	<ellipse id="ice_cream_3_" cx="48.5" cy="37.2" rx="7.4" ry="6.4"/>
	<circle id="ice_cream_4_" cx="62.8" cy="35.4" r="8.8"/>
	<path id="ice_cream_5_" d="M6.1,27.5c0,0,0-21.4,25.2-27.4c0,0,20.9-3.4,31.5,17.8c0,0,3.2,5.3,2.4,9.5l-18.8,8.8L7.2,34.2
		L6.1,27.5z"/>
</g>
</svg>
