<?xml version="1.0" encoding="utf-8"?>
<!-- Generator: Adobe Illustrator 23.0.1, SVG Export Plug-In . SVG Version: 6.00 Build 0)  -->
<svg version="1.1" id="background" xmlns="http://www.w3.org/2000/svg" xmlns:xlink="http://www.w3.org/1999/xlink" x="0px" y="0px"
	 viewBox="0 0 21 87" style="enable-background:new 0 0 21 87;" xml:space="preserve">
<style type="text/css">
	.st0{stroke:#000000;stroke-miterlimit:10;}
	.st1{fill:none;stroke:#000000;stroke-miterlimit:10;}
	.st2{fill:#FFFFFF;stroke:#000000;stroke-miterlimit:10;}
	.st3{fill:#F4F4C0;stroke:#000000;stroke-miterlimit:10;}
	.st4{fill:#F9F8CE;stroke:#000000;stroke-miterlimit:10;}
	.st5{stroke:#FFFFFF;stroke-miterlimit:10;}
	.st6{fill:#E8E61B;stroke:#000000;stroke-miterlimit:10;}
	.st7{fill:#F15922;stroke:#000000;stroke-miterlimit:10;}
	.st8{fill:#ED2490;stroke:#000000;stroke-miterlimit:10;}
	.st9{fill:#EE2924;stroke:#000000;stroke-miterlimit:10;}
	.st10{fill:#6BCCE4;stroke:#000000;stroke-miterlimit:10;}
	.st11{fill:#129F49;stroke:#000000;stroke-miterlimit:10;}
	.st12{fill:#EF4829;stroke:#000000;stroke-miterlimit:10;}
	.st13{fill:#F04D23;stroke:#000000;stroke-miterlimit:10;}
	.st14{fill:#EF3B24;stroke:#000000;stroke-miterlimit:10;}
	.st15{fill:#33449B;stroke:#000000;stroke-miterlimit:10;}
	.st16{fill:#6CBE45;stroke:#000000;stroke-miterlimit:10;}
	.st17{fill:#66CCE9;stroke:#000000;stroke-miterlimit:10;}
	.st18{fill:#EE3024;stroke:#000000;stroke-miterlimit:10;}
	.st19{fill:#55B948;stroke:#000000;stroke-miterlimit:10;}
	.st20{fill:#3B2F90;stroke:#000000;stroke-miterlimit:10;}
	.st21{fill:#2AB34B;stroke:#000000;stroke-miterlimit:10;}
	.st22{fill:#312D85;stroke:#000000;stroke-miterlimit:10;}
	.st23{fill:#47B649;stroke:#000000;stroke-miterlimit:10;}
</style>
<path id="middle_paw" class="st0" d="M-496,24.6c0,0,6.4-5.7,8.9-10.7s11.4-10.4,17.9,0c0,0,4.4,7,6.8,8.2c0,0,12.6,12.1-0.7,18.4
	c0,0-6.1,0.1-7.2-0.9c0,0-8.4-4-13.5-0.1c0,0-10.6,5.4-13.9-3.2C-497.7,36.3-500.8,32-496,24.6z"/>
<path id="first_dot" class="st0" d="M-508.1,8c0,0-0.3-8.3,8-5.5c0,0,7,2.1,6,9.8c0,0-0.8,8.1-7.7,5.3
	C-501.8,17.6-508.1,16.1-508.1,8z"/>
<path id="second_dot" class="st0" d="M-495.2-8.4c0,0,4-9.2,11.4-2.1c0,0,6.4,6.4,1.7,13.7c0,0-3.6,5.8-9.7,1.2
	C-491.7,4.3-496.7-0.8-495.2-8.4z"/>
<path id="third_dot" class="st0" d="M-472.8-10.4c0,0,6-7.3,10.9,2.3c0,0,2.3,6.6-1.7,10.6c0,0-2.9,4.4-6.9,3.6c0,0-5-1.3-4.8-5.8
	C-475.3,0.3-477.3-4.8-472.8-10.4z"/>
<path id="forth_dot" class="st0" d="M-457,2.3c0,0,6.6-3.3,8.1,5.7c0,0-0.3,7.3-4.1,8.5c0,0-2.4,2.2-5.9,1.6c0,0-3.8-1.1-3.4-5.2
	C-462.3,12.9-463.8,6.3-457,2.3z"/>
<ellipse id="top_cake" class="st1" cx="-384.2" cy="15.4" rx="43.4" ry="12.7"/>
<path id="chocolate_cake" class="st2" d="M-427.5,15.4l2.5,58.1c0,0,40.9,25,79.8,0c0,0,4.5-46.4,3.9-55.9"/>
<path id="icing_side" class="st0" d="M-426.8,32.5c0,0,3.4,32.6,9.1,2.4c0,0,4.1-14.3,8.2,0c0,0,6.1,14.7,9.8,3.2c0,0,3.3-6.6,4.5,0
	c0,0,6.1,36.4,8.6,0c0,0,3.3-5.3,8.6-0.8c0,0,7,25.4,14.3-1.6c0,0,4.5-1.6,4.9,0.8c0,0,8.6,51.1,13.9-2.5c0,0-0.1-12.7,3.2-7
	l0.2-10.5c0,0-9.2,9.5-19.6,8.6c0,0-29,3.4-41.7,0.7c0,0-24.2-4.5-24-9.3V32.5z"/>
<ellipse id="top_icing_cake" class="st0" cx="-384.5" cy="15.4" rx="43.4" ry="12.7"/>
<path id="candle" class="st3" d="M-390.7,16v-26.3c0,0,2.9,3.1,5.5,0V17C-385.2,17-389.1,18.7-390.7,16z"/>
<ellipse id="candle_tip" class="st4" cx="-387.9" cy="-10.8" rx="2.7" ry="1.6"/>
<rect id="fire_string" x="-388.2" y="-12" class="st1" width="0.5" height="2"/>
<path id="fire" class="st0" d="M-389.8-14.1c0,0-0.2,2.4,1.3,2.2c0,0,1.8,1.4,3-2.2c0,0-1.7-2.6-2.5-5.6
	C-388-19.7-389.7-18.5-389.8-14.1z"/>
<path id="flower_patals" class="st5" d="M-244.1,61.5c0,0,5.5,6.1,5.9,15.4c0,0,1.6,5.2,2.5,6.2c0,0,6.2,16.2-4.2,24.8
	c0,0-10,8-18.7-1.8c0,0-7.3-3.6-5.9-25.6l0.4-4.3c0,0-4,12.2,0,24c0,0-5,2.7-10.7-0.6c0,0-3.1-9-4.4-11.6c0,0,18.7-9.8,23.9-26.5
	c0,0-10.5,23.4-28.3,27.1c0,0-4.3,1.3-9.5-3.9c0,0-1-2.1-1.8-2.1c0,0-1.6-4-0.9-8.6c0,0,1.8-0.1,0.7-4c0,0,1-3.9,5.6-6.4
	c0,0,14.2-4.3,27.9-9.5c0,0-27.4,8.6-34.4,11.4c0,0-3.8,0-5.1-2.2c0,0-3.4-0.3-4.4-5.5c0,0,0.9-2.1,0-3.3c0,0,1-4.2,0.6-5.5
	c0,0,0.1-6.5,4.6-8.3c0,0,14.3,10.1,37.9,9.3c0,0-34.8-3.2-40-11.8c0,0-0.7,0.7-1.2-4c0,0-2.7-4.3-0.1-6.4c0,0,4.9-3.9,7.4-4.4
	c0,0,2.8-2.8,9.3-2.7c0,0,2.7-3.9,10.2,0.6c0,0,13.2,2.4,18.5,17.3c0,0-5.9-18.1-28.2-20.5c0,0-4.7-14.5,4.9-20.8
	c0,0,1.8-2.1,8.2,1.2c0,0,0.3,2.5,3,8.3c0,0,19.9,21.5,18.2,28.7c0,0,0.7-5.8-9.2-19.3c0,0-7.7-6.8-8.3-11c0,0-3.8-9.8,7.2-15.1
	c0,0,3.8-2.1,5.7,0c0,0,5-3.9,14.7,2.2c0,0,7.4,4.6,7.1,10.1c0,0-16.2,17-10.8,33.1c0,0-5.1-17.4,12-33.1c0,0,9.3-7.3,18-3.7
	c8.7,3.6,8.3,15.6,8.3,15.6s-1,9.3-10.1,14.4c0,0-16.3,7.1-19.3,13.3c0,0,7.1-9,19-12.3c0,0,5.2-4.6,8-7.1c0,0,8.9-4,16.2,2.8
	c7.3,6.8,2.4,10.1,2.4,10.1s4.2,4.4-5.2,18c0,0-16.9-16.9-39.2-5.6c0,0,24.2-11.7,40.2,8.3c0,0,1.9,1.6,2.7,4.7c0,0-0.7,2.4,0.3,3.6
	c0,0,1.5,2.2-0.3,3c0,0-0.3,0.6-0.2,1.8c0,0.2,0,0.5,0.1,0.8c0.3,1.6,0.3,3-1.9,4c0,0,2.2,1.8-1.8,6.7c0,0-1.5,2.5-4,3.9
	c0,0-6.4,2.1-11.3,1.2c0,0-16.9-27-25.5-30.4c0,0,18.8,16,25.1,31.3c0,0-1,12.3-10.8,11.1c0,0-9.2-1-9.9-3.1c0,0-1.2-7.7-2.5-14.2
	l-1.8-4.3C-237.4,76.3-240.7,63-244.1,61.5z"/>
<circle id="flower_center" class="st2" cx="-249.1" cy="49.2" r="13.4"/>
<ellipse id="circle_mirror" class="st1" cx="-146.8" cy="31.4" rx="25.2" ry="28.7"/>
<path id="holding_mirror" class="st0" d="M-147.3,65.6v7.5c0,0-8.1-0.3-10.9,6.5h23.4c0,0-1.7-5.8-10-6l-1.2-0.2l0.3-7.8H-147.3z"/>
<ellipse id="big_mirror_circle" class="st2" cx="-146.8" cy="31.7" rx="24.6" ry="28"/>
<path id="big_mirror_cut" class="st0" d="M-161.8,32.7c0,0,11.3-13.9,19.6-19.6C-142.2,13.2-154,27.5-161.8,32.7z"/>
<path id="mirror_cut" class="st0" d="M-163.5,24.4c0,0,8.2-10,13.2-12.9C-150.2,11.6-158.1,21.8-163.5,24.4z"/>
<path id="mirror_holder" class="st1" d="M-172,31.4h-4.7c0,0-3.3,32.1,30.2,33.2c0,0,27.8,1.5,29.5-33.2h-4.6"/>
<ellipse id="circle_donut" class="st2" cx="-64.8" cy="41.1" rx="41.8" ry="43.8"/>
<path id="icing" class="st0" d="M-102.3,30.3c0,0-2.9-11.7,6.6-15.6c0,0,7.8-1.4,11-12.1c0,0,2.4-3.1,4.9-2.3c0,0,13.7,4.9,26.9,1.2
	c0,0,12.4-1.2,12.4,7.7c0,0,1.4,13.9,10.8,15.3c0,0,7.5,2.1,3.3,11.6c0,0-2.9,10.6,1.3,15.1c0,0,1.4,11.6-5.8,11.8
	c0,0-9.3,2-11.6,13.7c0,0-3.1,4.1-6.6,3.5c0,0-13.2-0.4-17.7,3.3c0,0-8,2.1-10.2-2.3c0,0-8.2-9.7-17.1-8.7c0,0-4.3-4.1-3.9-7.2
	c0,0,0-13.7-8.2-17.7c0,0-2.9-3.7,1.2-6.3C-105,41.1-99,36.5-102.3,30.3z"/>
<path id="inside_donut" class="st2" d="M-80.9,31.7c0,0,5.2-3.5,8.1-3.5c0,0,5.6-4.3,11-1.9l5.2,2.3c0,0,6,2.5,7.2,7.6
	c0,0,3.7,7.2,0,14.9c0,0-3.7,5.8-8.3,5.4c0,0-3.5-2.3-7.6,1.4c0,0-5.6,2.9-10.2-3.1c0,0-2.5-3.7-5.4-5.6c0,0-1.2-2.1-1.4-7.2
	C-82.4,42.1-84.9,36.8-80.9,31.7z"/>
<path id="smal_circle" class="st2" d="M-76.1,43.4c0,0-4.2-9.2,5.9-13c0,0,13-1.3,15,6.5c0,0,5,9-4.6,14.8
	C-59.8,51.7-70.2,59.3-76.1,43.4z"/>
<g id="sprikles_29_">
	<path id="sprikles" class="st6" d="M-79.1,14.5c0,0,2.4-3.1,6-1.3c0,0,0.5,0.6,0,1.1c0,0-3.6-1.3-4.9,1.1
		C-77.9,15.2-79.4,15.6-79.1,14.5z"/>
	<path id="sprikles_1_" class="st7" d="M-70.3,13.1c0,0,2.4-3.1,6-1.3c0,0,0.5,0.6,0,1.1c0,0-3.6-1.3-4.9,1.1
		C-69.2,13.9-70.6,14.3-70.3,13.1z"/>
	<path id="sprikles_2_" class="st8" d="M-71,17c0,0,3.9-0.5,5.2,3.3c0,0-0.1,0.7-0.7,0.7c0,0-1.5-3.5-4.2-2.7
		C-70.7,18.4-72,17.6-71,17z"/>
	<path id="sprikles_3_" class="st9" d="M-78.6,17c0,0,3.8,0.7,4,4.7c0,0-0.3,0.7-0.9,0.5c0,0-0.5-3.8-3.2-3.8
		C-78.7,18.4-79.7,17.3-78.6,17z"/>
	<path id="sprikles_4_" class="st2" d="M-79.7,25.4c0,0-3.8,1-5.6-2.6c0,0,0-0.7,0.6-0.8c0,0,2,3.2,4.5,2.2
		C-80.2,24.1-78.8,24.7-79.7,25.4z"/>
	<path id="sprikles_5_" class="st6" d="M-95.6,18.9c0,0,3.1,2.3,1.5,6c0,0-0.6,0.5-1.1,0c0,0,1.2-3.6-1.2-4.9
		C-96.3,20-96.7,18.6-95.6,18.9z"/>
	<path id="sprikles_6_" class="st10" d="M-94.5,30.1c0,0,2.4-3.1,6-1.3c0,0,0.5,0.6,0,1.1c0,0-3.6-1.3-4.9,1.1
		C-93.3,30.9-94.7,31.3-94.5,30.1z"/>
	<path id="sprikles_7_" class="st11" d="M-84.9,33.7c0,0-3.4,1.9-6.1-1.2c0,0-0.2-0.7,0.4-1c0,0,2.7,2.6,4.9,1
		C-85.7,32.5-84.2,32.8-84.9,33.7z"/>
	<path id="sprikles_8_" class="st6" d="M-90.3,43.6c0,0-3.5-1.6-2.7-5.6c0,0,0.4-0.6,1-0.2c0,0-0.5,3.8,2.2,4.5
		C-89.8,42.3-89.1,43.6-90.3,43.6z"/>
	<path id="sprikles_9_" class="st12" d="M-96.7,40.5c0,0,3.4,2,2.2,5.8c0,0-0.5,0.6-1,0.1c0,0,0.8-3.7-1.7-4.7
		C-97.3,41.8-97.9,40.4-96.7,40.5z"/>
	<path id="sprikles_10_" class="st2" d="M-90.9,52.2c0,0-3.3,2-6.1-0.9c0,0-0.2-0.7,0.4-1c0,0,2.8,2.5,5,0.8
		C-91.7,51.1-90.2,51.3-90.9,52.2z"/>
	<path id="sprikles_11_" class="st13" d="M-85.7,53.5c0,0,3.2-2.2,6.2,0.5c0,0,0.3,0.7-0.3,1c0,0-3-2.3-5-0.4
		C-84.9,54.6-86.3,54.6-85.7,53.5z"/>
	<path id="sprikles_12_" class="st14" d="M-92.5,62.9c0,0-2.8-2.8-0.6-6.2c0,0,0.6-0.4,1,0.1c0,0-1.8,3.4,0.4,5
		C-91.6,61.9-91.3,63.4-92.5,62.9z"/>
	<path id="sprikles_13_" class="st15" d="M-86.9,65.9c0,0-1.6-3.5,1.6-6c0,0,0.7-0.2,0.9,0.5c0,0-2.8,2.5-1.3,4.8
		C-85.7,65.2-86.1,66.7-86.9,65.9z"/>
	<path id="sprikles_14_" class="st2" d="M-80.3,70.5c0,0,0.4-3.9,4.4-4.3c0,0,0.7,0.2,0.6,0.9c0,0-3.7,0.7-3.6,3.5
		C-78.9,70.5-79.9,71.6-80.3,70.5z"/>
	<path id="sprikles_15_" class="st16" d="M-67.1,63.7c0,0,3.5,1.6,2.7,5.6c0,0-0.5,0.6-1,0.2c0,0,0.5-3.8-2.1-4.5
		C-67.6,65-68.3,63.7-67.1,63.7z"/>
	<path id="sprikles_16_" class="st17" d="M-69.2,74.4c0,0,2.4-3.1,6-1.3c0,0,0.5,0.6,0,1.1c0,0-3.6-1.3-4.9,1.1
		C-68,75.2-69.4,75.5-69.2,74.4z"/>
	<path id="sprikles_17_" class="st6" d="M-53.5,67.6c0,0-0.6-3.9,3.1-5.3c0,0,0.7,0,0.8,0.7c0,0-3.4,1.7-2.6,4.3
		C-52.2,67.3-52.9,68.6-53.5,67.6z"/>
	<path id="sprikles_18_" class="st2" d="M-40.3,56.3c0,0,3.2,2.2,1.7,6c0,0-0.5,0.5-1.1,0.1c0,0,1.2-3.6-1.3-4.8
		C-41.1,57.5-41.5,56.1-40.3,56.3z"/>
	<path id="sprikles_19_" class="st18" d="M-38.2,54c0,0,2.4-3.1,6-1.3c0,0,0.5,0.6,0,1.1c0,0-3.6-1.3-4.9,1.1
		C-37.1,54.8-38.5,55.2-38.2,54z"/>
	<path id="sprikles_20_" class="st19" d="M-43.3,50.8c0,0,2.4-3.1,6-1.3c0,0,0.5,0.6,0,1.1c0,0-3.6-1.3-4.9,1.1
		C-42.1,51.6-43.6,52-43.3,50.8z"/>
	<path id="sprikles_21_" class="st6" d="M-38.9,38.4c0,0,3.9,0.5,4.2,4.5c0,0-0.3,0.7-0.9,0.5c0,0-0.6-3.7-3.4-3.7
		C-39,39.8-40,38.7-38.9,38.4z"/>
	<path id="sprikles_22_" class="st20" d="M-44.5,36.7c0,0,3.6,1.5,2.9,5.5c0,0-0.4,0.6-1,0.3c0,0,0.3-3.8-2.4-4.4
		C-44.9,38-45.7,36.7-44.5,36.7z"/>
	<path id="sprikles_23_" class="st2" d="M-41.1,32.5c0,0,0-3.9,4-4.8c0,0,0.7,0.2,0.6,0.8c0,0-3.6,1.1-3.2,3.8
		C-39.8,32.4-40.7,33.6-41.1,32.5z"/>
	<path id="sprikles_24_" class="st21" d="M-44.9,19.4c0,0,3.8,0.6,4.1,4.7c0,0-0.3,0.7-0.9,0.5c0,0-0.5-3.8-3.3-3.8
		C-45,20.7-46.1,19.7-44.9,19.4z"/>
	<path id="sprikles_25_" class="st6" d="M-54.5,21.8c0,0,2.4-3.1,6-1.3c0,0,0.5,0.6,0,1.1c0,0-3.6-1.3-4.9,1.1
		C-53.3,22.5-54.8,22.9-54.5,21.8z"/>
	<path id="sprikles_26_" class="st22" d="M-57.6,13.1c0,0,2.4-3.1,6-1.3c0,0,0.5,0.6,0,1.1c0,0-3.6-1.3-4.9,1.1
		C-56.5,13.9-57.9,14.3-57.6,13.1z"/>
	<path id="sprikles_27_" class="st2" d="M-51.5,5.6c0,0,3.7,1.2,3.4,5.2c0,0-0.4,0.7-1,0.4c0,0,0-3.8-2.7-4.2
		C-51.9,7-52.7,5.8-51.5,5.6z"/>
	<path id="sprikles_28_" class="st23" d="M-62.1,14.7c0,0,3.9,0.2,4.5,4.2c0,0-0.2,0.7-0.9,0.6c0,0-0.9-3.7-3.7-3.4
		C-62.1,16.1-63.3,15.1-62.1,14.7z"/>
</g>
<polygon id="bottom_lipstick" class="st0" points="0.5,50.9 0.5,86.5 20.1,86.5 20.5,50.9 "/>
<path id="center_of_lipstick" class="st1" d="M2.7,48.5V24.9c0,0,5,6.5,16,0v23.6"/>
<path id="lipstick" class="st0" d="M4.8,10.5v14.3c0,0,4.7,1.7,10.8,0c0,0,0.6-18.8-2-21.4C13.6,3.5,11.5,8.9,4.8,10.5z"/>
<path id="lipstick_top" class="st0" d="M4.8,9c0,0,3-10.3,7.2-8.2C12,0.8,14.2,4.1,4.8,9z"/>
<g id="makeup_mirror">
	<path id="outside_mirror" class="st0" d="M65.4,48.2v3h-7c0,0-26.5-22.3,0-45.9c0,0,19.3-14,37,5.3c0,0,15.6,17-0.8,35.8L90,51.2
		h-7.2l-0.1-2.7c0,0,25.3-13.7,5.9-36.7c0,0-13.2-11.2-28.2-0.2s-4.8,29.4-4.8,29.4S61.2,47.5,65.4,48.2z"/>
	<path id="bottom_mirror" class="st0" d="M67.1,48.6v2.5h14v-2.5C81.1,48.6,73.6,52.4,67.1,48.6z"/>
	<ellipse id="blush" class="st0" cx="74.1" cy="64" rx="21.9" ry="10.9"/>
	<path id="mirror_line" class="st1" d="M51.4,68.4c0,0,6.9,8.8,20,9c0,0,16,2.3,25.1-8"/>
	<path id="bottom_mirror_1_" class="st0" d="M57.5,52.9H61c0,0-7.9,2.4-10.6,8.3c0,0-7.2,17.6,23.6,18.4
		c30.7,0.9,23.6-19.9,23.6-19.9s-5.3-5.8-10.1-6.8h3.3c0,0,24.6,9.5,6.7,24.7c0,0-9.1,6.4-18,6.1c0,0-14,1.2-21.1-2S48,77,46,73
		C46,73,36.8,62.4,57.5,52.9z"/>
	<path id="bottom_line" class="st1" d="M48.9,78.7c0,0,25.2,18.3,50.1,0C99,78.7,74.7,96.8,48.9,78.7z"/>
</g>
<g id="wine_1_">
	<path id="glass" class="st0" d="M190.9-13.4l36.4,36.9c0,0-19,35.6-42.8,32.3c0,0-8-0.5-14.5-6.9l-23,23.3l8.8,8.5c0,0,2.3,2,1,4.1
		c0,0-1.6,3.6-5.4,1.3c-3.8-2.3-23.4-23.8-23.4-23.8s-1.5-2.5,1-4.2c0,0,1.6-1.9,3.6-0.2l9.9,9.6l23.4-22.7c0,0-16.6-15.4-0.2-37.1
		C165.7,7.8,184.4-11.8,190.9-13.4z"/>
	<path id="inside_glass" class="st2" d="M190.4-4.4l28.8,28.8c0,0-21.5,35.2-41,22.3s-12.3-26.5-12.3-26.5S170.2,7.4,190.4-4.4z"/>
	<path id="wine" class="st0" d="M175.1,11.8c0,0,8.2,6.6,18.7,7.2c10.5,0.7,22.3,6.9,22.3,6.9s-15.1,19.3-28.8,19
		s-16.4-12.8-16.4-12.8S166.9,25.4,175.1,11.8z"/>
</g>
<g id="heart">
	<path id="left_heart" class="st0" d="M158.5,155.2c0,0,2.9-19,40.6-28.8l3.3,20l-23.9,2.9l-1,25.2l-0.3,4.9l-33.8-11.5v35.4
		l-36.7-6.9v40.3c0,0-37.6-27.2-39.3-59.3c0,0-5.9-38,33.1-48.8s51.1,15.1,51.1,15.1L158.5,155.2z"/>
	<path id="right_heart" class="st0" d="M207.7,126c0,0,41-1.6,42.6,49.2c1.6,50.8-89.8,93.7-89.8,93.7l-42.3-25.6v-35.7l38,1.6
		l-7.5-34.1l35.6,11.8l2.8-30.8l25.6-1L207.7,126z"/>
</g>
<g id="ice_cream_cone">
	<g id="cone">
		
			<rect id="cube" x="-29.8" y="156.5" transform="matrix(0.9122 -0.4097 0.4097 0.9122 -67.9367 3.3855)" class="st0" width="7.4" height="7.4"/>
		
			<rect id="cube_1_" x="-25.9" y="165.2" transform="matrix(0.9122 -0.4097 0.4097 0.9122 -71.1357 5.7339)" class="st0" width="7.4" height="7.4"/>
		
			<rect id="cube_2_" x="-22" y="173.9" transform="matrix(0.9122 -0.4097 0.4097 0.9122 -74.3585 8.0998)" class="st0" width="7.4" height="7.4"/>
		
			<rect id="cube_3_" x="-18.2" y="182.3" transform="matrix(0.9122 -0.4097 0.4097 0.9122 -77.4622 10.3783)" class="st0" width="7.4" height="7.4"/>
		
			<rect id="cube_4_" x="-17.2" y="161.2" transform="matrix(0.9122 -0.4097 0.4097 0.9122 -68.7361 8.937)" class="st0" width="7.4" height="7.4"/>
		
			<rect id="cube_5_" x="-13.3" y="169.3" transform="matrix(0.9122 -0.4097 0.4097 0.9122 -71.7081 11.2363)" class="st0" width="7.4" height="7.4"/>
		
			<rect id="cube_6_" x="-9.2" y="157.7" transform="matrix(0.9122 -0.4097 0.4097 0.9122 -66.5986 11.9142)" class="st0" width="7.4" height="7.4"/>
		
			<rect id="cube_7_" x="-38.8" y="161.2" transform="matrix(0.9122 -0.4097 0.4097 0.9122 -70.6277 0.1088)" class="st0" width="7.4" height="7.4"/>
		
			<rect id="cube_8_" x="-35" y="169.3" transform="matrix(0.9122 -0.4097 0.4097 0.9122 -73.6091 2.3647)" class="st0" width="7.4" height="7.4"/>
		
			<rect id="cube_9_" x="-31.2" y="178" transform="matrix(0.9122 -0.4097 0.4097 0.9122 -76.8639 4.6869)" class="st0" width="7.4" height="7.4"/>
		
			<rect id="cube_10_" x="-26.8" y="186.1" transform="matrix(0.9122 -0.4097 0.4097 0.9122 -79.8121 7.1774)" class="st0" width="7.4" height="7.4"/>
		
			<rect id="cube_11_" x="-23.5" y="194.9" transform="matrix(0.9122 -0.4097 0.4097 0.9122 -83.0997 9.3319)" class="st0" width="7.4" height="7.4"/>
		
			<rect id="cube_12_" x="-31.2" y="198.8" transform="matrix(0.9122 -0.4097 0.4097 0.9122 -85.3853 6.5128)" class="st0" width="7.4" height="7.4"/>
		
			<rect id="cube_13_" x="-35" y="189.8" transform="matrix(0.9122 -0.4097 0.4097 0.9122 -82.0218 4.1673)" class="st0" width="7.4" height="7.4"/>
		
			<rect id="cube_14_" x="-27.3" y="207.5" transform="matrix(0.9122 -0.4097 0.4097 0.9122 -88.6123 8.8683)" class="st0" width="7.4" height="7.4"/>
		<polygon id="corner" class="st0" points="-47.8,156.1 -45.2,155.3 -42.2,161.4 -45.6,163 		"/>
		<path id="corner_1_" class="st0" d="M-43.2,153.5c0,0,3.3,3.4,8.9,2.3l-6.2,4.9L-43.2,153.5z"/>
		<polygon class="st0" points="-32.8,155.6 -28.9,154 -28.5,154.8 -32.4,157.1 		"/>
		<polygon id="corner_2_" class="st0" points="-22.6,156.1 -16.3,154 -12.7,158.3 -19.8,161.4 		"/>
		<path id="corner_3_" class="st0" d="M-12.4,156.1c0,0,5,0.2,6.9-1.5l-5,3.1L-12.4,156.1z"/>
		<polyline id="corner_4_" class="st0" points="-2.5,154.9 -0.1,160.6 1.6,156.1 -2.9,154.9 		"/>
		<polygon id="corner_5_" class="st0" points="-6.9,167.3 -1.8,165.2 -3.9,173.7 		"/>
		<polygon id="corner_6_" class="st0" points="-11.1,180.2 -5.5,177.6 -7.6,187.4 		"/>
		<polygon id="corner_7_" class="st0" points="-15.8,192.7 -9,189.8 -11.8,198.6 		"/>
		<polygon id="corner_8_" class="st0" points="-20.5,204.9 -12.7,202.5 -15.8,211.2 -16.6,213.6 		"/>
		<polygon id="corner_9_" class="st0" points="-25,217.7 -21.5,224.3 -18.9,223.2 -16.6,216.3 -17.7,214.3 		"/>
		<polygon id="corner_10_" class="st0" points="-20.8,226.3 -19.8,228.2 -18.9,225.5 		"/>
		<path id="corner_11_" class="st0" d="M-26.6,228.2l4.4-1.4c0,0,2.5,3.4,0.5,6.1C-21.7,233-23.9,238.1-26.6,228.2z"/>
		<polygon id="corner_12_" class="st0" points="-28.9,219.3 -27.5,226.9 -23.2,225.5 -26,218.4 		"/>
		<polygon id="corner_13_" class="st0" points="-31.7,209.8 -29.6,217.6 -27.5,216.6 -29.6,209.8 		"/>
		<polygon id="corner_14_" class="st0" points="-34.3,201.1 -32.7,208.1 -31.3,207.6 		"/>
		<polygon id="corner_15_" class="st0" points="-39.8,183 -37.4,190.7 -30.7,187.4 -33.5,180.6 		"/>
		<polygon id="corner_16_" class="st0" points="-42.2,173.3 -40.8,181.7 -34.3,178.8 -37.5,172.1 		"/>
		<polygon id="corner_17_" class="st0" points="-45,164.9 -43.2,172.1 -38.3,170.3 -41.7,163 		"/>
	</g>
	<g id="ice_cream_6_">
		<circle id="ice_cream" cx="-50.2" cy="145.5" r="8.6"/>
		<circle id="ice_cream_1_" cx="-35.8" cy="146.5" r="7.5"/>
		<circle id="ice_cream_2_" cx="-22.9" cy="147.2" r="7.3"/>
		<ellipse id="ice_cream_3_" cx="-10.3" cy="147.6" rx="7.4" ry="6.4"/>
		<circle id="ice_cream_4_" cx="4" cy="145.7" r="8.8"/>
		<path id="ice_cream_5_" d="M-52.7,137.9c0,0,0-21.4,25.2-27.4c0,0,20.9-3.4,31.5,17.8c0,0,3.2,5.3,2.4,9.5l-18.8,8.8l-39.2-2.1
			L-52.7,137.9z"/>
	</g>
</g>
</svg>
