<?xml version="1.0" encoding="utf-8"?>
<!-- Generator: Adobe Illustrator 23.0.1, SVG Export Plug-In . SVG Version: 6.00 Build 0)  -->
<svg version="1.1" id="background" xmlns="http://www.w3.org/2000/svg" xmlns:xlink="http://www.w3.org/1999/xlink" x="0px" y="0px"
	 viewBox="0 0 61 87.5" style="enable-background:new 0 0 61 87.5;" xml:space="preserve">
<style type="text/css">
	.st0{stroke:#000000;stroke-miterlimit:10;}
	.st1{fill:none;stroke:#000000;stroke-miterlimit:10;}
	.st2{fill:#FFFFFF;stroke:#000000;stroke-miterlimit:10;}
	.st3{fill:#F4F4C0;stroke:#000000;stroke-miterlimit:10;}
	.st4{fill:#F9F8CE;stroke:#000000;stroke-miterlimit:10;}
	.st5{stroke:#FFFFFF;stroke-miterlimit:10;}
	.st6{fill:#E8E61B;stroke:#000000;stroke-miterlimit:10;}
	.st7{fill:#F15922;stroke:#000000;stroke-miterlimit:10;}
	.st8{fill:#ED2490;stroke:#000000;stroke-miterlimit:10;}
	.st9{fill:#EE2924;stroke:#000000;stroke-miterlimit:10;}
	.st10{fill:#6BCCE4;stroke:#000000;stroke-miterlimit:10;}
	.st11{fill:#129F49;stroke:#000000;stroke-miterlimit:10;}
	.st12{fill:#EF4829;stroke:#000000;stroke-miterlimit:10;}
	.st13{fill:#F04D23;stroke:#000000;stroke-miterlimit:10;}
	.st14{fill:#EF3B24;stroke:#000000;stroke-miterlimit:10;}
	.st15{fill:#33449B;stroke:#000000;stroke-miterlimit:10;}
	.st16{fill:#6CBE45;stroke:#000000;stroke-miterlimit:10;}
	.st17{fill:#66CCE9;stroke:#000000;stroke-miterlimit:10;}
	.st18{fill:#EE3024;stroke:#000000;stroke-miterlimit:10;}
	.st19{fill:#55B948;stroke:#000000;stroke-miterlimit:10;}
	.st20{fill:#3B2F90;stroke:#000000;stroke-miterlimit:10;}
	.st21{fill:#2AB34B;stroke:#000000;stroke-miterlimit:10;}
	.st22{fill:#312D85;stroke:#000000;stroke-miterlimit:10;}
	.st23{fill:#47B649;stroke:#000000;stroke-miterlimit:10;}
</style>
<path id="middle_paw" class="st0" d="M-539.5,24.8c0,0,6.4-5.7,8.9-10.7c2.5-5,11.4-10.4,17.9,0c0,0,4.4,7,6.8,8.2
	c0,0,12.6,12.1-0.7,18.4c0,0-6.1,0.1-7.2-0.9c0,0-8.4-4-13.5-0.1c0,0-10.6,5.4-13.9-3.2C-541.2,36.4-544.2,32.2-539.5,24.8z"/>
<path id="first_dot" class="st0" d="M-551.5,8.1c0,0-0.3-8.3,8-5.5c0,0,7,2.1,6,9.8c0,0-0.8,8.1-7.7,5.3
	C-545.3,17.7-551.5,16.3-551.5,8.1z"/>
<path id="second_dot" class="st0" d="M-538.7-8.3c0,0,4-9.2,11.4-2.1c0,0,6.4,6.4,1.7,13.7c0,0-3.6,5.8-9.7,1.2
	C-535.2,4.5-540.1-0.6-538.7-8.3z"/>
<path id="third_dot" class="st0" d="M-516.3-10.2c0,0,6-7.3,10.9,2.3c0,0,2.3,6.6-1.7,10.6c0,0-2.9,4.4-6.9,3.6c0,0-5-1.3-4.8-5.8
	C-518.8,0.5-520.8-4.6-516.3-10.2z"/>
<path id="forth_dot" class="st0" d="M-500.5,2.5c0,0,6.6-3.3,8.1,5.7c0,0-0.3,7.3-4.1,8.5c0,0-2.4,2.2-5.9,1.6c0,0-3.8-1.1-3.4-5.2
	C-505.8,13.1-507.3,6.5-500.5,2.5z"/>
<ellipse id="top_cake" class="st1" cx="-427.6" cy="15.6" rx="43.4" ry="12.7"/>
<path id="chocolate_cake" class="st2" d="M-471,15.6l2.5,58.1c0,0,40.9,25,79.8,0c0,0,4.5-46.4,3.9-55.9"/>
<path id="icing_side" class="st0" d="M-470.3,32.6c0,0,3.4,32.6,9.1,2.4c0,0,4.1-14.3,8.2,0c0,0,6.1,14.7,9.8,3.2c0,0,3.3-6.6,4.5,0
	c0,0,6.1,36.4,8.6,0c0,0,3.3-5.3,8.6-0.8c0,0,7,25.4,14.3-1.6c0,0,4.5-1.6,4.9,0.8c0,0,8.6,51.1,13.9-2.5c0,0-0.1-12.7,3.2-7
	l0.2-10.5c0,0-9.2,9.5-19.6,8.6c0,0-29,3.4-41.7,0.7c0,0-24.2-4.5-24-9.3V32.6z"/>
<ellipse id="top_icing_cake" class="st0" cx="-427.9" cy="15.6" rx="43.4" ry="12.7"/>
<path id="candle" class="st3" d="M-434.1,16.2v-26.3c0,0,2.9,3.1,5.5,0v27.3C-428.7,17.2-432.6,18.9-434.1,16.2z"/>
<ellipse id="candle_tip" class="st4" cx="-431.4" cy="-10.7" rx="2.7" ry="1.6"/>
<rect id="fire_string" x="-431.7" y="-11.8" class="st1" width="0.5" height="2"/>
<path id="fire" class="st0" d="M-433.3-13.9c0,0-0.2,2.4,1.3,2.2c0,0,1.8,1.4,3-2.2c0,0-1.7-2.6-2.5-5.6
	C-431.5-19.5-433.2-18.4-433.3-13.9z"/>
<path id="flower_patals" class="st5" d="M-287.6,61.6c0,0,5.5,6.1,5.9,15.4c0,0,1.6,5.2,2.5,6.2c0,0,6.2,16.2-4.2,24.8
	c0,0-10,8-18.7-1.8c0,0-7.3-3.6-5.9-25.6l0.4-4.3c0,0-4,12.2,0,24c0,0-5,2.7-10.7-0.6c0,0-3.1-9-4.4-11.6c0,0,18.7-9.8,23.9-26.5
	c0,0-10.5,23.4-28.3,27.1c0,0-4.3,1.3-9.5-3.9c0,0-1-2.1-1.8-2.1c0,0-1.6-4-0.9-8.6c0,0,1.8-0.1,0.7-4c0,0,1-3.9,5.6-6.4
	c0,0,14.2-4.3,27.9-9.5c0,0-27.4,8.6-34.4,11.4c0,0-3.8,0-5.1-2.2c0,0-3.4-0.3-4.4-5.5c0,0,0.9-2.1,0-3.3c0,0,1-4.2,0.6-5.5
	c0,0,0.1-6.5,4.6-8.3c0,0,14.3,10.1,37.9,9.3c0,0-34.8-3.2-40-11.8c0,0-0.7,0.7-1.2-4c0,0-2.7-4.3-0.1-6.4c0,0,4.9-3.9,7.4-4.4
	c0,0,2.8-2.8,9.3-2.7c0,0,2.7-3.9,10.2,0.6c0,0,13.2,2.4,18.5,17.3c0,0-5.9-18.1-28.2-20.5c0,0-4.7-14.5,4.9-20.8
	c0,0,1.8-2.1,8.2,1.2c0,0,0.3,2.5,3,8.3c0,0,19.9,21.5,18.2,28.7c0,0,0.7-5.8-9.2-19.3c0,0-7.7-6.8-8.3-11c0,0-3.8-9.8,7.2-15.1
	c0,0,3.8-2.1,5.7,0c0,0,5-3.9,14.7,2.2c0,0,7.4,4.6,7.1,10.1c0,0-16.2,17-10.8,33.1c0,0-5.1-17.4,12-33.1c0,0,9.3-7.3,18-3.7
	s8.3,15.6,8.3,15.6S-252,24-261,29c0,0-16.3,7.1-19.3,13.3c0,0,7.1-9,19-12.3c0,0,5.2-4.6,8-7.1c0,0,8.9-4,16.2,2.8
	s2.4,10.1,2.4,10.1s4.2,4.4-5.2,18c0,0-16.9-16.9-39.2-5.6c0,0,24.2-11.7,40.2,8.3c0,0,1.9,1.6,2.7,4.7c0,0-0.7,2.4,0.3,3.6
	c0,0,1.5,2.2-0.3,3c0,0-0.3,0.6-0.2,1.8c0,0.2,0,0.5,0.1,0.8c0.3,1.6,0.3,3-1.9,4c0,0,2.2,1.8-1.8,6.7c0,0-1.5,2.5-4,3.9
	c0,0-6.4,2.1-11.3,1.2c0,0-16.9-27-25.5-30.4c0,0,18.8,16,25.1,31.3c0,0-1,12.3-10.8,11.1c0,0-9.2-1-9.9-3.1c0,0-1.2-7.7-2.5-14.2
	l-1.8-4.3C-280.9,76.5-284.2,63.1-287.6,61.6z"/>
<circle id="flower_center" class="st2" cx="-292.6" cy="49.3" r="13.4"/>
<ellipse id="circle_mirror" class="st1" cx="-190.3" cy="31.6" rx="25.2" ry="28.7"/>
<path id="holding_mirror" class="st0" d="M-190.8,65.8v7.5c0,0-8.1-0.3-10.9,6.5h23.4c0,0-1.7-5.8-10-6l-1.2-0.2l0.3-7.8H-190.8z"/>
<ellipse id="big_mirror_circle" class="st2" cx="-190.3" cy="31.9" rx="24.6" ry="28"/>
<path id="big_mirror_cut" class="st0" d="M-205.2,32.9c0,0,11.3-13.9,19.6-19.6C-185.7,13.3-197.5,27.7-205.2,32.9z"/>
<path id="mirror_cut" class="st0" d="M-206.9,24.6c0,0,8.2-10,13.2-12.9C-193.7,11.7-201.6,22-206.9,24.6z"/>
<path id="mirror_holder" class="st1" d="M-215.5,31.6h-4.7c0,0-3.3,32.1,30.2,33.2c0,0,27.8,1.5,29.5-33.2h-4.6"/>
<ellipse id="circle_donut" class="st2" cx="-108.2" cy="41.3" rx="41.8" ry="43.8"/>
<path id="icing" class="st0" d="M-145.7,30.5c0,0-2.9-11.7,6.6-15.6c0,0,7.8-1.4,11-12.1c0,0,2.4-3.1,4.9-2.3c0,0,13.7,4.9,26.9,1.2
	c0,0,12.4-1.2,12.4,7.7c0,0,1.4,13.9,10.8,15.3c0,0,7.5,2.1,3.3,11.6c0,0-2.9,10.6,1.3,15.1c0,0,1.4,11.6-5.8,11.8
	c0,0-9.3,2-11.6,13.7c0,0-3.1,4.1-6.6,3.5c0,0-13.2-0.4-17.7,3.3c0,0-8,2.1-10.2-2.3c0,0-8.2-9.7-17.1-8.7c0,0-4.3-4.1-3.9-7.2
	c0,0,0-13.7-8.2-17.7c0,0-2.9-3.7,1.2-6.3C-148.4,41.3-142.4,36.6-145.7,30.5z"/>
<path id="inside_donut" class="st2" d="M-124.4,31.8c0,0,5.2-3.5,8.1-3.5c0,0,5.6-4.3,11-1.9l5.2,2.3c0,0,6,2.5,7.2,7.6
	c0,0,3.7,7.2,0,14.9c0,0-3.7,5.8-8.3,5.4c0,0-3.5-2.3-7.6,1.4c0,0-5.6,2.9-10.2-3.1c0,0-2.5-3.7-5.4-5.6c0,0-1.2-2.1-1.4-7.2
	C-125.9,42.3-128.3,37-124.4,31.8z"/>
<path id="smal_circle" class="st2" d="M-119.5,43.5c0,0-4.2-9.2,5.9-13c0,0,13-1.3,15,6.5c0,0,5,9-4.6,14.8
	C-103.2,51.9-113.7,59.4-119.5,43.5z"/>
<g id="sprikles_29_">
	<path id="sprikles" class="st6" d="M-122.6,14.6c0,0,2.4-3.1,6-1.3c0,0,0.5,0.6,0,1.1c0,0-3.6-1.3-4.9,1.1
		C-121.4,15.4-122.8,15.8-122.6,14.6z"/>
	<path id="sprikles_1_" class="st7" d="M-113.8,13.3c0,0,2.4-3.1,6-1.3c0,0,0.5,0.6,0,1.1c0,0-3.6-1.3-4.9,1.1
		C-112.7,14.1-114.1,14.4-113.8,13.3z"/>
	<path id="sprikles_2_" class="st8" d="M-114.4,17.2c0,0,3.9-0.5,5.2,3.3c0,0-0.1,0.7-0.7,0.7c0,0-1.5-3.5-4.2-2.7
		C-114.2,18.5-115.4,17.8-114.4,17.2z"/>
	<path id="sprikles_3_" class="st9" d="M-122,17.2c0,0,3.8,0.7,4,4.7c0,0-0.3,0.7-0.9,0.5c0,0-0.5-3.8-3.2-3.8
		C-122.2,18.5-123.2,17.4-122,17.2z"/>
	<path id="sprikles_4_" class="st2" d="M-123.2,25.6c0,0-3.8,1-5.6-2.6c0,0,0-0.7,0.6-0.8c0,0,2,3.2,4.5,2.2
		C-123.6,24.3-122.2,24.9-123.2,25.6z"/>
	<path id="sprikles_5_" class="st6" d="M-139,19c0,0,3.1,2.3,1.5,6c0,0-0.6,0.5-1.1,0c0,0,1.2-3.6-1.2-4.9
		C-139.8,20.2-140.2,18.8-139,19z"/>
	<path id="sprikles_6_" class="st10" d="M-137.9,30.3c0,0,2.4-3.1,6-1.3c0,0,0.5,0.6,0,1.1c0,0-3.6-1.3-4.9,1.1
		C-136.8,31.1-138.2,31.5-137.9,30.3z"/>
	<path id="sprikles_7_" class="st11" d="M-128.4,33.9c0,0-3.4,1.9-6.1-1.2c0,0-0.2-0.7,0.4-1c0,0,2.7,2.6,4.9,1
		C-129.1,32.7-127.7,32.9-128.4,33.9z"/>
	<path id="sprikles_8_" class="st6" d="M-133.7,43.7c0,0-3.5-1.6-2.7-5.6c0,0,0.4-0.6,1-0.2c0,0-0.5,3.8,2.2,4.5
		C-133.3,42.4-132.6,43.8-133.7,43.7z"/>
	<path id="sprikles_9_" class="st12" d="M-140.1,40.7c0,0,3.4,2,2.2,5.8c0,0-0.5,0.6-1,0.1c0,0,0.8-3.7-1.7-4.7
		C-140.7,41.9-141.3,40.6-140.1,40.7z"/>
	<path id="sprikles_10_" class="st2" d="M-134.3,52.4c0,0-3.3,2-6.1-0.9c0,0-0.2-0.7,0.4-1c0,0,2.8,2.5,5,0.8
		C-135.1,51.3-133.7,51.4-134.3,52.4z"/>
	<path id="sprikles_11_" class="st13" d="M-129.2,53.7c0,0,3.2-2.2,6.2,0.5c0,0,0.3,0.7-0.3,1c0,0-3-2.3-5-0.4
		C-128.3,54.8-129.8,54.7-129.2,53.7z"/>
	<path id="sprikles_12_" class="st14" d="M-135.9,63.1c0,0-2.8-2.8-0.6-6.2c0,0,0.6-0.4,1,0.1c0,0-1.8,3.4,0.4,5
		C-135,62.1-134.8,63.5-135.9,63.1z"/>
	<path id="sprikles_13_" class="st15" d="M-130.4,66.1c0,0-1.6-3.5,1.6-6c0,0,0.7-0.2,0.9,0.5c0,0-2.8,2.5-1.3,4.8
		C-129.2,65.4-129.5,66.9-130.4,66.1z"/>
	<path id="sprikles_14_" class="st2" d="M-123.7,70.6c0,0,0.4-3.9,4.4-4.3c0,0,0.7,0.2,0.6,0.9c0,0-3.7,0.7-3.6,3.5
		C-122.3,70.7-123.4,71.8-123.7,70.6z"/>
	<path id="sprikles_15_" class="st16" d="M-110.6,63.9c0,0,3.5,1.6,2.7,5.6c0,0-0.5,0.6-1,0.2c0,0,0.5-3.8-2.1-4.5
		C-111.1,65.2-111.8,63.9-110.6,63.9z"/>
	<path id="sprikles_16_" class="st17" d="M-112.6,74.6c0,0,2.4-3.1,6-1.3c0,0,0.5,0.6,0,1.1c0,0-3.6-1.3-4.9,1.1
		C-111.5,75.3-112.9,75.7-112.6,74.6z"/>
	<path id="sprikles_17_" class="st6" d="M-97,67.8c0,0-0.6-3.9,3.1-5.3c0,0,0.7,0,0.8,0.7c0,0-3.4,1.7-2.6,4.3
		C-95.6,67.4-96.3,68.7-97,67.8z"/>
	<path id="sprikles_18_" class="st2" d="M-83.8,56.5c0,0,3.2,2.2,1.7,6c0,0-0.5,0.5-1.1,0.1c0,0,1.2-3.6-1.3-4.8
		C-84.5,57.7-85,56.3-83.8,56.5z"/>
	<path id="sprikles_19_" class="st18" d="M-81.7,54.2c0,0,2.4-3.1,6-1.3c0,0,0.5,0.6,0,1.1c0,0-3.6-1.3-4.9,1.1
		C-80.5,55-82,55.4-81.7,54.2z"/>
	<path id="sprikles_20_" class="st19" d="M-86.8,51c0,0,2.4-3.1,6-1.3c0,0,0.5,0.6,0,1.1c0,0-3.6-1.3-4.9,1.1
		C-85.6,51.7-87.1,52.1-86.8,51z"/>
	<path id="sprikles_21_" class="st6" d="M-82.4,38.6c0,0,3.9,0.5,4.2,4.5c0,0-0.3,0.7-0.9,0.5c0,0-0.6-3.7-3.4-3.7
		C-82.4,39.9-83.5,38.9-82.4,38.6z"/>
	<path id="sprikles_22_" class="st20" d="M-88,36.8c0,0,3.6,1.5,2.9,5.5c0,0-0.4,0.6-1,0.3c0,0,0.3-3.8-2.4-4.4
		C-88.4,38.2-89.2,36.9-88,36.8z"/>
	<path id="sprikles_23_" class="st2" d="M-84.6,32.7c0,0,0-3.9,4-4.8c0,0,0.7,0.2,0.6,0.8c0,0-3.6,1.1-3.2,3.8
		C-83.2,32.6-84.1,33.7-84.6,32.7z"/>
	<path id="sprikles_24_" class="st21" d="M-88.4,19.5c0,0,3.8,0.6,4.1,4.7c0,0-0.3,0.7-0.9,0.5c0,0-0.5-3.8-3.3-3.8
		C-88.5,20.9-89.5,19.8-88.4,19.5z"/>
	<path id="sprikles_25_" class="st6" d="M-97.9,21.9c0,0,2.4-3.1,6-1.3c0,0,0.5,0.6,0,1.1c0,0-3.6-1.3-4.9,1.1
		C-96.8,22.7-98.2,23.1-97.9,21.9z"/>
	<path id="sprikles_26_" class="st22" d="M-101.1,13.3c0,0,2.4-3.1,6-1.3c0,0,0.5,0.6,0,1.1c0,0-3.6-1.3-4.9,1.1
		C-99.9,14.1-101.4,14.4-101.1,13.3z"/>
	<path id="sprikles_27_" class="st2" d="M-95,5.8c0,0,3.7,1.2,3.4,5.2c0,0-0.4,0.7-1,0.4c0,0,0-3.8-2.7-4.2
		C-95.3,7.1-96.2,5.9-95,5.8z"/>
	<path id="sprikles_28_" class="st23" d="M-105.6,14.9c0,0,3.9,0.2,4.5,4.2c0,0-0.2,0.7-0.9,0.6c0,0-0.9-3.7-3.7-3.4
		C-105.6,16.3-106.7,15.3-105.6,14.9z"/>
</g>
<polygon id="bottom_lipstick" class="st0" points="-43,51.1 -43,86.6 -23.4,86.6 -23,51.1 "/>
<path id="center_of_lipstick" class="st1" d="M-40.8,48.7V25c0,0,5,6.5,16,0v23.6"/>
<path id="lipstick" class="st0" d="M-38.6,10.7V25c0,0,4.7,1.7,10.8,0c0,0,0.6-18.8-2-21.4C-29.8,3.6-32,9.1-38.6,10.7z"/>
<path id="lipstick_top" class="st0" d="M-38.6,9.1c0,0,3-10.3,7.2-8.2C-31.5,0.9-29.3,4.2-38.6,9.1z"/>
<path id="outside_mirror" class="st0" d="M21.9,48.3v3h-7c0,0-26.5-22.3,0-45.9c0,0,19.3-14,37,5.3c0,0,15.6,17-0.8,35.8l-4.6,4.9
	h-7.2l-0.1-2.7c0,0,25.3-13.7,5.9-36.7c0,0-13.2-11.2-28.2-0.2S12,41.1,12,41.1S17.7,47.7,21.9,48.3z"/>
<path id="bottom_mirror" class="st0" d="M23.6,48.8v2.5h14v-2.5C37.6,48.8,30.1,52.5,23.6,48.8z"/>
<ellipse id="blush" class="st0" cx="30.7" cy="64.2" rx="21.9" ry="10.9"/>
<path id="mirror_line" class="st1" d="M8,68.6c0,0,6.9,8.8,20,9c0,0,16,2.3,25.1-8"/>
<path id="bottom_mirror_1_" class="st0" d="M14,53h3.5c0,0-7.9,2.4-10.6,8.3c0,0-7.2,17.6,23.6,18.4c30.7,0.9,23.6-19.9,23.6-19.9
	S48.9,54,44,53h3.3c0,0,24.6,9.5,6.7,24.7c0,0-9.1,6.4-18,6.1c0,0-14,1.2-21.1-2S4.5,77.2,2.6,73.2C2.6,73.2-6.7,62.6,14,53z"/>
<path id="bottom_line" class="st1" d="M5.4,78.9c0,0,25.2,18.3,50.1,0C55.6,78.9,31.2,96.9,5.4,78.9z"/>
<g id="wine_1_">
	<path id="glass" class="st0" d="M147.4-13.3l36.4,36.9c0,0-19,35.6-42.8,32.3c0,0-8-0.5-14.5-6.9l-23,23.3l8.8,8.5c0,0,2.3,2,1,4.1
		c0,0-1.6,3.6-5.4,1.3S84.5,62.4,84.5,62.4s-1.5-2.5,1-4.2c0,0,1.6-1.9,3.6-0.2l9.9,9.6l23.4-22.7c0,0-16.6-15.4-0.2-37.1
		C122.2,7.9,141-11.6,147.4-13.3z"/>
	<path id="inside_glass" class="st2" d="M146.9-4.3l28.8,28.8c0,0-21.5,35.2-41,22.3s-12.3-26.5-12.3-26.5S126.7,7.5,146.9-4.3z"/>
	<path id="wine" class="st0" d="M131.7,12c0,0,8.2,6.6,18.7,7.2c10.5,0.7,22.3,6.9,22.3,6.9s-15.1,19.3-28.8,19
		s-16.4-12.8-16.4-12.8S123.5,25.6,131.7,12z"/>
</g>
<g id="heart">
	<path id="left_heart" class="st0" d="M115.1,155.3c0,0,2.9-19,40.6-28.8l3.3,20l-23.9,2.9l-1,25.2l-0.3,4.9L100,168.1v35.4
		l-36.7-6.9v40.3c0,0-37.6-27.2-39.3-59.3c0,0-5.9-38,33.1-48.8c39-10.8,51.1,15.1,51.1,15.1L115.1,155.3z"/>
	<path id="right_heart" class="st0" d="M164.2,126.2c0,0,41-1.6,42.6,49.2s-89.8,93.7-89.8,93.7l-42.3-25.6v-35.7l38,1.6l-7.5-34.1
		l35.6,11.8l2.8-30.8l25.6-1L164.2,126.2z"/>
</g>
<g id="ice_cream_cone">
	<g id="cone">
		
			<rect id="cube" x="-73.2" y="156.7" transform="matrix(0.9122 -0.4097 0.4097 0.9122 -71.8225 -14.4097)" class="st0" width="7.4" height="7.4"/>
		
			<rect id="cube_1_" x="-69.3" y="165.3" transform="matrix(0.9122 -0.4097 0.4097 0.9122 -75.0215 -12.0613)" class="st0" width="7.4" height="7.4"/>
		
			<rect id="cube_2_" x="-65.4" y="174" transform="matrix(0.9122 -0.4097 0.4097 0.9122 -78.2443 -9.6954)" class="st0" width="7.4" height="7.4"/>
		
			<rect id="cube_3_" x="-61.7" y="182.4" transform="matrix(0.9122 -0.4097 0.4097 0.9122 -81.3481 -7.4169)" class="st0" width="7.4" height="7.4"/>
		
			<rect id="cube_4_" x="-60.7" y="161.3" transform="matrix(0.9122 -0.4097 0.4097 0.9122 -72.6219 -8.8581)" class="st0" width="7.4" height="7.4"/>
		
			<rect id="cube_5_" x="-56.8" y="169.4" transform="matrix(0.9122 -0.4097 0.4097 0.9122 -75.5939 -6.5589)" class="st0" width="7.4" height="7.4"/>
		
			<rect id="cube_6_" x="-52.7" y="157.8" transform="matrix(0.9122 -0.4097 0.4097 0.9122 -70.4845 -5.8809)" class="st0" width="7.4" height="7.4"/>
		
			<rect id="cube_7_" x="-82.2" y="161.3" transform="matrix(0.9122 -0.4097 0.4097 0.9122 -74.5135 -17.6863)" class="st0" width="7.4" height="7.4"/>
		
			<rect id="cube_8_" x="-78.4" y="169.4" transform="matrix(0.9122 -0.4097 0.4097 0.9122 -77.4949 -15.4304)" class="st0" width="7.4" height="7.4"/>
		
			<rect id="cube_9_" x="-74.7" y="178.2" transform="matrix(0.9122 -0.4097 0.4097 0.9122 -80.7497 -13.1083)" class="st0" width="7.4" height="7.4"/>
		
			<rect id="cube_10_" x="-70.3" y="186.3" transform="matrix(0.9122 -0.4097 0.4097 0.9122 -83.6979 -10.6178)" class="st0" width="7.4" height="7.4"/>
		
			<rect id="cube_11_" x="-66.9" y="195.1" transform="matrix(0.9122 -0.4097 0.4097 0.9122 -86.9855 -8.4633)" class="st0" width="7.4" height="7.4"/>
		
			<rect id="cube_12_" x="-74.7" y="199" transform="matrix(0.9122 -0.4097 0.4097 0.9122 -89.2711 -11.2823)" class="st0" width="7.4" height="7.4"/>
		
			<rect id="cube_13_" x="-78.4" y="190" transform="matrix(0.9122 -0.4097 0.4097 0.9122 -85.9076 -13.6278)" class="st0" width="7.4" height="7.4"/>
		
			<rect id="cube_14_" x="-70.8" y="207.7" transform="matrix(0.9122 -0.4097 0.4097 0.9122 -92.4981 -8.9268)" class="st0" width="7.4" height="7.4"/>
		<polygon id="corner" class="st0" points="-91.3,156.3 -88.6,155.5 -85.7,161.5 -89,163.2 		"/>
		<path id="corner_1_" class="st0" d="M-86.7,153.7c0,0,3.3,3.4,8.9,2.3l-6.2,4.9L-86.7,153.7z"/>
		<polygon class="st0" points="-76.3,155.8 -72.4,154.2 -72,155 -75.9,157.2 		"/>
		<polygon id="corner_2_" class="st0" points="-66.1,156.2 -59.8,154.2 -56.2,158.5 -63.2,161.5 		"/>
		<path id="corner_3_" class="st0" d="M-55.9,156.2c0,0,5,0.2,6.9-1.5l-5,3.1L-55.9,156.2z"/>
		<polyline id="corner_4_" class="st0" points="-45.9,155.1 -43.5,160.8 -41.9,156.3 -46.3,155.1 		"/>
		<polygon id="corner_5_" class="st0" points="-50.4,167.5 -45.3,165.4 -47.4,173.9 		"/>
		<polygon id="corner_6_" class="st0" points="-54.5,180.3 -49,177.7 -51.1,187.6 		"/>
		<polygon id="corner_7_" class="st0" points="-59.3,192.9 -52.4,190 -55.3,198.7 		"/>
		<polygon id="corner_8_" class="st0" points="-64,205.1 -56.2,202.7 -59.3,211.4 -60.1,213.8 		"/>
		<polygon id="corner_9_" class="st0" points="-68.4,217.9 -65,224.4 -62.4,223.4 -60.1,216.4 -61.1,214.4 		"/>
		<polygon id="corner_10_" class="st0" points="-64.2,226.4 -63.2,228.4 -62.4,225.7 		"/>
		<path id="corner_11_" class="st0" d="M-70.1,228.4l4.4-1.4c0,0,2.5,3.4,0.5,6.1C-65.2,233.2-67.4,238.3-70.1,228.4z"/>
		<polygon id="corner_12_" class="st0" points="-72.4,219.4 -71,227 -66.6,225.7 -69.5,218.6 		"/>
		<polygon id="corner_13_" class="st0" points="-75.2,210 -73.1,217.8 -71,216.7 -73.1,210 		"/>
		<polygon id="corner_14_" class="st0" points="-77.8,201.3 -76.1,208.2 -74.8,207.8 		"/>
		<polygon id="corner_15_" class="st0" points="-83.2,183.2 -80.8,190.9 -74.1,187.6 -77,180.8 		"/>
		<polygon id="corner_16_" class="st0" points="-85.7,173.5 -84.3,181.9 -77.8,178.9 -80.9,172.3 		"/>
		<polygon id="corner_17_" class="st0" points="-88.5,165 -86.7,172.3 -81.8,170.5 -85.1,163.2 		"/>
	</g>
	<g id="ice_cream_6_">
		<circle id="ice_cream" cx="-93.7" cy="145.6" r="8.6"/>
		<circle id="ice_cream_1_" cx="-79.3" cy="146.7" r="7.5"/>
		<circle id="ice_cream_2_" cx="-66.3" cy="147.4" r="7.3"/>
		<ellipse id="ice_cream_3_" cx="-53.7" cy="147.8" rx="7.4" ry="6.4"/>
		<circle id="ice_cream_4_" cx="-39.4" cy="145.9" r="8.8"/>
		<path id="ice_cream_5_" d="M-96.1,138.1c0,0,0-21.4,25.2-27.4c0,0,20.9-3.4,31.5,17.8c0,0,3.2,5.3,2.4,9.5l-18.8,8.8l-39.2-2.1
			L-96.1,138.1z"/>
	</g>
</g>
</svg>
