<?xml version="1.0" encoding="utf-8"?>
<!-- Generator: Adobe Illustrator 23.0.1, SVG Export Plug-In . SVG Version: 6.00 Build 0)  -->
<svg version="1.1" id="background" xmlns="http://www.w3.org/2000/svg" xmlns:xlink="http://www.w3.org/1999/xlink" x="0px" y="0px"
	 viewBox="0 0 100.9 101.3" style="enable-background:new 0 0 100.9 101.3;" xml:space="preserve">
<style type="text/css">
	.st0{stroke:#000000;stroke-miterlimit:10;}
	.st1{fill:none;stroke:#000000;stroke-miterlimit:10;}
	.st2{fill:#FFFFFF;stroke:#000000;stroke-miterlimit:10;}
	.st3{fill:#F4F4C0;stroke:#000000;stroke-miterlimit:10;}
	.st4{fill:#F9F8CE;stroke:#000000;stroke-miterlimit:10;}
	.st5{stroke:#FFFFFF;stroke-miterlimit:10;}
	.st6{fill:#E8E61B;stroke:#000000;stroke-miterlimit:10;}
	.st7{fill:#F15922;stroke:#000000;stroke-miterlimit:10;}
	.st8{fill:#ED2490;stroke:#000000;stroke-miterlimit:10;}
	.st9{fill:#EE2924;stroke:#000000;stroke-miterlimit:10;}
	.st10{fill:#6BCCE4;stroke:#000000;stroke-miterlimit:10;}
	.st11{fill:#129F49;stroke:#000000;stroke-miterlimit:10;}
	.st12{fill:#EF4829;stroke:#000000;stroke-miterlimit:10;}
	.st13{fill:#F04D23;stroke:#000000;stroke-miterlimit:10;}
	.st14{fill:#EF3B24;stroke:#000000;stroke-miterlimit:10;}
	.st15{fill:#33449B;stroke:#000000;stroke-miterlimit:10;}
	.st16{fill:#6CBE45;stroke:#000000;stroke-miterlimit:10;}
	.st17{fill:#66CCE9;stroke:#000000;stroke-miterlimit:10;}
	.st18{fill:#EE3024;stroke:#000000;stroke-miterlimit:10;}
	.st19{fill:#55B948;stroke:#000000;stroke-miterlimit:10;}
	.st20{fill:#3B2F90;stroke:#000000;stroke-miterlimit:10;}
	.st21{fill:#2AB34B;stroke:#000000;stroke-miterlimit:10;}
	.st22{fill:#312D85;stroke:#000000;stroke-miterlimit:10;}
	.st23{fill:#47B649;stroke:#000000;stroke-miterlimit:10;}
</style>
<path id="middle_paw" class="st0" d="M-623,38.6c0,0,6.4-5.7,8.9-10.7c2.5-5,11.4-10.4,17.9,0c0,0,4.4,7,6.8,8.2
	c0,0,12.6,12.1-0.7,18.4c0,0-6.1,0.1-7.2-0.9c0,0-8.4-4-13.5-0.1c0,0-10.6,5.4-13.9-3.2C-624.7,50.3-627.8,46-623,38.6z"/>
<path id="first_dot" class="st0" d="M-635,22c0,0-0.3-8.3,8-5.5c0,0,7,2.1,6,9.8c0,0-0.8,8.1-7.7,5.3C-628.8,31.6-635,30.1-635,22z"
	/>
<path id="second_dot" class="st0" d="M-622.2,5.6c0,0,4-9.2,11.4-2.1c0,0,6.4,6.4,1.7,13.7c0,0-3.6,5.8-9.7,1.2
	C-618.7,18.3-623.6,13.2-622.2,5.6z"/>
<path id="third_dot" class="st0" d="M-599.8,3.6c0,0,6-7.3,10.9,2.3c0,0,2.3,6.6-1.7,10.6c0,0-2.9,4.4-6.9,3.6c0,0-5-1.3-4.8-5.8
	C-602.3,14.3-604.3,9.2-599.8,3.6z"/>
<path id="forth_dot" class="st0" d="M-584,16.3c0,0,6.6-3.3,8.1,5.7c0,0-0.3,7.3-4.1,8.5c0,0-2.4,2.2-5.9,1.6c0,0-3.8-1.1-3.4-5.2
	C-589.3,26.9-590.8,20.3-584,16.3z"/>
<ellipse id="top_cake" class="st1" cx="-511.2" cy="29.4" rx="43.4" ry="12.7"/>
<path id="chocolate_cake" class="st2" d="M-554.5,29.4l2.5,58.1c0,0,40.9,25,79.8,0c0,0,4.5-46.4,3.9-55.9"/>
<path id="icing_side" class="st0" d="M-553.8,46.5c0,0,3.4,32.6,9.1,2.4c0,0,4.1-14.3,8.2,0c0,0,6.1,14.7,9.8,3.2c0,0,3.3-6.6,4.5,0
	c0,0,6.1,36.4,8.6,0c0,0,3.3-5.3,8.6-0.8c0,0,7,25.4,14.3-1.6c0,0,4.5-1.6,4.9,0.8c0,0,8.6,51.1,13.9-2.5c0,0-0.1-12.7,3.2-7
	l0.2-10.5c0,0-9.2,9.5-19.6,8.6c0,0-29,3.4-41.7,0.7c0,0-24.2-4.5-24-9.3V46.5z"/>
<ellipse id="top_icing_cake" class="st0" cx="-511.5" cy="29.4" rx="43.4" ry="12.7"/>
<path id="candle" class="st3" d="M-517.7,30V3.7c0,0,2.9,3.1,5.5,0V31C-512.2,31-516.1,32.7-517.7,30z"/>
<ellipse id="candle_tip" class="st4" cx="-514.9" cy="3.2" rx="2.7" ry="1.6"/>
<rect id="fire_string" x="-515.2" y="2" class="st1" width="0.5" height="2"/>
<path id="fire" class="st0" d="M-516.8-0.1c0,0-0.2,2.4,1.3,2.2c0,0,1.8,1.4,3-2.2c0,0-1.7-2.6-2.5-5.6
	C-515-5.7-516.7-4.5-516.8-0.1z"/>
<path id="flower_patals" class="st5" d="M-371.1,75.5c0,0,5.5,6.1,5.9,15.4c0,0,1.6,5.2,2.5,6.2c0,0,6.2,16.2-4.2,24.8
	c0,0-10,8-18.7-1.8c0,0-7.3-3.6-5.9-25.6l0.4-4.3c0,0-4,12.2,0,24c0,0-5,2.7-10.7-0.6c0,0-3.1-9-4.4-11.6c0,0,18.7-9.8,23.9-26.5
	c0,0-10.5,23.4-28.3,27.1c0,0-4.3,1.3-9.5-3.9c0,0-1-2.1-1.8-2.1c0,0-1.6-4-0.9-8.6c0,0,1.8-0.1,0.7-4c0,0,1-3.9,5.6-6.4
	c0,0,14.2-4.3,27.9-9.5c0,0-27.4,8.6-34.4,11.4c0,0-3.8,0-5.1-2.2c0,0-3.4-0.3-4.4-5.5c0,0,0.9-2.1,0-3.3c0,0,1-4.2,0.6-5.5
	c0,0,0.1-6.5,4.6-8.3c0,0,14.3,10.1,37.9,9.3c0,0-34.8-3.2-40-11.8c0,0-0.7,0.7-1.2-4c0,0-2.7-4.3-0.1-6.4c0,0,4.9-3.9,7.4-4.4
	c0,0,2.8-2.8,9.3-2.7c0,0,2.7-3.9,10.2,0.6c0,0,13.2,2.4,18.5,17.3c0,0-5.9-18.1-28.2-20.5c0,0-4.7-14.5,4.9-20.8
	c0,0,1.8-2.1,8.2,1.2c0,0,0.3,2.5,3,8.3c0,0,19.9,21.5,18.2,28.7c0,0,0.7-5.8-9.2-19.3c0,0-7.7-6.8-8.3-11c0,0-3.8-9.8,7.2-15.1
	c0,0,3.8-2.1,5.7,0c0,0,5-3.9,14.7,2.2c0,0,7.4,4.6,7.1,10.1c0,0-16.2,17-10.8,33.1c0,0-5.1-17.4,12-33.1c0,0,9.3-7.3,18-3.7
	s8.3,15.6,8.3,15.6s-1,9.3-10.1,14.4c0,0-16.3,7.1-19.3,13.3c0,0,7.1-9,19-12.3c0,0,5.2-4.6,8-7.1c0,0,8.9-4,16.2,2.8
	c7.3,6.8,2.4,10.1,2.4,10.1s4.2,4.4-5.2,18c0,0-16.9-16.9-39.2-5.6c0,0,24.2-11.7,40.2,8.3c0,0,1.9,1.6,2.7,4.7c0,0-0.7,2.4,0.3,3.6
	c0,0,1.5,2.2-0.3,3c0,0-0.3,0.6-0.2,1.8c0,0.2,0,0.5,0.1,0.8c0.3,1.6,0.3,3-1.9,4c0,0,2.2,1.8-1.8,6.7c0,0-1.5,2.5-4,3.9
	c0,0-6.4,2.1-11.3,1.2c0,0-16.9-27-25.5-30.4c0,0,18.8,16,25.1,31.3c0,0-1,12.3-10.8,11.1c0,0-9.2-1-9.9-3.1c0,0-1.2-7.7-2.5-14.2
	l-1.8-4.3C-364.4,90.3-367.7,77-371.1,75.5z"/>
<circle id="flower_center" class="st2" cx="-376.1" cy="63.2" r="13.4"/>
<ellipse id="circle_mirror" class="st1" cx="-273.8" cy="45.4" rx="25.2" ry="28.7"/>
<path id="holding_mirror" class="st0" d="M-274.3,79.6v7.5c0,0-8.1-0.3-10.9,6.5h23.4c0,0-1.7-5.8-10-6l-1.2-0.2l0.3-7.8H-274.3z"/>
<ellipse id="big_mirror_circle" class="st2" cx="-273.8" cy="45.7" rx="24.6" ry="28"/>
<path id="big_mirror_cut" class="st0" d="M-288.8,46.7c0,0,11.3-13.9,19.6-19.6C-269.2,27.2-281,41.5-288.8,46.7z"/>
<path id="mirror_cut" class="st0" d="M-290.5,38.4c0,0,8.2-10,13.2-12.9C-277.2,25.5-285.1,35.8-290.5,38.4z"/>
<path id="mirror_holder" class="st1" d="M-299,45.4h-4.7c0,0-3.3,32.1,30.2,33.2c0,0,27.8,1.5,29.5-33.2h-4.6"/>
<ellipse id="circle_donut" class="st2" cx="-191.8" cy="55.1" rx="41.8" ry="43.8"/>
<path id="icing" class="st0" d="M-229.2,44.3c0,0-2.9-11.7,6.6-15.6c0,0,7.8-1.4,11-12.1c0,0,2.4-3.1,4.9-2.3c0,0,13.7,4.9,26.9,1.2
	c0,0,12.4-1.2,12.4,7.7c0,0,1.4,13.9,10.8,15.3c0,0,7.5,2.1,3.3,11.6c0,0-2.9,10.6,1.3,15.1c0,0,1.4,11.6-5.8,11.8
	c0,0-9.3,2-11.6,13.7c0,0-3.1,4.1-6.6,3.5c0,0-13.2-0.4-17.7,3.3c0,0-8,2.1-10.2-2.3c0,0-8.2-9.7-17.1-8.7c0,0-4.3-4.1-3.9-7.2
	c0,0,0-13.7-8.2-17.7c0,0-2.9-3.7,1.2-6.3C-231.9,55.1-225.9,50.5-229.2,44.3z"/>
<path id="inside_donut" class="st2" d="M-207.9,45.7c0,0,5.2-3.5,8.1-3.5c0,0,5.6-4.3,11-1.9l5.2,2.3c0,0,6,2.5,7.2,7.6
	c0,0,3.7,7.2,0,14.9c0,0-3.7,5.8-8.3,5.4c0,0-3.5-2.3-7.6,1.4c0,0-5.6,2.9-10.2-3.1c0,0-2.5-3.7-5.4-5.6c0,0-1.2-2.1-1.4-7.2
	C-209.4,56.1-211.9,50.8-207.9,45.7z"/>
<path id="smal_circle" class="st2" d="M-203.1,57.4c0,0-4.2-9.2,5.9-13c0,0,13-1.3,15,6.5c0,0,5,9-4.6,14.8
	C-186.7,65.7-197.2,73.3-203.1,57.4z"/>
<g id="sprikles_29_">
	<path id="sprikles" class="st6" d="M-206.1,28.5c0,0,2.4-3.1,6-1.3c0,0,0.5,0.6,0,1.1c0,0-3.6-1.3-4.9,1.1
		C-204.9,29.2-206.4,29.6-206.1,28.5z"/>
	<path id="sprikles_1_" class="st7" d="M-197.3,27.1c0,0,2.4-3.1,6-1.3c0,0,0.5,0.6,0,1.1c0,0-3.6-1.3-4.9,1.1
		C-196.2,27.9-197.6,28.3-197.3,27.1z"/>
	<path id="sprikles_2_" class="st8" d="M-197.9,31c0,0,3.9-0.5,5.2,3.3c0,0-0.1,0.7-0.7,0.7c0,0-1.5-3.5-4.2-2.7
		C-197.7,32.4-199,31.6-197.9,31z"/>
	<path id="sprikles_3_" class="st9" d="M-205.6,31c0,0,3.8,0.7,4,4.7c0,0-0.3,0.7-0.9,0.5c0,0-0.5-3.8-3.2-3.8
		C-205.7,32.4-206.7,31.3-205.6,31z"/>
	<path id="sprikles_4_" class="st2" d="M-206.7,39.4c0,0-3.8,1-5.6-2.6c0,0,0-0.7,0.6-0.8c0,0,2,3.2,4.5,2.2
		C-207.1,38.1-205.8,38.7-206.7,39.4z"/>
	<path id="sprikles_5_" class="st6" d="M-222.6,32.8c0,0,3.1,2.3,1.5,6c0,0-0.6,0.5-1.1,0c0,0,1.2-3.6-1.2-4.9
		C-223.3,34-223.7,32.6-222.6,32.8z"/>
	<path id="sprikles_6_" class="st10" d="M-221.4,44.1c0,0,2.4-3.1,6-1.3c0,0,0.5,0.6,0,1.1c0,0-3.6-1.3-4.9,1.1
		C-220.3,44.9-221.7,45.3-221.4,44.1z"/>
	<path id="sprikles_7_" class="st11" d="M-211.9,47.7c0,0-3.4,1.9-6.1-1.2c0,0-0.2-0.7,0.4-1c0,0,2.7,2.6,4.9,1
		C-212.6,46.5-211.2,46.8-211.9,47.7z"/>
	<path id="sprikles_8_" class="st6" d="M-217.3,57.6c0,0-3.5-1.6-2.7-5.6c0,0,0.4-0.6,1-0.2c0,0-0.5,3.8,2.2,4.5
		C-216.8,56.3-216.1,57.6-217.3,57.6z"/>
	<path id="sprikles_9_" class="st12" d="M-223.7,54.5c0,0,3.4,2,2.2,5.8c0,0-0.5,0.6-1,0.1c0,0,0.8-3.7-1.7-4.7
		C-224.3,55.8-224.8,54.4-223.7,54.5z"/>
	<path id="sprikles_10_" class="st2" d="M-217.9,66.2c0,0-3.3,2-6.1-0.9c0,0-0.2-0.7,0.4-1c0,0,2.8,2.5,5,0.8
		C-218.7,65.1-217.2,65.3-217.9,66.2z"/>
	<path id="sprikles_11_" class="st13" d="M-212.7,67.5c0,0,3.2-2.2,6.2,0.5c0,0,0.3,0.7-0.3,1c0,0-3-2.3-5-0.4
		C-211.8,68.6-213.3,68.6-212.7,67.5z"/>
	<path id="sprikles_12_" class="st14" d="M-219.4,76.9c0,0-2.8-2.8-0.6-6.2c0,0,0.6-0.4,1,0.1c0,0-1.8,3.4,0.4,5
		C-218.5,75.9-218.3,77.4-219.4,76.9z"/>
	<path id="sprikles_13_" class="st15" d="M-213.9,79.9c0,0-1.6-3.5,1.6-6c0,0,0.7-0.2,0.9,0.5c0,0-2.8,2.5-1.3,4.8
		C-212.7,79.2-213,80.7-213.9,79.9z"/>
	<path id="sprikles_14_" class="st2" d="M-207.2,84.5c0,0,0.4-3.9,4.4-4.3c0,0,0.7,0.2,0.6,0.9c0,0-3.7,0.7-3.6,3.5
		C-205.9,84.5-206.9,85.6-207.2,84.5z"/>
	<path id="sprikles_15_" class="st16" d="M-194.1,77.7c0,0,3.5,1.6,2.7,5.6c0,0-0.5,0.6-1,0.2c0,0,0.5-3.8-2.1-4.5
		C-194.6,79-195.3,77.7-194.1,77.7z"/>
	<path id="sprikles_16_" class="st17" d="M-196.1,88.4c0,0,2.4-3.1,6-1.3c0,0,0.5,0.6,0,1.1c0,0-3.6-1.3-4.9,1.1
		C-195,89.1-196.4,89.5-196.1,88.4z"/>
	<path id="sprikles_17_" class="st6" d="M-180.5,81.6c0,0-0.6-3.9,3.1-5.3c0,0,0.7,0,0.8,0.7c0,0-3.4,1.7-2.6,4.3
		C-179.2,81.3-179.9,82.6-180.5,81.6z"/>
	<path id="sprikles_18_" class="st2" d="M-167.3,70.3c0,0,3.2,2.2,1.7,6c0,0-0.5,0.5-1.1,0.1c0,0,1.2-3.6-1.3-4.8
		C-168,71.5-168.5,70.1-167.3,70.3z"/>
	<path id="sprikles_19_" class="st18" d="M-165.2,68c0,0,2.4-3.1,6-1.3c0,0,0.5,0.6,0,1.1c0,0-3.6-1.3-4.9,1.1
		C-164.1,68.8-165.5,69.2-165.2,68z"/>
	<path id="sprikles_20_" class="st19" d="M-170.3,64.8c0,0,2.4-3.1,6-1.3c0,0,0.5,0.6,0,1.1c0,0-3.6-1.3-4.9,1.1
		C-169.1,65.6-170.6,65.9-170.3,64.8z"/>
	<path id="sprikles_21_" class="st6" d="M-165.9,52.4c0,0,3.9,0.5,4.2,4.5c0,0-0.3,0.7-0.9,0.5c0,0-0.6-3.7-3.4-3.7
		C-165.9,53.8-167,52.7-165.9,52.4z"/>
	<path id="sprikles_22_" class="st20" d="M-171.5,50.7c0,0,3.6,1.5,2.9,5.5c0,0-0.4,0.6-1,0.3c0,0,0.3-3.8-2.4-4.4
		C-171.9,52-172.7,50.7-171.5,50.7z"/>
	<path id="sprikles_23_" class="st2" d="M-168.1,46.5c0,0,0-3.9,4-4.8c0,0,0.7,0.2,0.6,0.8c0,0-3.6,1.1-3.2,3.8
		C-166.7,46.4-167.7,47.6-168.1,46.5z"/>
	<path id="sprikles_24_" class="st21" d="M-171.9,33.4c0,0,3.8,0.6,4.1,4.7c0,0-0.3,0.7-0.9,0.5c0,0-0.5-3.8-3.3-3.8
		C-172,34.7-173.1,33.7-171.9,33.4z"/>
	<path id="sprikles_25_" class="st6" d="M-181.5,35.8c0,0,2.4-3.1,6-1.3c0,0,0.5,0.6,0,1.1c0,0-3.6-1.3-4.9,1.1
		C-180.3,36.5-181.7,36.9-181.5,35.8z"/>
	<path id="sprikles_26_" class="st22" d="M-184.6,27.1c0,0,2.4-3.1,6-1.3c0,0,0.5,0.6,0,1.1c0,0-3.6-1.3-4.9,1.1
		C-183.5,27.9-184.9,28.3-184.6,27.1z"/>
	<path id="sprikles_27_" class="st2" d="M-178.5,19.6c0,0,3.7,1.2,3.4,5.2c0,0-0.4,0.7-1,0.4c0,0,0-3.8-2.7-4.2
		C-178.8,21-179.7,19.7-178.5,19.6z"/>
	<path id="sprikles_28_" class="st23" d="M-189.1,28.7c0,0,3.9,0.2,4.5,4.2c0,0-0.2,0.7-0.9,0.6c0,0-0.9-3.7-3.7-3.4
		C-189.1,30.1-190.2,29.1-189.1,28.7z"/>
</g>
<polygon id="bottom_lipstick" class="st0" points="-126.5,64.9 -126.5,100.5 -106.9,100.5 -106.5,64.9 "/>
<path id="center_of_lipstick" class="st1" d="M-124.3,62.5V38.8c0,0,5,6.5,16,0v23.6"/>
<path id="lipstick" class="st0" d="M-122.2,24.5v14.3c0,0,4.7,1.7,10.8,0c0,0,0.6-18.8-2-21.4C-113.4,17.5-115.5,22.9-122.2,24.5z"
	/>
<path id="lipstick_top" class="st0" d="M-122.2,23c0,0,3-10.3,7.2-8.2C-115,14.8-112.8,18.1-122.2,23z"/>
<path id="outside_mirror" class="st0" d="M-61.6,62.1v3h-7c0,0-26.5-22.3,0-45.9c0,0,19.3-14,37,5.3c0,0,15.6,17-0.8,35.8l-4.6,4.9
	h-7.2l-0.1-2.7c0,0,25.3-13.7,5.9-36.7c0,0-13.2-11.2-28.2-0.2s-4.8,29.4-4.8,29.4S-65.8,61.5-61.6,62.1z"/>
<path id="bottom_mirror" class="st0" d="M-59.9,62.6v2.5h14v-2.5C-45.9,62.6-53.4,66.4-59.9,62.6z"/>
<ellipse id="blush" class="st0" cx="-52.9" cy="78" rx="21.9" ry="10.9"/>
<path id="mirror_line" class="st1" d="M-75.5,82.4c0,0,6.9,8.8,20,9c0,0,16,2.3,25.1-8"/>
<path id="bottom_mirror_1_" class="st0" d="M-69.5,66.9h3.5c0,0-7.9,2.4-10.6,8.3c0,0-7.2,17.6,23.6,18.4
	c30.7,0.9,23.6-19.9,23.6-19.9s-5.3-5.8-10.1-6.8h3.3c0,0,24.6,9.5,6.7,24.7c0,0-9.1,6.4-18,6.1c0,0-14,1.2-21.1-2
	C-75.5,92.4-79,91-81,87C-81,87-90.2,76.4-69.5,66.9z"/>
<path id="bottom_line" class="st1" d="M-78.1,92.7c0,0,25.2,18.3,50.1,0C-28,92.7-52.3,110.8-78.1,92.7z"/>
<path id="glass" class="st0" d="M63.9,0.6l36.4,36.9c0,0-19,35.6-42.8,32.3c0,0-8-0.5-14.5-6.9L20,86.1l8.8,8.5c0,0,2.3,2,1,4.1
	c0,0-1.6,3.6-5.4,1.3C20.6,97.7,0.9,76.3,0.9,76.3s-1.5-2.5,1-4.2c0,0,1.6-1.9,3.6-0.2l9.9,9.6l23.4-22.7c0,0-16.6-15.4-0.2-37.1
	C38.7,21.7,57.5,2.2,63.9,0.6z"/>
<path id="inside_glass" class="st2" d="M63.4,9.6l28.8,28.8c0,0-21.5,35.2-41,22.3S39,34.1,39,34.1S43.2,21.4,63.4,9.6z"/>
<path id="wine" class="st0" d="M48.1,25.8c0,0,8.2,6.6,18.7,7.2c10.5,0.7,22.3,6.9,22.3,6.9S74,59.2,60.3,58.9S43.9,46.1,43.9,46.1
	S39.9,39.4,48.1,25.8z"/>
<g id="heart">
	<path id="left_heart" class="st0" d="M31.5,169.2c0,0,2.9-19,40.6-28.8l3.3,20l-23.9,2.9l-1,25.2l-0.3,4.9l-33.8-11.5v35.4
		l-36.7-6.9v40.3c0,0-37.6-27.2-39.3-59.3c0,0-5.9-38,33.1-48.8s51.1,15.1,51.1,15.1L31.5,169.2z"/>
	<path id="right_heart" class="st0" d="M80.7,140c0,0,41-1.6,42.6,49.2c1.6,50.8-89.8,93.7-89.8,93.7l-42.3-25.6v-35.7l38,1.6
		l-7.5-34.1l35.6,11.8l2.8-30.8l25.6-1L80.7,140z"/>
</g>
<g id="ice_cream_cone">
	<g id="cone">
		
			<rect id="cube" x="-156.7" y="170.5" transform="matrix(0.9122 -0.4097 0.4097 0.9122 -84.8195 -47.4172)" class="st0" width="7.4" height="7.4"/>
		
			<rect id="cube_1_" x="-152.9" y="179.2" transform="matrix(0.9122 -0.4097 0.4097 0.9122 -88.0185 -45.0688)" class="st0" width="7.4" height="7.4"/>
		
			<rect id="cube_2_" x="-149" y="187.9" transform="matrix(0.9122 -0.4097 0.4097 0.9122 -91.2413 -42.7029)" class="st0" width="7.4" height="7.4"/>
		
			<rect id="cube_3_" x="-145.2" y="196.2" transform="matrix(0.9122 -0.4097 0.4097 0.9122 -94.345 -40.4244)" class="st0" width="7.4" height="7.4"/>
		
			<rect id="cube_4_" x="-144.2" y="175.2" transform="matrix(0.9122 -0.4097 0.4097 0.9122 -85.6189 -41.8657)" class="st0" width="7.4" height="7.4"/>
		
			<rect id="cube_5_" x="-140.3" y="183.2" transform="matrix(0.9122 -0.4097 0.4097 0.9122 -88.5909 -39.5664)" class="st0" width="7.4" height="7.4"/>
		
			<rect id="cube_6_" x="-136.2" y="171.7" transform="matrix(0.9122 -0.4097 0.4097 0.9122 -83.4814 -38.8884)" class="st0" width="7.4" height="7.4"/>
		
			<rect id="cube_7_" x="-165.7" y="175.2" transform="matrix(0.9122 -0.4097 0.4097 0.9122 -87.5105 -50.6938)" class="st0" width="7.4" height="7.4"/>
		
			<rect id="cube_8_" x="-162" y="183.2" transform="matrix(0.9122 -0.4097 0.4097 0.9122 -90.4919 -48.438)" class="st0" width="7.4" height="7.4"/>
		
			<rect id="cube_9_" x="-158.2" y="192" transform="matrix(0.9122 -0.4097 0.4097 0.9122 -93.7467 -46.1158)" class="st0" width="7.4" height="7.4"/>
		
			<rect id="cube_10_" x="-153.8" y="200.1" transform="matrix(0.9122 -0.4097 0.4097 0.9122 -96.6949 -43.6253)" class="st0" width="7.4" height="7.4"/>
		
			<rect id="cube_11_" x="-150.5" y="208.9" transform="matrix(0.9122 -0.4097 0.4097 0.9122 -99.9825 -41.4708)" class="st0" width="7.4" height="7.4"/>
		
			<rect id="cube_12_" x="-158.2" y="212.8" transform="matrix(0.9122 -0.4097 0.4097 0.9122 -102.2681 -44.2898)" class="st0" width="7.4" height="7.4"/>
		
			<rect id="cube_13_" x="-162" y="203.8" transform="matrix(0.9122 -0.4097 0.4097 0.9122 -98.9045 -46.6353)" class="st0" width="7.4" height="7.4"/>
		
			<rect id="cube_14_" x="-154.3" y="221.5" transform="matrix(0.9122 -0.4097 0.4097 0.9122 -105.4951 -41.9344)" class="st0" width="7.4" height="7.4"/>
		<polygon id="corner" class="st0" points="-174.8,170.1 -172.2,169.3 -169.2,175.4 -172.5,177 		"/>
		<path id="corner_1_" class="st0" d="M-170.2,167.5c0,0,3.3,3.4,8.9,2.3l-6.2,4.9L-170.2,167.5z"/>
		<polygon class="st0" points="-159.8,169.6 -155.9,168 -155.5,168.8 -159.4,171.1 		"/>
		<polygon id="corner_2_" class="st0" points="-149.6,170 -143.3,168 -139.7,172.3 -146.8,175.4 		"/>
		<path id="corner_3_" class="st0" d="M-139.4,170c0,0,5,0.2,6.9-1.5l-5,3.1L-139.4,170z"/>
		<polyline id="corner_4_" class="st0" points="-129.5,168.9 -127.1,174.6 -125.4,170.1 -129.8,168.9 		"/>
		<polygon id="corner_5_" class="st0" points="-133.9,181.3 -128.8,179.2 -130.9,187.7 		"/>
		<polygon id="corner_6_" class="st0" points="-138.1,194.1 -132.5,191.6 -134.6,201.4 		"/>
		<polygon id="corner_7_" class="st0" points="-142.8,206.7 -135.9,203.8 -138.8,212.6 		"/>
		<polygon id="corner_8_" class="st0" points="-147.5,218.9 -139.7,216.5 -142.8,225.2 -143.6,227.6 		"/>
		<polygon id="corner_9_" class="st0" points="-151.9,231.7 -148.5,238.3 -145.9,237.2 -143.6,230.2 -144.7,228.3 		"/>
		<polygon id="corner_10_" class="st0" points="-147.8,240.2 -146.8,242.2 -145.9,239.5 		"/>
		<path id="corner_11_" class="st0" d="M-153.6,242.2l4.4-1.4c0,0,2.5,3.4,0.5,6.1C-148.7,247-150.9,252.1-153.6,242.2z"/>
		<polygon id="corner_12_" class="st0" points="-155.9,233.3 -154.5,240.9 -150.1,239.5 -153,232.4 		"/>
		<polygon id="corner_13_" class="st0" points="-158.7,223.8 -156.6,231.6 -154.5,230.6 -156.6,223.8 		"/>
		<polygon id="corner_14_" class="st0" points="-161.3,215.1 -159.7,222.1 -158.3,221.6 		"/>
		<polygon id="corner_15_" class="st0" points="-166.7,197 -164.3,204.7 -157.7,201.4 -160.5,194.6 		"/>
		<polygon id="corner_16_" class="st0" points="-169.2,187.3 -167.8,195.7 -161.3,192.7 -164.4,186.1 		"/>
		<polygon id="corner_17_" class="st0" points="-172,178.9 -170.2,186.1 -165.3,184.3 -168.6,177 		"/>
	</g>
	<g id="ice_cream_6_">
		<circle id="ice_cream" cx="-177.2" cy="159.5" r="8.6"/>
		<circle id="ice_cream_1_" cx="-162.8" cy="160.5" r="7.5"/>
		<circle id="ice_cream_2_" cx="-149.9" cy="161.2" r="7.3"/>
		<ellipse id="ice_cream_3_" cx="-137.2" cy="161.6" rx="7.4" ry="6.4"/>
		<circle id="ice_cream_4_" cx="-122.9" cy="159.7" r="8.8"/>
		<path id="ice_cream_5_" d="M-179.7,151.9c0,0,0-21.4,25.2-27.4c0,0,20.9-3.4,31.5,17.8c0,0,3.2,5.3,2.4,9.5l-18.8,8.8l-39.2-2.1
			L-179.7,151.9z"/>
	</g>
</g>
</svg>
